G04 #@! TF.GenerationSoftware,KiCad,Pcbnew,(5.0.1-3-g963ef8bb5)*
G04 #@! TF.CreationDate,2020-10-05T19:50:21+01:00*
G04 #@! TF.ProjectId,ACE_Backplane_Adaptor_B,4143455F4261636B706C616E655F4164,rev?*
G04 #@! TF.SameCoordinates,Original*
G04 #@! TF.FileFunction,Soldermask,Bot*
G04 #@! TF.FilePolarity,Negative*
%FSLAX46Y46*%
G04 Gerber Fmt 4.6, Leading zero omitted, Abs format (unit mm)*
G04 Created by KiCad (PCBNEW (5.0.1-3-g963ef8bb5)) date Monday, 05 October 2020 at 19:50:21*
%MOMM*%
%LPD*%
G01*
G04 APERTURE LIST*
%ADD10C,0.100000*%
G04 APERTURE END LIST*
D10*
G36*
X180729812Y-97177624D02*
X180893784Y-97245544D01*
X181041354Y-97344147D01*
X181166853Y-97469646D01*
X181265456Y-97617216D01*
X181333376Y-97781188D01*
X181368000Y-97955259D01*
X181368000Y-98132741D01*
X181333376Y-98306812D01*
X181265456Y-98470784D01*
X181166853Y-98618354D01*
X181041354Y-98743853D01*
X180893784Y-98842456D01*
X180729812Y-98910376D01*
X180555741Y-98945000D01*
X180378259Y-98945000D01*
X180204188Y-98910376D01*
X180040216Y-98842456D01*
X179892646Y-98743853D01*
X179767147Y-98618354D01*
X179668544Y-98470784D01*
X179600624Y-98306812D01*
X179566000Y-98132741D01*
X179566000Y-97955259D01*
X179600624Y-97781188D01*
X179668544Y-97617216D01*
X179767147Y-97469646D01*
X179892646Y-97344147D01*
X180040216Y-97245544D01*
X180204188Y-97177624D01*
X180378259Y-97143000D01*
X180555741Y-97143000D01*
X180729812Y-97177624D01*
X180729812Y-97177624D01*
G37*
G36*
X178189812Y-97177624D02*
X178353784Y-97245544D01*
X178501354Y-97344147D01*
X178626853Y-97469646D01*
X178725456Y-97617216D01*
X178793376Y-97781188D01*
X178828000Y-97955259D01*
X178828000Y-98132741D01*
X178793376Y-98306812D01*
X178725456Y-98470784D01*
X178626853Y-98618354D01*
X178501354Y-98743853D01*
X178353784Y-98842456D01*
X178189812Y-98910376D01*
X178015741Y-98945000D01*
X177838259Y-98945000D01*
X177664188Y-98910376D01*
X177500216Y-98842456D01*
X177352646Y-98743853D01*
X177227147Y-98618354D01*
X177128544Y-98470784D01*
X177060624Y-98306812D01*
X177026000Y-98132741D01*
X177026000Y-97955259D01*
X177060624Y-97781188D01*
X177128544Y-97617216D01*
X177227147Y-97469646D01*
X177352646Y-97344147D01*
X177500216Y-97245544D01*
X177664188Y-97177624D01*
X177838259Y-97143000D01*
X178015741Y-97143000D01*
X178189812Y-97177624D01*
X178189812Y-97177624D01*
G37*
G36*
X175649812Y-97177624D02*
X175813784Y-97245544D01*
X175961354Y-97344147D01*
X176086853Y-97469646D01*
X176185456Y-97617216D01*
X176253376Y-97781188D01*
X176288000Y-97955259D01*
X176288000Y-98132741D01*
X176253376Y-98306812D01*
X176185456Y-98470784D01*
X176086853Y-98618354D01*
X175961354Y-98743853D01*
X175813784Y-98842456D01*
X175649812Y-98910376D01*
X175475741Y-98945000D01*
X175298259Y-98945000D01*
X175124188Y-98910376D01*
X174960216Y-98842456D01*
X174812646Y-98743853D01*
X174687147Y-98618354D01*
X174588544Y-98470784D01*
X174520624Y-98306812D01*
X174486000Y-98132741D01*
X174486000Y-97955259D01*
X174520624Y-97781188D01*
X174588544Y-97617216D01*
X174687147Y-97469646D01*
X174812646Y-97344147D01*
X174960216Y-97245544D01*
X175124188Y-97177624D01*
X175298259Y-97143000D01*
X175475741Y-97143000D01*
X175649812Y-97177624D01*
X175649812Y-97177624D01*
G37*
G36*
X173109812Y-97177624D02*
X173273784Y-97245544D01*
X173421354Y-97344147D01*
X173546853Y-97469646D01*
X173645456Y-97617216D01*
X173713376Y-97781188D01*
X173748000Y-97955259D01*
X173748000Y-98132741D01*
X173713376Y-98306812D01*
X173645456Y-98470784D01*
X173546853Y-98618354D01*
X173421354Y-98743853D01*
X173273784Y-98842456D01*
X173109812Y-98910376D01*
X172935741Y-98945000D01*
X172758259Y-98945000D01*
X172584188Y-98910376D01*
X172420216Y-98842456D01*
X172272646Y-98743853D01*
X172147147Y-98618354D01*
X172048544Y-98470784D01*
X171980624Y-98306812D01*
X171946000Y-98132741D01*
X171946000Y-97955259D01*
X171980624Y-97781188D01*
X172048544Y-97617216D01*
X172147147Y-97469646D01*
X172272646Y-97344147D01*
X172420216Y-97245544D01*
X172584188Y-97177624D01*
X172758259Y-97143000D01*
X172935741Y-97143000D01*
X173109812Y-97177624D01*
X173109812Y-97177624D01*
G37*
G36*
X170569812Y-97177624D02*
X170733784Y-97245544D01*
X170881354Y-97344147D01*
X171006853Y-97469646D01*
X171105456Y-97617216D01*
X171173376Y-97781188D01*
X171208000Y-97955259D01*
X171208000Y-98132741D01*
X171173376Y-98306812D01*
X171105456Y-98470784D01*
X171006853Y-98618354D01*
X170881354Y-98743853D01*
X170733784Y-98842456D01*
X170569812Y-98910376D01*
X170395741Y-98945000D01*
X170218259Y-98945000D01*
X170044188Y-98910376D01*
X169880216Y-98842456D01*
X169732646Y-98743853D01*
X169607147Y-98618354D01*
X169508544Y-98470784D01*
X169440624Y-98306812D01*
X169406000Y-98132741D01*
X169406000Y-97955259D01*
X169440624Y-97781188D01*
X169508544Y-97617216D01*
X169607147Y-97469646D01*
X169732646Y-97344147D01*
X169880216Y-97245544D01*
X170044188Y-97177624D01*
X170218259Y-97143000D01*
X170395741Y-97143000D01*
X170569812Y-97177624D01*
X170569812Y-97177624D01*
G37*
G36*
X168029812Y-97177624D02*
X168193784Y-97245544D01*
X168341354Y-97344147D01*
X168466853Y-97469646D01*
X168565456Y-97617216D01*
X168633376Y-97781188D01*
X168668000Y-97955259D01*
X168668000Y-98132741D01*
X168633376Y-98306812D01*
X168565456Y-98470784D01*
X168466853Y-98618354D01*
X168341354Y-98743853D01*
X168193784Y-98842456D01*
X168029812Y-98910376D01*
X167855741Y-98945000D01*
X167678259Y-98945000D01*
X167504188Y-98910376D01*
X167340216Y-98842456D01*
X167192646Y-98743853D01*
X167067147Y-98618354D01*
X166968544Y-98470784D01*
X166900624Y-98306812D01*
X166866000Y-98132741D01*
X166866000Y-97955259D01*
X166900624Y-97781188D01*
X166968544Y-97617216D01*
X167067147Y-97469646D01*
X167192646Y-97344147D01*
X167340216Y-97245544D01*
X167504188Y-97177624D01*
X167678259Y-97143000D01*
X167855741Y-97143000D01*
X168029812Y-97177624D01*
X168029812Y-97177624D01*
G37*
G36*
X165489812Y-97177624D02*
X165653784Y-97245544D01*
X165801354Y-97344147D01*
X165926853Y-97469646D01*
X166025456Y-97617216D01*
X166093376Y-97781188D01*
X166128000Y-97955259D01*
X166128000Y-98132741D01*
X166093376Y-98306812D01*
X166025456Y-98470784D01*
X165926853Y-98618354D01*
X165801354Y-98743853D01*
X165653784Y-98842456D01*
X165489812Y-98910376D01*
X165315741Y-98945000D01*
X165138259Y-98945000D01*
X164964188Y-98910376D01*
X164800216Y-98842456D01*
X164652646Y-98743853D01*
X164527147Y-98618354D01*
X164428544Y-98470784D01*
X164360624Y-98306812D01*
X164326000Y-98132741D01*
X164326000Y-97955259D01*
X164360624Y-97781188D01*
X164428544Y-97617216D01*
X164527147Y-97469646D01*
X164652646Y-97344147D01*
X164800216Y-97245544D01*
X164964188Y-97177624D01*
X165138259Y-97143000D01*
X165315741Y-97143000D01*
X165489812Y-97177624D01*
X165489812Y-97177624D01*
G37*
G36*
X162949812Y-97177624D02*
X163113784Y-97245544D01*
X163261354Y-97344147D01*
X163386853Y-97469646D01*
X163485456Y-97617216D01*
X163553376Y-97781188D01*
X163588000Y-97955259D01*
X163588000Y-98132741D01*
X163553376Y-98306812D01*
X163485456Y-98470784D01*
X163386853Y-98618354D01*
X163261354Y-98743853D01*
X163113784Y-98842456D01*
X162949812Y-98910376D01*
X162775741Y-98945000D01*
X162598259Y-98945000D01*
X162424188Y-98910376D01*
X162260216Y-98842456D01*
X162112646Y-98743853D01*
X161987147Y-98618354D01*
X161888544Y-98470784D01*
X161820624Y-98306812D01*
X161786000Y-98132741D01*
X161786000Y-97955259D01*
X161820624Y-97781188D01*
X161888544Y-97617216D01*
X161987147Y-97469646D01*
X162112646Y-97344147D01*
X162260216Y-97245544D01*
X162424188Y-97177624D01*
X162598259Y-97143000D01*
X162775741Y-97143000D01*
X162949812Y-97177624D01*
X162949812Y-97177624D01*
G37*
G36*
X160409812Y-97177624D02*
X160573784Y-97245544D01*
X160721354Y-97344147D01*
X160846853Y-97469646D01*
X160945456Y-97617216D01*
X161013376Y-97781188D01*
X161048000Y-97955259D01*
X161048000Y-98132741D01*
X161013376Y-98306812D01*
X160945456Y-98470784D01*
X160846853Y-98618354D01*
X160721354Y-98743853D01*
X160573784Y-98842456D01*
X160409812Y-98910376D01*
X160235741Y-98945000D01*
X160058259Y-98945000D01*
X159884188Y-98910376D01*
X159720216Y-98842456D01*
X159572646Y-98743853D01*
X159447147Y-98618354D01*
X159348544Y-98470784D01*
X159280624Y-98306812D01*
X159246000Y-98132741D01*
X159246000Y-97955259D01*
X159280624Y-97781188D01*
X159348544Y-97617216D01*
X159447147Y-97469646D01*
X159572646Y-97344147D01*
X159720216Y-97245544D01*
X159884188Y-97177624D01*
X160058259Y-97143000D01*
X160235741Y-97143000D01*
X160409812Y-97177624D01*
X160409812Y-97177624D01*
G37*
G36*
X157869812Y-97177624D02*
X158033784Y-97245544D01*
X158181354Y-97344147D01*
X158306853Y-97469646D01*
X158405456Y-97617216D01*
X158473376Y-97781188D01*
X158508000Y-97955259D01*
X158508000Y-98132741D01*
X158473376Y-98306812D01*
X158405456Y-98470784D01*
X158306853Y-98618354D01*
X158181354Y-98743853D01*
X158033784Y-98842456D01*
X157869812Y-98910376D01*
X157695741Y-98945000D01*
X157518259Y-98945000D01*
X157344188Y-98910376D01*
X157180216Y-98842456D01*
X157032646Y-98743853D01*
X156907147Y-98618354D01*
X156808544Y-98470784D01*
X156740624Y-98306812D01*
X156706000Y-98132741D01*
X156706000Y-97955259D01*
X156740624Y-97781188D01*
X156808544Y-97617216D01*
X156907147Y-97469646D01*
X157032646Y-97344147D01*
X157180216Y-97245544D01*
X157344188Y-97177624D01*
X157518259Y-97143000D01*
X157695741Y-97143000D01*
X157869812Y-97177624D01*
X157869812Y-97177624D01*
G37*
G36*
X155329812Y-97177624D02*
X155493784Y-97245544D01*
X155641354Y-97344147D01*
X155766853Y-97469646D01*
X155865456Y-97617216D01*
X155933376Y-97781188D01*
X155968000Y-97955259D01*
X155968000Y-98132741D01*
X155933376Y-98306812D01*
X155865456Y-98470784D01*
X155766853Y-98618354D01*
X155641354Y-98743853D01*
X155493784Y-98842456D01*
X155329812Y-98910376D01*
X155155741Y-98945000D01*
X154978259Y-98945000D01*
X154804188Y-98910376D01*
X154640216Y-98842456D01*
X154492646Y-98743853D01*
X154367147Y-98618354D01*
X154268544Y-98470784D01*
X154200624Y-98306812D01*
X154166000Y-98132741D01*
X154166000Y-97955259D01*
X154200624Y-97781188D01*
X154268544Y-97617216D01*
X154367147Y-97469646D01*
X154492646Y-97344147D01*
X154640216Y-97245544D01*
X154804188Y-97177624D01*
X154978259Y-97143000D01*
X155155741Y-97143000D01*
X155329812Y-97177624D01*
X155329812Y-97177624D01*
G37*
G36*
X152789812Y-97177624D02*
X152953784Y-97245544D01*
X153101354Y-97344147D01*
X153226853Y-97469646D01*
X153325456Y-97617216D01*
X153393376Y-97781188D01*
X153428000Y-97955259D01*
X153428000Y-98132741D01*
X153393376Y-98306812D01*
X153325456Y-98470784D01*
X153226853Y-98618354D01*
X153101354Y-98743853D01*
X152953784Y-98842456D01*
X152789812Y-98910376D01*
X152615741Y-98945000D01*
X152438259Y-98945000D01*
X152264188Y-98910376D01*
X152100216Y-98842456D01*
X151952646Y-98743853D01*
X151827147Y-98618354D01*
X151728544Y-98470784D01*
X151660624Y-98306812D01*
X151626000Y-98132741D01*
X151626000Y-97955259D01*
X151660624Y-97781188D01*
X151728544Y-97617216D01*
X151827147Y-97469646D01*
X151952646Y-97344147D01*
X152100216Y-97245544D01*
X152264188Y-97177624D01*
X152438259Y-97143000D01*
X152615741Y-97143000D01*
X152789812Y-97177624D01*
X152789812Y-97177624D01*
G37*
G36*
X150249812Y-97177624D02*
X150413784Y-97245544D01*
X150561354Y-97344147D01*
X150686853Y-97469646D01*
X150785456Y-97617216D01*
X150853376Y-97781188D01*
X150888000Y-97955259D01*
X150888000Y-98132741D01*
X150853376Y-98306812D01*
X150785456Y-98470784D01*
X150686853Y-98618354D01*
X150561354Y-98743853D01*
X150413784Y-98842456D01*
X150249812Y-98910376D01*
X150075741Y-98945000D01*
X149898259Y-98945000D01*
X149724188Y-98910376D01*
X149560216Y-98842456D01*
X149412646Y-98743853D01*
X149287147Y-98618354D01*
X149188544Y-98470784D01*
X149120624Y-98306812D01*
X149086000Y-98132741D01*
X149086000Y-97955259D01*
X149120624Y-97781188D01*
X149188544Y-97617216D01*
X149287147Y-97469646D01*
X149412646Y-97344147D01*
X149560216Y-97245544D01*
X149724188Y-97177624D01*
X149898259Y-97143000D01*
X150075741Y-97143000D01*
X150249812Y-97177624D01*
X150249812Y-97177624D01*
G37*
G36*
X147709812Y-97177624D02*
X147873784Y-97245544D01*
X148021354Y-97344147D01*
X148146853Y-97469646D01*
X148245456Y-97617216D01*
X148313376Y-97781188D01*
X148348000Y-97955259D01*
X148348000Y-98132741D01*
X148313376Y-98306812D01*
X148245456Y-98470784D01*
X148146853Y-98618354D01*
X148021354Y-98743853D01*
X147873784Y-98842456D01*
X147709812Y-98910376D01*
X147535741Y-98945000D01*
X147358259Y-98945000D01*
X147184188Y-98910376D01*
X147020216Y-98842456D01*
X146872646Y-98743853D01*
X146747147Y-98618354D01*
X146648544Y-98470784D01*
X146580624Y-98306812D01*
X146546000Y-98132741D01*
X146546000Y-97955259D01*
X146580624Y-97781188D01*
X146648544Y-97617216D01*
X146747147Y-97469646D01*
X146872646Y-97344147D01*
X147020216Y-97245544D01*
X147184188Y-97177624D01*
X147358259Y-97143000D01*
X147535741Y-97143000D01*
X147709812Y-97177624D01*
X147709812Y-97177624D01*
G37*
G36*
X145169812Y-97177624D02*
X145333784Y-97245544D01*
X145481354Y-97344147D01*
X145606853Y-97469646D01*
X145705456Y-97617216D01*
X145773376Y-97781188D01*
X145808000Y-97955259D01*
X145808000Y-98132741D01*
X145773376Y-98306812D01*
X145705456Y-98470784D01*
X145606853Y-98618354D01*
X145481354Y-98743853D01*
X145333784Y-98842456D01*
X145169812Y-98910376D01*
X144995741Y-98945000D01*
X144818259Y-98945000D01*
X144644188Y-98910376D01*
X144480216Y-98842456D01*
X144332646Y-98743853D01*
X144207147Y-98618354D01*
X144108544Y-98470784D01*
X144040624Y-98306812D01*
X144006000Y-98132741D01*
X144006000Y-97955259D01*
X144040624Y-97781188D01*
X144108544Y-97617216D01*
X144207147Y-97469646D01*
X144332646Y-97344147D01*
X144480216Y-97245544D01*
X144644188Y-97177624D01*
X144818259Y-97143000D01*
X144995741Y-97143000D01*
X145169812Y-97177624D01*
X145169812Y-97177624D01*
G37*
G36*
X142629812Y-97177624D02*
X142793784Y-97245544D01*
X142941354Y-97344147D01*
X143066853Y-97469646D01*
X143165456Y-97617216D01*
X143233376Y-97781188D01*
X143268000Y-97955259D01*
X143268000Y-98132741D01*
X143233376Y-98306812D01*
X143165456Y-98470784D01*
X143066853Y-98618354D01*
X142941354Y-98743853D01*
X142793784Y-98842456D01*
X142629812Y-98910376D01*
X142455741Y-98945000D01*
X142278259Y-98945000D01*
X142104188Y-98910376D01*
X141940216Y-98842456D01*
X141792646Y-98743853D01*
X141667147Y-98618354D01*
X141568544Y-98470784D01*
X141500624Y-98306812D01*
X141466000Y-98132741D01*
X141466000Y-97955259D01*
X141500624Y-97781188D01*
X141568544Y-97617216D01*
X141667147Y-97469646D01*
X141792646Y-97344147D01*
X141940216Y-97245544D01*
X142104188Y-97177624D01*
X142278259Y-97143000D01*
X142455741Y-97143000D01*
X142629812Y-97177624D01*
X142629812Y-97177624D01*
G37*
G36*
X140089812Y-97177624D02*
X140253784Y-97245544D01*
X140401354Y-97344147D01*
X140526853Y-97469646D01*
X140625456Y-97617216D01*
X140693376Y-97781188D01*
X140728000Y-97955259D01*
X140728000Y-98132741D01*
X140693376Y-98306812D01*
X140625456Y-98470784D01*
X140526853Y-98618354D01*
X140401354Y-98743853D01*
X140253784Y-98842456D01*
X140089812Y-98910376D01*
X139915741Y-98945000D01*
X139738259Y-98945000D01*
X139564188Y-98910376D01*
X139400216Y-98842456D01*
X139252646Y-98743853D01*
X139127147Y-98618354D01*
X139028544Y-98470784D01*
X138960624Y-98306812D01*
X138926000Y-98132741D01*
X138926000Y-97955259D01*
X138960624Y-97781188D01*
X139028544Y-97617216D01*
X139127147Y-97469646D01*
X139252646Y-97344147D01*
X139400216Y-97245544D01*
X139564188Y-97177624D01*
X139738259Y-97143000D01*
X139915741Y-97143000D01*
X140089812Y-97177624D01*
X140089812Y-97177624D01*
G37*
G36*
X137549812Y-97177624D02*
X137713784Y-97245544D01*
X137861354Y-97344147D01*
X137986853Y-97469646D01*
X138085456Y-97617216D01*
X138153376Y-97781188D01*
X138188000Y-97955259D01*
X138188000Y-98132741D01*
X138153376Y-98306812D01*
X138085456Y-98470784D01*
X137986853Y-98618354D01*
X137861354Y-98743853D01*
X137713784Y-98842456D01*
X137549812Y-98910376D01*
X137375741Y-98945000D01*
X137198259Y-98945000D01*
X137024188Y-98910376D01*
X136860216Y-98842456D01*
X136712646Y-98743853D01*
X136587147Y-98618354D01*
X136488544Y-98470784D01*
X136420624Y-98306812D01*
X136386000Y-98132741D01*
X136386000Y-97955259D01*
X136420624Y-97781188D01*
X136488544Y-97617216D01*
X136587147Y-97469646D01*
X136712646Y-97344147D01*
X136860216Y-97245544D01*
X137024188Y-97177624D01*
X137198259Y-97143000D01*
X137375741Y-97143000D01*
X137549812Y-97177624D01*
X137549812Y-97177624D01*
G37*
G36*
X135009812Y-97177624D02*
X135173784Y-97245544D01*
X135321354Y-97344147D01*
X135446853Y-97469646D01*
X135545456Y-97617216D01*
X135613376Y-97781188D01*
X135648000Y-97955259D01*
X135648000Y-98132741D01*
X135613376Y-98306812D01*
X135545456Y-98470784D01*
X135446853Y-98618354D01*
X135321354Y-98743853D01*
X135173784Y-98842456D01*
X135009812Y-98910376D01*
X134835741Y-98945000D01*
X134658259Y-98945000D01*
X134484188Y-98910376D01*
X134320216Y-98842456D01*
X134172646Y-98743853D01*
X134047147Y-98618354D01*
X133948544Y-98470784D01*
X133880624Y-98306812D01*
X133846000Y-98132741D01*
X133846000Y-97955259D01*
X133880624Y-97781188D01*
X133948544Y-97617216D01*
X134047147Y-97469646D01*
X134172646Y-97344147D01*
X134320216Y-97245544D01*
X134484188Y-97177624D01*
X134658259Y-97143000D01*
X134835741Y-97143000D01*
X135009812Y-97177624D01*
X135009812Y-97177624D01*
G37*
G36*
X132469812Y-97177624D02*
X132633784Y-97245544D01*
X132781354Y-97344147D01*
X132906853Y-97469646D01*
X133005456Y-97617216D01*
X133073376Y-97781188D01*
X133108000Y-97955259D01*
X133108000Y-98132741D01*
X133073376Y-98306812D01*
X133005456Y-98470784D01*
X132906853Y-98618354D01*
X132781354Y-98743853D01*
X132633784Y-98842456D01*
X132469812Y-98910376D01*
X132295741Y-98945000D01*
X132118259Y-98945000D01*
X131944188Y-98910376D01*
X131780216Y-98842456D01*
X131632646Y-98743853D01*
X131507147Y-98618354D01*
X131408544Y-98470784D01*
X131340624Y-98306812D01*
X131306000Y-98132741D01*
X131306000Y-97955259D01*
X131340624Y-97781188D01*
X131408544Y-97617216D01*
X131507147Y-97469646D01*
X131632646Y-97344147D01*
X131780216Y-97245544D01*
X131944188Y-97177624D01*
X132118259Y-97143000D01*
X132295741Y-97143000D01*
X132469812Y-97177624D01*
X132469812Y-97177624D01*
G37*
G36*
X129929812Y-97177624D02*
X130093784Y-97245544D01*
X130241354Y-97344147D01*
X130366853Y-97469646D01*
X130465456Y-97617216D01*
X130533376Y-97781188D01*
X130568000Y-97955259D01*
X130568000Y-98132741D01*
X130533376Y-98306812D01*
X130465456Y-98470784D01*
X130366853Y-98618354D01*
X130241354Y-98743853D01*
X130093784Y-98842456D01*
X129929812Y-98910376D01*
X129755741Y-98945000D01*
X129578259Y-98945000D01*
X129404188Y-98910376D01*
X129240216Y-98842456D01*
X129092646Y-98743853D01*
X128967147Y-98618354D01*
X128868544Y-98470784D01*
X128800624Y-98306812D01*
X128766000Y-98132741D01*
X128766000Y-97955259D01*
X128800624Y-97781188D01*
X128868544Y-97617216D01*
X128967147Y-97469646D01*
X129092646Y-97344147D01*
X129240216Y-97245544D01*
X129404188Y-97177624D01*
X129578259Y-97143000D01*
X129755741Y-97143000D01*
X129929812Y-97177624D01*
X129929812Y-97177624D01*
G37*
G36*
X127389812Y-97177624D02*
X127553784Y-97245544D01*
X127701354Y-97344147D01*
X127826853Y-97469646D01*
X127925456Y-97617216D01*
X127993376Y-97781188D01*
X128028000Y-97955259D01*
X128028000Y-98132741D01*
X127993376Y-98306812D01*
X127925456Y-98470784D01*
X127826853Y-98618354D01*
X127701354Y-98743853D01*
X127553784Y-98842456D01*
X127389812Y-98910376D01*
X127215741Y-98945000D01*
X127038259Y-98945000D01*
X126864188Y-98910376D01*
X126700216Y-98842456D01*
X126552646Y-98743853D01*
X126427147Y-98618354D01*
X126328544Y-98470784D01*
X126260624Y-98306812D01*
X126226000Y-98132741D01*
X126226000Y-97955259D01*
X126260624Y-97781188D01*
X126328544Y-97617216D01*
X126427147Y-97469646D01*
X126552646Y-97344147D01*
X126700216Y-97245544D01*
X126864188Y-97177624D01*
X127038259Y-97143000D01*
X127215741Y-97143000D01*
X127389812Y-97177624D01*
X127389812Y-97177624D01*
G37*
G36*
X124849812Y-97177624D02*
X125013784Y-97245544D01*
X125161354Y-97344147D01*
X125286853Y-97469646D01*
X125385456Y-97617216D01*
X125453376Y-97781188D01*
X125488000Y-97955259D01*
X125488000Y-98132741D01*
X125453376Y-98306812D01*
X125385456Y-98470784D01*
X125286853Y-98618354D01*
X125161354Y-98743853D01*
X125013784Y-98842456D01*
X124849812Y-98910376D01*
X124675741Y-98945000D01*
X124498259Y-98945000D01*
X124324188Y-98910376D01*
X124160216Y-98842456D01*
X124012646Y-98743853D01*
X123887147Y-98618354D01*
X123788544Y-98470784D01*
X123720624Y-98306812D01*
X123686000Y-98132741D01*
X123686000Y-97955259D01*
X123720624Y-97781188D01*
X123788544Y-97617216D01*
X123887147Y-97469646D01*
X124012646Y-97344147D01*
X124160216Y-97245544D01*
X124324188Y-97177624D01*
X124498259Y-97143000D01*
X124675741Y-97143000D01*
X124849812Y-97177624D01*
X124849812Y-97177624D01*
G37*
G36*
X122309812Y-97177624D02*
X122473784Y-97245544D01*
X122621354Y-97344147D01*
X122746853Y-97469646D01*
X122845456Y-97617216D01*
X122913376Y-97781188D01*
X122948000Y-97955259D01*
X122948000Y-98132741D01*
X122913376Y-98306812D01*
X122845456Y-98470784D01*
X122746853Y-98618354D01*
X122621354Y-98743853D01*
X122473784Y-98842456D01*
X122309812Y-98910376D01*
X122135741Y-98945000D01*
X121958259Y-98945000D01*
X121784188Y-98910376D01*
X121620216Y-98842456D01*
X121472646Y-98743853D01*
X121347147Y-98618354D01*
X121248544Y-98470784D01*
X121180624Y-98306812D01*
X121146000Y-98132741D01*
X121146000Y-97955259D01*
X121180624Y-97781188D01*
X121248544Y-97617216D01*
X121347147Y-97469646D01*
X121472646Y-97344147D01*
X121620216Y-97245544D01*
X121784188Y-97177624D01*
X121958259Y-97143000D01*
X122135741Y-97143000D01*
X122309812Y-97177624D01*
X122309812Y-97177624D01*
G37*
G36*
X119769812Y-97177624D02*
X119933784Y-97245544D01*
X120081354Y-97344147D01*
X120206853Y-97469646D01*
X120305456Y-97617216D01*
X120373376Y-97781188D01*
X120408000Y-97955259D01*
X120408000Y-98132741D01*
X120373376Y-98306812D01*
X120305456Y-98470784D01*
X120206853Y-98618354D01*
X120081354Y-98743853D01*
X119933784Y-98842456D01*
X119769812Y-98910376D01*
X119595741Y-98945000D01*
X119418259Y-98945000D01*
X119244188Y-98910376D01*
X119080216Y-98842456D01*
X118932646Y-98743853D01*
X118807147Y-98618354D01*
X118708544Y-98470784D01*
X118640624Y-98306812D01*
X118606000Y-98132741D01*
X118606000Y-97955259D01*
X118640624Y-97781188D01*
X118708544Y-97617216D01*
X118807147Y-97469646D01*
X118932646Y-97344147D01*
X119080216Y-97245544D01*
X119244188Y-97177624D01*
X119418259Y-97143000D01*
X119595741Y-97143000D01*
X119769812Y-97177624D01*
X119769812Y-97177624D01*
G37*
G36*
X180729812Y-94637624D02*
X180893784Y-94705544D01*
X181041354Y-94804147D01*
X181166853Y-94929646D01*
X181265456Y-95077216D01*
X181333376Y-95241188D01*
X181368000Y-95415259D01*
X181368000Y-95592741D01*
X181333376Y-95766812D01*
X181265456Y-95930784D01*
X181166853Y-96078354D01*
X181041354Y-96203853D01*
X180893784Y-96302456D01*
X180729812Y-96370376D01*
X180555741Y-96405000D01*
X180378259Y-96405000D01*
X180204188Y-96370376D01*
X180040216Y-96302456D01*
X179892646Y-96203853D01*
X179767147Y-96078354D01*
X179668544Y-95930784D01*
X179600624Y-95766812D01*
X179566000Y-95592741D01*
X179566000Y-95415259D01*
X179600624Y-95241188D01*
X179668544Y-95077216D01*
X179767147Y-94929646D01*
X179892646Y-94804147D01*
X180040216Y-94705544D01*
X180204188Y-94637624D01*
X180378259Y-94603000D01*
X180555741Y-94603000D01*
X180729812Y-94637624D01*
X180729812Y-94637624D01*
G37*
G36*
X178189812Y-94637624D02*
X178353784Y-94705544D01*
X178501354Y-94804147D01*
X178626853Y-94929646D01*
X178725456Y-95077216D01*
X178793376Y-95241188D01*
X178828000Y-95415259D01*
X178828000Y-95592741D01*
X178793376Y-95766812D01*
X178725456Y-95930784D01*
X178626853Y-96078354D01*
X178501354Y-96203853D01*
X178353784Y-96302456D01*
X178189812Y-96370376D01*
X178015741Y-96405000D01*
X177838259Y-96405000D01*
X177664188Y-96370376D01*
X177500216Y-96302456D01*
X177352646Y-96203853D01*
X177227147Y-96078354D01*
X177128544Y-95930784D01*
X177060624Y-95766812D01*
X177026000Y-95592741D01*
X177026000Y-95415259D01*
X177060624Y-95241188D01*
X177128544Y-95077216D01*
X177227147Y-94929646D01*
X177352646Y-94804147D01*
X177500216Y-94705544D01*
X177664188Y-94637624D01*
X177838259Y-94603000D01*
X178015741Y-94603000D01*
X178189812Y-94637624D01*
X178189812Y-94637624D01*
G37*
G36*
X175649812Y-94637624D02*
X175813784Y-94705544D01*
X175961354Y-94804147D01*
X176086853Y-94929646D01*
X176185456Y-95077216D01*
X176253376Y-95241188D01*
X176288000Y-95415259D01*
X176288000Y-95592741D01*
X176253376Y-95766812D01*
X176185456Y-95930784D01*
X176086853Y-96078354D01*
X175961354Y-96203853D01*
X175813784Y-96302456D01*
X175649812Y-96370376D01*
X175475741Y-96405000D01*
X175298259Y-96405000D01*
X175124188Y-96370376D01*
X174960216Y-96302456D01*
X174812646Y-96203853D01*
X174687147Y-96078354D01*
X174588544Y-95930784D01*
X174520624Y-95766812D01*
X174486000Y-95592741D01*
X174486000Y-95415259D01*
X174520624Y-95241188D01*
X174588544Y-95077216D01*
X174687147Y-94929646D01*
X174812646Y-94804147D01*
X174960216Y-94705544D01*
X175124188Y-94637624D01*
X175298259Y-94603000D01*
X175475741Y-94603000D01*
X175649812Y-94637624D01*
X175649812Y-94637624D01*
G37*
G36*
X173109812Y-94637624D02*
X173273784Y-94705544D01*
X173421354Y-94804147D01*
X173546853Y-94929646D01*
X173645456Y-95077216D01*
X173713376Y-95241188D01*
X173748000Y-95415259D01*
X173748000Y-95592741D01*
X173713376Y-95766812D01*
X173645456Y-95930784D01*
X173546853Y-96078354D01*
X173421354Y-96203853D01*
X173273784Y-96302456D01*
X173109812Y-96370376D01*
X172935741Y-96405000D01*
X172758259Y-96405000D01*
X172584188Y-96370376D01*
X172420216Y-96302456D01*
X172272646Y-96203853D01*
X172147147Y-96078354D01*
X172048544Y-95930784D01*
X171980624Y-95766812D01*
X171946000Y-95592741D01*
X171946000Y-95415259D01*
X171980624Y-95241188D01*
X172048544Y-95077216D01*
X172147147Y-94929646D01*
X172272646Y-94804147D01*
X172420216Y-94705544D01*
X172584188Y-94637624D01*
X172758259Y-94603000D01*
X172935741Y-94603000D01*
X173109812Y-94637624D01*
X173109812Y-94637624D01*
G37*
G36*
X170569812Y-94637624D02*
X170733784Y-94705544D01*
X170881354Y-94804147D01*
X171006853Y-94929646D01*
X171105456Y-95077216D01*
X171173376Y-95241188D01*
X171208000Y-95415259D01*
X171208000Y-95592741D01*
X171173376Y-95766812D01*
X171105456Y-95930784D01*
X171006853Y-96078354D01*
X170881354Y-96203853D01*
X170733784Y-96302456D01*
X170569812Y-96370376D01*
X170395741Y-96405000D01*
X170218259Y-96405000D01*
X170044188Y-96370376D01*
X169880216Y-96302456D01*
X169732646Y-96203853D01*
X169607147Y-96078354D01*
X169508544Y-95930784D01*
X169440624Y-95766812D01*
X169406000Y-95592741D01*
X169406000Y-95415259D01*
X169440624Y-95241188D01*
X169508544Y-95077216D01*
X169607147Y-94929646D01*
X169732646Y-94804147D01*
X169880216Y-94705544D01*
X170044188Y-94637624D01*
X170218259Y-94603000D01*
X170395741Y-94603000D01*
X170569812Y-94637624D01*
X170569812Y-94637624D01*
G37*
G36*
X168029812Y-94637624D02*
X168193784Y-94705544D01*
X168341354Y-94804147D01*
X168466853Y-94929646D01*
X168565456Y-95077216D01*
X168633376Y-95241188D01*
X168668000Y-95415259D01*
X168668000Y-95592741D01*
X168633376Y-95766812D01*
X168565456Y-95930784D01*
X168466853Y-96078354D01*
X168341354Y-96203853D01*
X168193784Y-96302456D01*
X168029812Y-96370376D01*
X167855741Y-96405000D01*
X167678259Y-96405000D01*
X167504188Y-96370376D01*
X167340216Y-96302456D01*
X167192646Y-96203853D01*
X167067147Y-96078354D01*
X166968544Y-95930784D01*
X166900624Y-95766812D01*
X166866000Y-95592741D01*
X166866000Y-95415259D01*
X166900624Y-95241188D01*
X166968544Y-95077216D01*
X167067147Y-94929646D01*
X167192646Y-94804147D01*
X167340216Y-94705544D01*
X167504188Y-94637624D01*
X167678259Y-94603000D01*
X167855741Y-94603000D01*
X168029812Y-94637624D01*
X168029812Y-94637624D01*
G37*
G36*
X165489812Y-94637624D02*
X165653784Y-94705544D01*
X165801354Y-94804147D01*
X165926853Y-94929646D01*
X166025456Y-95077216D01*
X166093376Y-95241188D01*
X166128000Y-95415259D01*
X166128000Y-95592741D01*
X166093376Y-95766812D01*
X166025456Y-95930784D01*
X165926853Y-96078354D01*
X165801354Y-96203853D01*
X165653784Y-96302456D01*
X165489812Y-96370376D01*
X165315741Y-96405000D01*
X165138259Y-96405000D01*
X164964188Y-96370376D01*
X164800216Y-96302456D01*
X164652646Y-96203853D01*
X164527147Y-96078354D01*
X164428544Y-95930784D01*
X164360624Y-95766812D01*
X164326000Y-95592741D01*
X164326000Y-95415259D01*
X164360624Y-95241188D01*
X164428544Y-95077216D01*
X164527147Y-94929646D01*
X164652646Y-94804147D01*
X164800216Y-94705544D01*
X164964188Y-94637624D01*
X165138259Y-94603000D01*
X165315741Y-94603000D01*
X165489812Y-94637624D01*
X165489812Y-94637624D01*
G37*
G36*
X162949812Y-94637624D02*
X163113784Y-94705544D01*
X163261354Y-94804147D01*
X163386853Y-94929646D01*
X163485456Y-95077216D01*
X163553376Y-95241188D01*
X163588000Y-95415259D01*
X163588000Y-95592741D01*
X163553376Y-95766812D01*
X163485456Y-95930784D01*
X163386853Y-96078354D01*
X163261354Y-96203853D01*
X163113784Y-96302456D01*
X162949812Y-96370376D01*
X162775741Y-96405000D01*
X162598259Y-96405000D01*
X162424188Y-96370376D01*
X162260216Y-96302456D01*
X162112646Y-96203853D01*
X161987147Y-96078354D01*
X161888544Y-95930784D01*
X161820624Y-95766812D01*
X161786000Y-95592741D01*
X161786000Y-95415259D01*
X161820624Y-95241188D01*
X161888544Y-95077216D01*
X161987147Y-94929646D01*
X162112646Y-94804147D01*
X162260216Y-94705544D01*
X162424188Y-94637624D01*
X162598259Y-94603000D01*
X162775741Y-94603000D01*
X162949812Y-94637624D01*
X162949812Y-94637624D01*
G37*
G36*
X160409812Y-94637624D02*
X160573784Y-94705544D01*
X160721354Y-94804147D01*
X160846853Y-94929646D01*
X160945456Y-95077216D01*
X161013376Y-95241188D01*
X161048000Y-95415259D01*
X161048000Y-95592741D01*
X161013376Y-95766812D01*
X160945456Y-95930784D01*
X160846853Y-96078354D01*
X160721354Y-96203853D01*
X160573784Y-96302456D01*
X160409812Y-96370376D01*
X160235741Y-96405000D01*
X160058259Y-96405000D01*
X159884188Y-96370376D01*
X159720216Y-96302456D01*
X159572646Y-96203853D01*
X159447147Y-96078354D01*
X159348544Y-95930784D01*
X159280624Y-95766812D01*
X159246000Y-95592741D01*
X159246000Y-95415259D01*
X159280624Y-95241188D01*
X159348544Y-95077216D01*
X159447147Y-94929646D01*
X159572646Y-94804147D01*
X159720216Y-94705544D01*
X159884188Y-94637624D01*
X160058259Y-94603000D01*
X160235741Y-94603000D01*
X160409812Y-94637624D01*
X160409812Y-94637624D01*
G37*
G36*
X157869812Y-94637624D02*
X158033784Y-94705544D01*
X158181354Y-94804147D01*
X158306853Y-94929646D01*
X158405456Y-95077216D01*
X158473376Y-95241188D01*
X158508000Y-95415259D01*
X158508000Y-95592741D01*
X158473376Y-95766812D01*
X158405456Y-95930784D01*
X158306853Y-96078354D01*
X158181354Y-96203853D01*
X158033784Y-96302456D01*
X157869812Y-96370376D01*
X157695741Y-96405000D01*
X157518259Y-96405000D01*
X157344188Y-96370376D01*
X157180216Y-96302456D01*
X157032646Y-96203853D01*
X156907147Y-96078354D01*
X156808544Y-95930784D01*
X156740624Y-95766812D01*
X156706000Y-95592741D01*
X156706000Y-95415259D01*
X156740624Y-95241188D01*
X156808544Y-95077216D01*
X156907147Y-94929646D01*
X157032646Y-94804147D01*
X157180216Y-94705544D01*
X157344188Y-94637624D01*
X157518259Y-94603000D01*
X157695741Y-94603000D01*
X157869812Y-94637624D01*
X157869812Y-94637624D01*
G37*
G36*
X155329812Y-94637624D02*
X155493784Y-94705544D01*
X155641354Y-94804147D01*
X155766853Y-94929646D01*
X155865456Y-95077216D01*
X155933376Y-95241188D01*
X155968000Y-95415259D01*
X155968000Y-95592741D01*
X155933376Y-95766812D01*
X155865456Y-95930784D01*
X155766853Y-96078354D01*
X155641354Y-96203853D01*
X155493784Y-96302456D01*
X155329812Y-96370376D01*
X155155741Y-96405000D01*
X154978259Y-96405000D01*
X154804188Y-96370376D01*
X154640216Y-96302456D01*
X154492646Y-96203853D01*
X154367147Y-96078354D01*
X154268544Y-95930784D01*
X154200624Y-95766812D01*
X154166000Y-95592741D01*
X154166000Y-95415259D01*
X154200624Y-95241188D01*
X154268544Y-95077216D01*
X154367147Y-94929646D01*
X154492646Y-94804147D01*
X154640216Y-94705544D01*
X154804188Y-94637624D01*
X154978259Y-94603000D01*
X155155741Y-94603000D01*
X155329812Y-94637624D01*
X155329812Y-94637624D01*
G37*
G36*
X152789812Y-94637624D02*
X152953784Y-94705544D01*
X153101354Y-94804147D01*
X153226853Y-94929646D01*
X153325456Y-95077216D01*
X153393376Y-95241188D01*
X153428000Y-95415259D01*
X153428000Y-95592741D01*
X153393376Y-95766812D01*
X153325456Y-95930784D01*
X153226853Y-96078354D01*
X153101354Y-96203853D01*
X152953784Y-96302456D01*
X152789812Y-96370376D01*
X152615741Y-96405000D01*
X152438259Y-96405000D01*
X152264188Y-96370376D01*
X152100216Y-96302456D01*
X151952646Y-96203853D01*
X151827147Y-96078354D01*
X151728544Y-95930784D01*
X151660624Y-95766812D01*
X151626000Y-95592741D01*
X151626000Y-95415259D01*
X151660624Y-95241188D01*
X151728544Y-95077216D01*
X151827147Y-94929646D01*
X151952646Y-94804147D01*
X152100216Y-94705544D01*
X152264188Y-94637624D01*
X152438259Y-94603000D01*
X152615741Y-94603000D01*
X152789812Y-94637624D01*
X152789812Y-94637624D01*
G37*
G36*
X150249812Y-94637624D02*
X150413784Y-94705544D01*
X150561354Y-94804147D01*
X150686853Y-94929646D01*
X150785456Y-95077216D01*
X150853376Y-95241188D01*
X150888000Y-95415259D01*
X150888000Y-95592741D01*
X150853376Y-95766812D01*
X150785456Y-95930784D01*
X150686853Y-96078354D01*
X150561354Y-96203853D01*
X150413784Y-96302456D01*
X150249812Y-96370376D01*
X150075741Y-96405000D01*
X149898259Y-96405000D01*
X149724188Y-96370376D01*
X149560216Y-96302456D01*
X149412646Y-96203853D01*
X149287147Y-96078354D01*
X149188544Y-95930784D01*
X149120624Y-95766812D01*
X149086000Y-95592741D01*
X149086000Y-95415259D01*
X149120624Y-95241188D01*
X149188544Y-95077216D01*
X149287147Y-94929646D01*
X149412646Y-94804147D01*
X149560216Y-94705544D01*
X149724188Y-94637624D01*
X149898259Y-94603000D01*
X150075741Y-94603000D01*
X150249812Y-94637624D01*
X150249812Y-94637624D01*
G37*
G36*
X147709812Y-94637624D02*
X147873784Y-94705544D01*
X148021354Y-94804147D01*
X148146853Y-94929646D01*
X148245456Y-95077216D01*
X148313376Y-95241188D01*
X148348000Y-95415259D01*
X148348000Y-95592741D01*
X148313376Y-95766812D01*
X148245456Y-95930784D01*
X148146853Y-96078354D01*
X148021354Y-96203853D01*
X147873784Y-96302456D01*
X147709812Y-96370376D01*
X147535741Y-96405000D01*
X147358259Y-96405000D01*
X147184188Y-96370376D01*
X147020216Y-96302456D01*
X146872646Y-96203853D01*
X146747147Y-96078354D01*
X146648544Y-95930784D01*
X146580624Y-95766812D01*
X146546000Y-95592741D01*
X146546000Y-95415259D01*
X146580624Y-95241188D01*
X146648544Y-95077216D01*
X146747147Y-94929646D01*
X146872646Y-94804147D01*
X147020216Y-94705544D01*
X147184188Y-94637624D01*
X147358259Y-94603000D01*
X147535741Y-94603000D01*
X147709812Y-94637624D01*
X147709812Y-94637624D01*
G37*
G36*
X145169812Y-94637624D02*
X145333784Y-94705544D01*
X145481354Y-94804147D01*
X145606853Y-94929646D01*
X145705456Y-95077216D01*
X145773376Y-95241188D01*
X145808000Y-95415259D01*
X145808000Y-95592741D01*
X145773376Y-95766812D01*
X145705456Y-95930784D01*
X145606853Y-96078354D01*
X145481354Y-96203853D01*
X145333784Y-96302456D01*
X145169812Y-96370376D01*
X144995741Y-96405000D01*
X144818259Y-96405000D01*
X144644188Y-96370376D01*
X144480216Y-96302456D01*
X144332646Y-96203853D01*
X144207147Y-96078354D01*
X144108544Y-95930784D01*
X144040624Y-95766812D01*
X144006000Y-95592741D01*
X144006000Y-95415259D01*
X144040624Y-95241188D01*
X144108544Y-95077216D01*
X144207147Y-94929646D01*
X144332646Y-94804147D01*
X144480216Y-94705544D01*
X144644188Y-94637624D01*
X144818259Y-94603000D01*
X144995741Y-94603000D01*
X145169812Y-94637624D01*
X145169812Y-94637624D01*
G37*
G36*
X142629812Y-94637624D02*
X142793784Y-94705544D01*
X142941354Y-94804147D01*
X143066853Y-94929646D01*
X143165456Y-95077216D01*
X143233376Y-95241188D01*
X143268000Y-95415259D01*
X143268000Y-95592741D01*
X143233376Y-95766812D01*
X143165456Y-95930784D01*
X143066853Y-96078354D01*
X142941354Y-96203853D01*
X142793784Y-96302456D01*
X142629812Y-96370376D01*
X142455741Y-96405000D01*
X142278259Y-96405000D01*
X142104188Y-96370376D01*
X141940216Y-96302456D01*
X141792646Y-96203853D01*
X141667147Y-96078354D01*
X141568544Y-95930784D01*
X141500624Y-95766812D01*
X141466000Y-95592741D01*
X141466000Y-95415259D01*
X141500624Y-95241188D01*
X141568544Y-95077216D01*
X141667147Y-94929646D01*
X141792646Y-94804147D01*
X141940216Y-94705544D01*
X142104188Y-94637624D01*
X142278259Y-94603000D01*
X142455741Y-94603000D01*
X142629812Y-94637624D01*
X142629812Y-94637624D01*
G37*
G36*
X140089812Y-94637624D02*
X140253784Y-94705544D01*
X140401354Y-94804147D01*
X140526853Y-94929646D01*
X140625456Y-95077216D01*
X140693376Y-95241188D01*
X140728000Y-95415259D01*
X140728000Y-95592741D01*
X140693376Y-95766812D01*
X140625456Y-95930784D01*
X140526853Y-96078354D01*
X140401354Y-96203853D01*
X140253784Y-96302456D01*
X140089812Y-96370376D01*
X139915741Y-96405000D01*
X139738259Y-96405000D01*
X139564188Y-96370376D01*
X139400216Y-96302456D01*
X139252646Y-96203853D01*
X139127147Y-96078354D01*
X139028544Y-95930784D01*
X138960624Y-95766812D01*
X138926000Y-95592741D01*
X138926000Y-95415259D01*
X138960624Y-95241188D01*
X139028544Y-95077216D01*
X139127147Y-94929646D01*
X139252646Y-94804147D01*
X139400216Y-94705544D01*
X139564188Y-94637624D01*
X139738259Y-94603000D01*
X139915741Y-94603000D01*
X140089812Y-94637624D01*
X140089812Y-94637624D01*
G37*
G36*
X137549812Y-94637624D02*
X137713784Y-94705544D01*
X137861354Y-94804147D01*
X137986853Y-94929646D01*
X138085456Y-95077216D01*
X138153376Y-95241188D01*
X138188000Y-95415259D01*
X138188000Y-95592741D01*
X138153376Y-95766812D01*
X138085456Y-95930784D01*
X137986853Y-96078354D01*
X137861354Y-96203853D01*
X137713784Y-96302456D01*
X137549812Y-96370376D01*
X137375741Y-96405000D01*
X137198259Y-96405000D01*
X137024188Y-96370376D01*
X136860216Y-96302456D01*
X136712646Y-96203853D01*
X136587147Y-96078354D01*
X136488544Y-95930784D01*
X136420624Y-95766812D01*
X136386000Y-95592741D01*
X136386000Y-95415259D01*
X136420624Y-95241188D01*
X136488544Y-95077216D01*
X136587147Y-94929646D01*
X136712646Y-94804147D01*
X136860216Y-94705544D01*
X137024188Y-94637624D01*
X137198259Y-94603000D01*
X137375741Y-94603000D01*
X137549812Y-94637624D01*
X137549812Y-94637624D01*
G37*
G36*
X135009812Y-94637624D02*
X135173784Y-94705544D01*
X135321354Y-94804147D01*
X135446853Y-94929646D01*
X135545456Y-95077216D01*
X135613376Y-95241188D01*
X135648000Y-95415259D01*
X135648000Y-95592741D01*
X135613376Y-95766812D01*
X135545456Y-95930784D01*
X135446853Y-96078354D01*
X135321354Y-96203853D01*
X135173784Y-96302456D01*
X135009812Y-96370376D01*
X134835741Y-96405000D01*
X134658259Y-96405000D01*
X134484188Y-96370376D01*
X134320216Y-96302456D01*
X134172646Y-96203853D01*
X134047147Y-96078354D01*
X133948544Y-95930784D01*
X133880624Y-95766812D01*
X133846000Y-95592741D01*
X133846000Y-95415259D01*
X133880624Y-95241188D01*
X133948544Y-95077216D01*
X134047147Y-94929646D01*
X134172646Y-94804147D01*
X134320216Y-94705544D01*
X134484188Y-94637624D01*
X134658259Y-94603000D01*
X134835741Y-94603000D01*
X135009812Y-94637624D01*
X135009812Y-94637624D01*
G37*
G36*
X132469812Y-94637624D02*
X132633784Y-94705544D01*
X132781354Y-94804147D01*
X132906853Y-94929646D01*
X133005456Y-95077216D01*
X133073376Y-95241188D01*
X133108000Y-95415259D01*
X133108000Y-95592741D01*
X133073376Y-95766812D01*
X133005456Y-95930784D01*
X132906853Y-96078354D01*
X132781354Y-96203853D01*
X132633784Y-96302456D01*
X132469812Y-96370376D01*
X132295741Y-96405000D01*
X132118259Y-96405000D01*
X131944188Y-96370376D01*
X131780216Y-96302456D01*
X131632646Y-96203853D01*
X131507147Y-96078354D01*
X131408544Y-95930784D01*
X131340624Y-95766812D01*
X131306000Y-95592741D01*
X131306000Y-95415259D01*
X131340624Y-95241188D01*
X131408544Y-95077216D01*
X131507147Y-94929646D01*
X131632646Y-94804147D01*
X131780216Y-94705544D01*
X131944188Y-94637624D01*
X132118259Y-94603000D01*
X132295741Y-94603000D01*
X132469812Y-94637624D01*
X132469812Y-94637624D01*
G37*
G36*
X129929812Y-94637624D02*
X130093784Y-94705544D01*
X130241354Y-94804147D01*
X130366853Y-94929646D01*
X130465456Y-95077216D01*
X130533376Y-95241188D01*
X130568000Y-95415259D01*
X130568000Y-95592741D01*
X130533376Y-95766812D01*
X130465456Y-95930784D01*
X130366853Y-96078354D01*
X130241354Y-96203853D01*
X130093784Y-96302456D01*
X129929812Y-96370376D01*
X129755741Y-96405000D01*
X129578259Y-96405000D01*
X129404188Y-96370376D01*
X129240216Y-96302456D01*
X129092646Y-96203853D01*
X128967147Y-96078354D01*
X128868544Y-95930784D01*
X128800624Y-95766812D01*
X128766000Y-95592741D01*
X128766000Y-95415259D01*
X128800624Y-95241188D01*
X128868544Y-95077216D01*
X128967147Y-94929646D01*
X129092646Y-94804147D01*
X129240216Y-94705544D01*
X129404188Y-94637624D01*
X129578259Y-94603000D01*
X129755741Y-94603000D01*
X129929812Y-94637624D01*
X129929812Y-94637624D01*
G37*
G36*
X127389812Y-94637624D02*
X127553784Y-94705544D01*
X127701354Y-94804147D01*
X127826853Y-94929646D01*
X127925456Y-95077216D01*
X127993376Y-95241188D01*
X128028000Y-95415259D01*
X128028000Y-95592741D01*
X127993376Y-95766812D01*
X127925456Y-95930784D01*
X127826853Y-96078354D01*
X127701354Y-96203853D01*
X127553784Y-96302456D01*
X127389812Y-96370376D01*
X127215741Y-96405000D01*
X127038259Y-96405000D01*
X126864188Y-96370376D01*
X126700216Y-96302456D01*
X126552646Y-96203853D01*
X126427147Y-96078354D01*
X126328544Y-95930784D01*
X126260624Y-95766812D01*
X126226000Y-95592741D01*
X126226000Y-95415259D01*
X126260624Y-95241188D01*
X126328544Y-95077216D01*
X126427147Y-94929646D01*
X126552646Y-94804147D01*
X126700216Y-94705544D01*
X126864188Y-94637624D01*
X127038259Y-94603000D01*
X127215741Y-94603000D01*
X127389812Y-94637624D01*
X127389812Y-94637624D01*
G37*
G36*
X124849812Y-94637624D02*
X125013784Y-94705544D01*
X125161354Y-94804147D01*
X125286853Y-94929646D01*
X125385456Y-95077216D01*
X125453376Y-95241188D01*
X125488000Y-95415259D01*
X125488000Y-95592741D01*
X125453376Y-95766812D01*
X125385456Y-95930784D01*
X125286853Y-96078354D01*
X125161354Y-96203853D01*
X125013784Y-96302456D01*
X124849812Y-96370376D01*
X124675741Y-96405000D01*
X124498259Y-96405000D01*
X124324188Y-96370376D01*
X124160216Y-96302456D01*
X124012646Y-96203853D01*
X123887147Y-96078354D01*
X123788544Y-95930784D01*
X123720624Y-95766812D01*
X123686000Y-95592741D01*
X123686000Y-95415259D01*
X123720624Y-95241188D01*
X123788544Y-95077216D01*
X123887147Y-94929646D01*
X124012646Y-94804147D01*
X124160216Y-94705544D01*
X124324188Y-94637624D01*
X124498259Y-94603000D01*
X124675741Y-94603000D01*
X124849812Y-94637624D01*
X124849812Y-94637624D01*
G37*
G36*
X122309812Y-94637624D02*
X122473784Y-94705544D01*
X122621354Y-94804147D01*
X122746853Y-94929646D01*
X122845456Y-95077216D01*
X122913376Y-95241188D01*
X122948000Y-95415259D01*
X122948000Y-95592741D01*
X122913376Y-95766812D01*
X122845456Y-95930784D01*
X122746853Y-96078354D01*
X122621354Y-96203853D01*
X122473784Y-96302456D01*
X122309812Y-96370376D01*
X122135741Y-96405000D01*
X121958259Y-96405000D01*
X121784188Y-96370376D01*
X121620216Y-96302456D01*
X121472646Y-96203853D01*
X121347147Y-96078354D01*
X121248544Y-95930784D01*
X121180624Y-95766812D01*
X121146000Y-95592741D01*
X121146000Y-95415259D01*
X121180624Y-95241188D01*
X121248544Y-95077216D01*
X121347147Y-94929646D01*
X121472646Y-94804147D01*
X121620216Y-94705544D01*
X121784188Y-94637624D01*
X121958259Y-94603000D01*
X122135741Y-94603000D01*
X122309812Y-94637624D01*
X122309812Y-94637624D01*
G37*
G36*
X119769812Y-94637624D02*
X119933784Y-94705544D01*
X120081354Y-94804147D01*
X120206853Y-94929646D01*
X120305456Y-95077216D01*
X120373376Y-95241188D01*
X120408000Y-95415259D01*
X120408000Y-95592741D01*
X120373376Y-95766812D01*
X120305456Y-95930784D01*
X120206853Y-96078354D01*
X120081354Y-96203853D01*
X119933784Y-96302456D01*
X119769812Y-96370376D01*
X119595741Y-96405000D01*
X119418259Y-96405000D01*
X119244188Y-96370376D01*
X119080216Y-96302456D01*
X118932646Y-96203853D01*
X118807147Y-96078354D01*
X118708544Y-95930784D01*
X118640624Y-95766812D01*
X118606000Y-95592741D01*
X118606000Y-95415259D01*
X118640624Y-95241188D01*
X118708544Y-95077216D01*
X118807147Y-94929646D01*
X118932646Y-94804147D01*
X119080216Y-94705544D01*
X119244188Y-94637624D01*
X119418259Y-94603000D01*
X119595741Y-94603000D01*
X119769812Y-94637624D01*
X119769812Y-94637624D01*
G37*
G36*
X185686000Y-92595000D02*
X183884000Y-92595000D01*
X183884000Y-90793000D01*
X185686000Y-90793000D01*
X185686000Y-92595000D01*
X185686000Y-92595000D01*
G37*
G36*
X187435443Y-90799519D02*
X187501627Y-90806037D01*
X187606738Y-90837922D01*
X187671467Y-90857557D01*
X187769392Y-90909900D01*
X187827991Y-90941222D01*
X187863729Y-90970552D01*
X187965186Y-91053814D01*
X188040987Y-91146179D01*
X188077778Y-91191009D01*
X188077779Y-91191011D01*
X188161443Y-91347533D01*
X188161443Y-91347534D01*
X188212963Y-91517373D01*
X188230359Y-91694000D01*
X188212963Y-91870627D01*
X188198696Y-91917659D01*
X188161443Y-92040467D01*
X188101994Y-92151686D01*
X188077778Y-92196991D01*
X188048448Y-92232729D01*
X187965186Y-92334186D01*
X187863729Y-92417448D01*
X187827991Y-92446778D01*
X187827989Y-92446779D01*
X187671467Y-92530443D01*
X187614853Y-92547616D01*
X187501627Y-92581963D01*
X187435443Y-92588481D01*
X187369260Y-92595000D01*
X187280740Y-92595000D01*
X187214557Y-92588481D01*
X187148373Y-92581963D01*
X187035147Y-92547616D01*
X186978533Y-92530443D01*
X186822011Y-92446779D01*
X186822009Y-92446778D01*
X186786271Y-92417448D01*
X186684814Y-92334186D01*
X186601552Y-92232729D01*
X186572222Y-92196991D01*
X186548006Y-92151686D01*
X186488557Y-92040467D01*
X186451304Y-91917659D01*
X186437037Y-91870627D01*
X186419641Y-91694000D01*
X186437037Y-91517373D01*
X186488557Y-91347534D01*
X186488557Y-91347533D01*
X186572221Y-91191011D01*
X186572222Y-91191009D01*
X186609013Y-91146179D01*
X186684814Y-91053814D01*
X186786271Y-90970552D01*
X186822009Y-90941222D01*
X186880608Y-90909900D01*
X186978533Y-90857557D01*
X187043262Y-90837922D01*
X187148373Y-90806037D01*
X187214557Y-90799519D01*
X187280740Y-90793000D01*
X187369260Y-90793000D01*
X187435443Y-90799519D01*
X187435443Y-90799519D01*
G37*
G36*
X111672821Y-90474313D02*
X111672824Y-90474314D01*
X111672825Y-90474314D01*
X111833239Y-90522975D01*
X111833241Y-90522976D01*
X111833244Y-90522977D01*
X111981078Y-90601995D01*
X112110659Y-90708341D01*
X112217005Y-90837922D01*
X112296023Y-90985756D01*
X112296024Y-90985759D01*
X112296025Y-90985761D01*
X112344686Y-91146175D01*
X112344687Y-91146179D01*
X112361117Y-91313000D01*
X112344687Y-91479821D01*
X112344686Y-91479824D01*
X112344686Y-91479825D01*
X112319993Y-91561228D01*
X112296023Y-91640244D01*
X112217005Y-91788078D01*
X112110659Y-91917659D01*
X111981078Y-92024005D01*
X111833244Y-92103023D01*
X111833241Y-92103024D01*
X111833239Y-92103025D01*
X111672825Y-92151686D01*
X111672824Y-92151686D01*
X111672821Y-92151687D01*
X111547804Y-92164000D01*
X111464196Y-92164000D01*
X111339179Y-92151687D01*
X111339176Y-92151686D01*
X111339175Y-92151686D01*
X111178761Y-92103025D01*
X111178759Y-92103024D01*
X111178756Y-92103023D01*
X111030922Y-92024005D01*
X110901341Y-91917659D01*
X110794995Y-91788078D01*
X110715977Y-91640244D01*
X110692008Y-91561228D01*
X110667314Y-91479825D01*
X110667314Y-91479824D01*
X110667313Y-91479821D01*
X110650883Y-91313000D01*
X110667313Y-91146179D01*
X110667314Y-91146175D01*
X110715975Y-90985761D01*
X110715976Y-90985759D01*
X110715977Y-90985756D01*
X110794995Y-90837922D01*
X110901341Y-90708341D01*
X111030922Y-90601995D01*
X111178756Y-90522977D01*
X111178759Y-90522976D01*
X111178761Y-90522975D01*
X111339175Y-90474314D01*
X111339176Y-90474314D01*
X111339179Y-90474313D01*
X111464196Y-90462000D01*
X111547804Y-90462000D01*
X111672821Y-90474313D01*
X111672821Y-90474313D01*
G37*
G36*
X119374228Y-90494703D02*
X119529100Y-90558853D01*
X119668481Y-90651985D01*
X119787015Y-90770519D01*
X119880147Y-90909900D01*
X119944297Y-91064772D01*
X119977000Y-91229184D01*
X119977000Y-91396816D01*
X119944297Y-91561228D01*
X119880147Y-91716100D01*
X119787015Y-91855481D01*
X119668481Y-91974015D01*
X119529100Y-92067147D01*
X119374228Y-92131297D01*
X119209816Y-92164000D01*
X119042184Y-92164000D01*
X118877772Y-92131297D01*
X118722900Y-92067147D01*
X118583519Y-91974015D01*
X118464985Y-91855481D01*
X118371853Y-91716100D01*
X118307703Y-91561228D01*
X118275000Y-91396816D01*
X118275000Y-91229184D01*
X118307703Y-91064772D01*
X118371853Y-90909900D01*
X118464985Y-90770519D01*
X118583519Y-90651985D01*
X118722900Y-90558853D01*
X118877772Y-90494703D01*
X119042184Y-90462000D01*
X119209816Y-90462000D01*
X119374228Y-90494703D01*
X119374228Y-90494703D01*
G37*
G36*
X171120000Y-86030000D02*
X169494000Y-86030000D01*
X169494000Y-78308000D01*
X171120000Y-78308000D01*
X171120000Y-86030000D01*
X171120000Y-86030000D01*
G37*
G36*
X168580000Y-86030000D02*
X166954000Y-86030000D01*
X166954000Y-78308000D01*
X168580000Y-78308000D01*
X168580000Y-86030000D01*
X168580000Y-86030000D01*
G37*
G36*
X166040000Y-86030000D02*
X164414000Y-86030000D01*
X164414000Y-78308000D01*
X166040000Y-78308000D01*
X166040000Y-86030000D01*
X166040000Y-86030000D01*
G37*
G36*
X163500000Y-86030000D02*
X161874000Y-86030000D01*
X161874000Y-78308000D01*
X163500000Y-78308000D01*
X163500000Y-86030000D01*
X163500000Y-86030000D01*
G37*
G36*
X130480000Y-86030000D02*
X128854000Y-86030000D01*
X128854000Y-78308000D01*
X130480000Y-78308000D01*
X130480000Y-86030000D01*
X130480000Y-86030000D01*
G37*
G36*
X178740000Y-86030000D02*
X177114000Y-86030000D01*
X177114000Y-78308000D01*
X178740000Y-78308000D01*
X178740000Y-86030000D01*
X178740000Y-86030000D01*
G37*
G36*
X173660000Y-86030000D02*
X172034000Y-86030000D01*
X172034000Y-78308000D01*
X173660000Y-78308000D01*
X173660000Y-86030000D01*
X173660000Y-86030000D01*
G37*
G36*
X133020000Y-86030000D02*
X131394000Y-86030000D01*
X131394000Y-78308000D01*
X133020000Y-78308000D01*
X133020000Y-86030000D01*
X133020000Y-86030000D01*
G37*
G36*
X135560000Y-86030000D02*
X133934000Y-86030000D01*
X133934000Y-78308000D01*
X135560000Y-78308000D01*
X135560000Y-86030000D01*
X135560000Y-86030000D01*
G37*
G36*
X138100000Y-86030000D02*
X136474000Y-86030000D01*
X136474000Y-78308000D01*
X138100000Y-78308000D01*
X138100000Y-86030000D01*
X138100000Y-86030000D01*
G37*
G36*
X140640000Y-86030000D02*
X139014000Y-86030000D01*
X139014000Y-78308000D01*
X140640000Y-78308000D01*
X140640000Y-86030000D01*
X140640000Y-86030000D01*
G37*
G36*
X150800000Y-86030000D02*
X149174000Y-86030000D01*
X149174000Y-78308000D01*
X150800000Y-78308000D01*
X150800000Y-86030000D01*
X150800000Y-86030000D01*
G37*
G36*
X148260000Y-86030000D02*
X146634000Y-86030000D01*
X146634000Y-78308000D01*
X148260000Y-78308000D01*
X148260000Y-86030000D01*
X148260000Y-86030000D01*
G37*
G36*
X145720000Y-86030000D02*
X144094000Y-86030000D01*
X144094000Y-78308000D01*
X145720000Y-78308000D01*
X145720000Y-86030000D01*
X145720000Y-86030000D01*
G37*
G36*
X143180000Y-86030000D02*
X141554000Y-86030000D01*
X141554000Y-78308000D01*
X143180000Y-78308000D01*
X143180000Y-86030000D01*
X143180000Y-86030000D01*
G37*
G36*
X125400000Y-86030000D02*
X123774000Y-86030000D01*
X123774000Y-78308000D01*
X125400000Y-78308000D01*
X125400000Y-86030000D01*
X125400000Y-86030000D01*
G37*
G36*
X127940000Y-86030000D02*
X126314000Y-86030000D01*
X126314000Y-78308000D01*
X127940000Y-78308000D01*
X127940000Y-86030000D01*
X127940000Y-86030000D01*
G37*
G36*
X122860000Y-86030000D02*
X121234000Y-86030000D01*
X121234000Y-78308000D01*
X122860000Y-78308000D01*
X122860000Y-86030000D01*
X122860000Y-86030000D01*
G37*
G36*
X120320000Y-86030000D02*
X118694000Y-86030000D01*
X118694000Y-78308000D01*
X120320000Y-78308000D01*
X120320000Y-86030000D01*
X120320000Y-86030000D01*
G37*
G36*
X160960000Y-86030000D02*
X159334000Y-86030000D01*
X159334000Y-78308000D01*
X160960000Y-78308000D01*
X160960000Y-86030000D01*
X160960000Y-86030000D01*
G37*
G36*
X155880000Y-86030000D02*
X154254000Y-86030000D01*
X154254000Y-78308000D01*
X155880000Y-78308000D01*
X155880000Y-86030000D01*
X155880000Y-86030000D01*
G37*
G36*
X153340000Y-86030000D02*
X151714000Y-86030000D01*
X151714000Y-78308000D01*
X153340000Y-78308000D01*
X153340000Y-86030000D01*
X153340000Y-86030000D01*
G37*
G36*
X158420000Y-86030000D02*
X156794000Y-86030000D01*
X156794000Y-78308000D01*
X158420000Y-78308000D01*
X158420000Y-86030000D01*
X158420000Y-86030000D01*
G37*
G36*
X114997000Y-82739000D02*
X113095000Y-82739000D01*
X113095000Y-80837000D01*
X114997000Y-80837000D01*
X114997000Y-82739000D01*
X114997000Y-82739000D01*
G37*
G36*
X111783396Y-80873546D02*
X111956466Y-80945234D01*
X112112230Y-81049312D01*
X112244688Y-81181770D01*
X112348766Y-81337534D01*
X112420454Y-81510604D01*
X112457000Y-81694333D01*
X112457000Y-81881667D01*
X112420454Y-82065396D01*
X112348766Y-82238466D01*
X112244688Y-82394230D01*
X112112230Y-82526688D01*
X111956466Y-82630766D01*
X111783396Y-82702454D01*
X111599667Y-82739000D01*
X111412333Y-82739000D01*
X111228604Y-82702454D01*
X111055534Y-82630766D01*
X110899770Y-82526688D01*
X110767312Y-82394230D01*
X110663234Y-82238466D01*
X110591546Y-82065396D01*
X110555000Y-81881667D01*
X110555000Y-81694333D01*
X110591546Y-81510604D01*
X110663234Y-81337534D01*
X110767312Y-81181770D01*
X110899770Y-81049312D01*
X111055534Y-80945234D01*
X111228604Y-80873546D01*
X111412333Y-80837000D01*
X111599667Y-80837000D01*
X111783396Y-80873546D01*
X111783396Y-80873546D01*
G37*
M02*
