G04 #@! TF.GenerationSoftware,KiCad,Pcbnew,(5.0.1-3-g963ef8bb5)*
G04 #@! TF.CreationDate,2020-10-05T19:50:21+01:00*
G04 #@! TF.ProjectId,ACE_Backplane_Adaptor_B,4143455F4261636B706C616E655F4164,rev?*
G04 #@! TF.SameCoordinates,Original*
G04 #@! TF.FileFunction,Copper,L2,Bot,Signal*
G04 #@! TF.FilePolarity,Positive*
%FSLAX46Y46*%
G04 Gerber Fmt 4.6, Leading zero omitted, Abs format (unit mm)*
G04 Created by KiCad (PCBNEW (5.0.1-3-g963ef8bb5)) date Monday, 05 October 2020 at 19:50:21*
%MOMM*%
%LPD*%
G01*
G04 APERTURE LIST*
G04 #@! TA.AperFunction,ComponentPad*
%ADD10R,1.700000X1.700000*%
G04 #@! TD*
G04 #@! TA.AperFunction,ComponentPad*
%ADD11O,1.700000X1.700000*%
G04 #@! TD*
G04 #@! TA.AperFunction,SMDPad,CuDef*
%ADD12R,1.524000X7.620000*%
G04 #@! TD*
G04 #@! TA.AperFunction,ComponentPad*
%ADD13R,1.800000X1.800000*%
G04 #@! TD*
G04 #@! TA.AperFunction,ComponentPad*
%ADD14C,1.800000*%
G04 #@! TD*
G04 #@! TA.AperFunction,ComponentPad*
%ADD15C,1.600000*%
G04 #@! TD*
G04 #@! TA.AperFunction,ComponentPad*
%ADD16O,1.600000X1.600000*%
G04 #@! TD*
G04 #@! TA.AperFunction,ComponentPad*
%ADD17C,1.700000*%
G04 #@! TD*
G04 #@! TA.AperFunction,Conductor*
%ADD18C,0.300000*%
G04 #@! TD*
G04 #@! TA.AperFunction,Conductor*
%ADD19C,0.250000*%
G04 #@! TD*
G04 #@! TA.AperFunction,Conductor*
%ADD20C,0.254000*%
G04 #@! TD*
G04 APERTURE END LIST*
D10*
G04 #@! TO.P,J2,1*
G04 #@! TO.N,GND*
X184785000Y-91694000D03*
D11*
G04 #@! TO.P,J2,2*
G04 #@! TO.N,Net-(J1-PadB12)*
X187325000Y-91694000D03*
G04 #@! TD*
D12*
G04 #@! TO.P,Z1,B1*
G04 #@! TO.N,GND*
X119507000Y-82169000D03*
G04 #@! TO.P,Z1,B2*
G04 #@! TO.N,Net-(J1-PadB2)*
X122047000Y-82169000D03*
G04 #@! TO.P,Z1,B4*
G04 #@! TO.N,Net-(J1-PadB4)*
X127127000Y-82169000D03*
G04 #@! TO.P,Z1,B3*
G04 #@! TO.N,Net-(J1-PadB3)*
X124587000Y-82169000D03*
G04 #@! TO.P,Z1,B10*
G04 #@! TO.N,Net-(J1-PadB10)*
X142367000Y-82169000D03*
G04 #@! TO.P,Z1,B11*
G04 #@! TO.N,Net-(J1-PadB11)*
X144907000Y-82169000D03*
G04 #@! TO.P,Z1,B12*
G04 #@! TO.N,Net-(J1-PadB12)*
X147447000Y-82169000D03*
G04 #@! TO.P,Z1,B13*
G04 #@! TO.N,Net-(J1-PadB13)*
X149987000Y-82169000D03*
G04 #@! TO.P,Z1,B9*
G04 #@! TO.N,Net-(J1-PadB9)*
X139827000Y-82169000D03*
G04 #@! TO.P,Z1,B8*
G04 #@! TO.N,Net-(J1-PadB8)*
X137287000Y-82169000D03*
G04 #@! TO.P,Z1,B7*
G04 #@! TO.N,Net-(J1-PadB7)*
X134747000Y-82169000D03*
G04 #@! TO.P,Z1,B6*
G04 #@! TO.N,Net-(J1-PadB6)*
X132207000Y-82169000D03*
G04 #@! TO.P,Z1,B22*
G04 #@! TO.N,Net-(J1-PadB22)*
X172847000Y-82169000D03*
G04 #@! TO.P,Z1,B24*
G04 #@! TO.N,Net-(J1-PadB24)*
X177927000Y-82169000D03*
G04 #@! TO.P,Z1,B5*
G04 #@! TO.N,Net-(J1-PadB5)*
X129667000Y-82169000D03*
G04 #@! TO.P,Z1,B18*
G04 #@! TO.N,Net-(J1-PadB18)*
X162687000Y-82169000D03*
G04 #@! TO.P,Z1,B19*
G04 #@! TO.N,Net-(J1-PadB19)*
X165227000Y-82169000D03*
G04 #@! TO.P,Z1,B20*
G04 #@! TO.N,Net-(J1-PadB20)*
X167767000Y-82169000D03*
G04 #@! TO.P,Z1,B21*
G04 #@! TO.N,Net-(J1-PadB21)*
X170307000Y-82169000D03*
G04 #@! TO.P,Z1,B17*
G04 #@! TO.N,Net-(J1-PadB17)*
X160147000Y-82169000D03*
G04 #@! TO.P,Z1,B16*
G04 #@! TO.N,Net-(J1-PadB16)*
X157607000Y-82169000D03*
G04 #@! TO.P,Z1,B15*
G04 #@! TO.N,Net-(J1-PadB15)*
X155067000Y-82169000D03*
G04 #@! TO.P,Z1,B14*
G04 #@! TO.N,Net-(J1-PadB14)*
X152527000Y-82169000D03*
G04 #@! TD*
D13*
G04 #@! TO.P,D1,1*
G04 #@! TO.N,GND*
X114046000Y-81788000D03*
D14*
G04 #@! TO.P,D1,2*
G04 #@! TO.N,Net-(D1-Pad2)*
X111506000Y-81788000D03*
G04 #@! TD*
D15*
G04 #@! TO.P,R1,1*
G04 #@! TO.N,Net-(J1-PadA4)*
X119126000Y-91313000D03*
D16*
G04 #@! TO.P,R1,2*
G04 #@! TO.N,Net-(D1-Pad2)*
X111506000Y-91313000D03*
G04 #@! TD*
D17*
G04 #@! TO.P,J1,A14*
G04 #@! TO.N,Net-(J1-PadA14)*
X152527000Y-95504000D03*
G04 #@! TO.P,J1,A15*
G04 #@! TO.N,Net-(J1-PadA15)*
X155067000Y-95504000D03*
G04 #@! TO.P,J1,A16*
G04 #@! TO.N,Net-(J1-PadA16)*
X157607000Y-95504000D03*
G04 #@! TO.P,J1,A17*
G04 #@! TO.N,Net-(J1-PadA17)*
X160147000Y-95504000D03*
G04 #@! TO.P,J1,A18*
G04 #@! TO.N,Net-(J1-PadA18)*
X162687000Y-95504000D03*
G04 #@! TO.P,J1,A19*
G04 #@! TO.N,Net-(J1-PadA19)*
X165227000Y-95504000D03*
G04 #@! TO.P,J1,A20*
G04 #@! TO.N,Net-(J1-PadA20)*
X167767000Y-95504000D03*
G04 #@! TO.P,J1,A21*
G04 #@! TO.N,Net-(J1-PadA21)*
X170307000Y-95504000D03*
G04 #@! TO.P,J1,A22*
G04 #@! TO.N,Net-(J1-PadA22)*
X172847000Y-95504000D03*
G04 #@! TO.P,J1,*
G04 #@! TO.N,*
X175387000Y-95504000D03*
G04 #@! TO.P,J1,A24*
G04 #@! TO.N,Net-(J1-PadA24)*
X177927000Y-95504000D03*
G04 #@! TO.P,J1,A13*
G04 #@! TO.N,Net-(J1-PadA13)*
X149987000Y-95504000D03*
G04 #@! TO.P,J1,A12*
G04 #@! TO.N,Net-(J1-PadA12)*
X147447000Y-95504000D03*
G04 #@! TO.P,J1,A11*
G04 #@! TO.N,Net-(J1-PadA11)*
X144907000Y-95504000D03*
G04 #@! TO.P,J1,A10*
G04 #@! TO.N,Net-(J1-PadA10)*
X142367000Y-95504000D03*
G04 #@! TO.P,J1,A9*
G04 #@! TO.N,Net-(J1-PadA9)*
X139827000Y-95504000D03*
G04 #@! TO.P,J1,A8*
G04 #@! TO.N,Net-(J1-PadA8)*
X137287000Y-95504000D03*
G04 #@! TO.P,J1,A7*
G04 #@! TO.N,Net-(J1-PadA7)*
X134747000Y-95504000D03*
G04 #@! TO.P,J1,A6*
G04 #@! TO.N,Net-(J1-PadA6)*
X132207000Y-95504000D03*
G04 #@! TO.P,J1,A5*
G04 #@! TO.N,Net-(J1-PadA5)*
X129667000Y-95504000D03*
G04 #@! TO.P,J1,A4*
G04 #@! TO.N,Net-(J1-PadA4)*
X127127000Y-95504000D03*
G04 #@! TO.P,J1,A3*
G04 #@! TO.N,Net-(J1-PadA3)*
X124587000Y-95504000D03*
G04 #@! TO.P,J1,A2*
G04 #@! TO.N,GND*
X122047000Y-95504000D03*
G04 #@! TO.P,J1,A1*
X119507000Y-95504000D03*
G04 #@! TO.P,J1,B1*
X119507000Y-98044000D03*
G04 #@! TO.P,J1,B2*
G04 #@! TO.N,Net-(J1-PadB2)*
X122047000Y-98044000D03*
G04 #@! TO.P,J1,B3*
G04 #@! TO.N,Net-(J1-PadB3)*
X124587000Y-98044000D03*
G04 #@! TO.P,J1,B4*
G04 #@! TO.N,Net-(J1-PadB4)*
X127127000Y-98044000D03*
G04 #@! TO.P,J1,B5*
G04 #@! TO.N,Net-(J1-PadB5)*
X129667000Y-98044000D03*
G04 #@! TO.P,J1,B6*
G04 #@! TO.N,Net-(J1-PadB6)*
X132207000Y-98044000D03*
G04 #@! TO.P,J1,B7*
G04 #@! TO.N,Net-(J1-PadB7)*
X134747000Y-98044000D03*
G04 #@! TO.P,J1,B8*
G04 #@! TO.N,Net-(J1-PadB8)*
X137287000Y-98044000D03*
G04 #@! TO.P,J1,B9*
G04 #@! TO.N,Net-(J1-PadB9)*
X139827000Y-98044000D03*
G04 #@! TO.P,J1,B10*
G04 #@! TO.N,Net-(J1-PadB10)*
X142367000Y-98044000D03*
G04 #@! TO.P,J1,B11*
G04 #@! TO.N,Net-(J1-PadB11)*
X144907000Y-98044000D03*
G04 #@! TO.P,J1,B12*
G04 #@! TO.N,Net-(J1-PadB12)*
X147447000Y-98044000D03*
G04 #@! TO.P,J1,B13*
G04 #@! TO.N,Net-(J1-PadB13)*
X149987000Y-98044000D03*
G04 #@! TO.P,J1,B24*
G04 #@! TO.N,Net-(J1-PadB24)*
X177927000Y-98044000D03*
G04 #@! TO.P,J1,*
G04 #@! TO.N,*
X175387000Y-98044000D03*
G04 #@! TO.P,J1,B22*
G04 #@! TO.N,Net-(J1-PadB22)*
X172847000Y-98044000D03*
G04 #@! TO.P,J1,B21*
G04 #@! TO.N,Net-(J1-PadB21)*
X170307000Y-98044000D03*
G04 #@! TO.P,J1,B20*
G04 #@! TO.N,Net-(J1-PadB20)*
X167767000Y-98044000D03*
G04 #@! TO.P,J1,B19*
G04 #@! TO.N,Net-(J1-PadB19)*
X165227000Y-98044000D03*
G04 #@! TO.P,J1,B18*
G04 #@! TO.N,Net-(J1-PadB18)*
X162687000Y-98044000D03*
G04 #@! TO.P,J1,B17*
G04 #@! TO.N,Net-(J1-PadB17)*
X160147000Y-98044000D03*
G04 #@! TO.P,J1,B16*
G04 #@! TO.N,Net-(J1-PadB16)*
X157607000Y-98044000D03*
G04 #@! TO.P,J1,B15*
G04 #@! TO.N,Net-(J1-PadB15)*
X155067000Y-98044000D03*
G04 #@! TO.P,J1,B14*
G04 #@! TO.N,Net-(J1-PadB14)*
X152527000Y-98044000D03*
G04 #@! TO.P,J1,A25*
G04 #@! TO.N,N/C*
X180467000Y-95504000D03*
G04 #@! TO.P,J1,B25*
X180467000Y-98044000D03*
G04 #@! TD*
D18*
G04 #@! TO.N,Net-(J1-PadA4)*
X125163001Y-99244001D02*
X118167001Y-99244001D01*
X125787001Y-98620001D02*
X125163001Y-99244001D01*
X125787001Y-97515763D02*
X125787001Y-98620001D01*
X127127000Y-96175764D02*
X125787001Y-97515763D01*
X127127000Y-95504000D02*
X127127000Y-96175764D01*
X118167001Y-99244001D02*
X116967000Y-98044000D01*
X116967000Y-93472000D02*
X119126000Y-91313000D01*
X116967000Y-98044000D02*
X116967000Y-93472000D01*
D19*
G04 #@! TO.N,Net-(J1-PadB2)*
X122047000Y-86229000D02*
X122047000Y-82169000D01*
X123222001Y-87404001D02*
X122047000Y-86229000D01*
X123222001Y-96868999D02*
X123222001Y-87404001D01*
X122047000Y-98044000D02*
X123222001Y-96868999D01*
G04 #@! TO.N,Net-(J1-PadB3)*
X124587000Y-86229000D02*
X124587000Y-82169000D01*
X125762001Y-87404001D02*
X124587000Y-86229000D01*
X125762001Y-96868999D02*
X125762001Y-87404001D01*
X124587000Y-98044000D02*
X125762001Y-96868999D01*
G04 #@! TO.N,Net-(J1-PadB4)*
X127127000Y-86229000D02*
X127127000Y-82169000D01*
X128302001Y-87404001D02*
X127127000Y-86229000D01*
X128302001Y-96868999D02*
X128302001Y-87404001D01*
X127127000Y-98044000D02*
X128302001Y-96868999D01*
G04 #@! TO.N,Net-(J1-PadB5)*
X129667000Y-86229000D02*
X129667000Y-82169000D01*
X130842001Y-87404001D02*
X129667000Y-86229000D01*
X130842001Y-96868999D02*
X130842001Y-87404001D01*
X129667000Y-98044000D02*
X130842001Y-96868999D01*
G04 #@! TO.N,Net-(J1-PadB6)*
X132207000Y-86229000D02*
X132207000Y-82169000D01*
X133571999Y-87593999D02*
X132207000Y-86229000D01*
X133571999Y-96679001D02*
X133571999Y-87593999D01*
X132207000Y-98044000D02*
X133571999Y-96679001D01*
G04 #@! TO.N,Net-(J1-PadB7)*
X135922001Y-87404001D02*
X134747000Y-86229000D01*
X134747000Y-86229000D02*
X134747000Y-82169000D01*
X135922001Y-96868999D02*
X135922001Y-87404001D01*
X134747000Y-98044000D02*
X135922001Y-96868999D01*
G04 #@! TO.N,Net-(J1-PadB8)*
X137287000Y-86229000D02*
X137287000Y-82169000D01*
X138651999Y-87593999D02*
X137287000Y-86229000D01*
X138651999Y-96679001D02*
X138651999Y-87593999D01*
X137287000Y-98044000D02*
X138651999Y-96679001D01*
G04 #@! TO.N,Net-(J1-PadB9)*
X141191999Y-87593999D02*
X139827000Y-86229000D01*
X141191999Y-96679001D02*
X141191999Y-87593999D01*
X139827000Y-86229000D02*
X139827000Y-82169000D01*
X139827000Y-98044000D02*
X141191999Y-96679001D01*
G04 #@! TO.N,Net-(J1-PadB10)*
X142367000Y-86229000D02*
X142367000Y-82169000D01*
X143542001Y-87404001D02*
X142367000Y-86229000D01*
X143542001Y-96868999D02*
X143542001Y-87404001D01*
X142367000Y-98044000D02*
X143542001Y-96868999D01*
G04 #@! TO.N,Net-(J1-PadB11)*
X146082001Y-87404001D02*
X144907000Y-86229000D01*
X146082001Y-96068001D02*
X146082001Y-87404001D01*
X145471001Y-96679001D02*
X146082001Y-96068001D01*
X145069918Y-96679001D02*
X145471001Y-96679001D01*
X144907000Y-96841919D02*
X145069918Y-96679001D01*
X144907000Y-86229000D02*
X144907000Y-82169000D01*
X144907000Y-98044000D02*
X144907000Y-96841919D01*
G04 #@! TO.N,Net-(J1-PadB12)*
X187325000Y-91694000D02*
X183388000Y-95631000D01*
X183388000Y-95631000D02*
X183388000Y-97917000D01*
X148296999Y-98893999D02*
X147447000Y-98044000D01*
X148622001Y-99219001D02*
X148296999Y-98893999D01*
X182085999Y-99219001D02*
X148622001Y-99219001D01*
X183388000Y-97917000D02*
X182085999Y-99219001D01*
X148622001Y-87404001D02*
X147447000Y-86229000D01*
X148622001Y-96868999D02*
X148622001Y-87404001D01*
X147447000Y-86229000D02*
X147447000Y-82169000D01*
X147447000Y-98044000D02*
X148622001Y-96868999D01*
G04 #@! TO.N,Net-(J1-PadB13)*
X149987000Y-86229000D02*
X149987000Y-82169000D01*
X151162001Y-87404001D02*
X149987000Y-86229000D01*
X151162001Y-96868999D02*
X151162001Y-87404001D01*
X149987000Y-98044000D02*
X151162001Y-96868999D01*
G04 #@! TO.N,Net-(J1-PadB24)*
X177927000Y-86229000D02*
X177927000Y-82169000D01*
X179102001Y-87404001D02*
X177927000Y-86229000D01*
X179102001Y-96868999D02*
X179102001Y-87404001D01*
X177927000Y-98044000D02*
X179102001Y-96868999D01*
G04 #@! TO.N,Net-(J1-PadB22)*
X172847000Y-85217000D02*
X172847000Y-82169000D01*
X174022001Y-86392001D02*
X172847000Y-85217000D01*
X174022001Y-96868999D02*
X174022001Y-86392001D01*
X172847000Y-98044000D02*
X174022001Y-96868999D01*
G04 #@! TO.N,Net-(J1-PadB21)*
X170307000Y-86229000D02*
X170307000Y-82169000D01*
X171482001Y-96868999D02*
X171482001Y-87404001D01*
X171482001Y-87404001D02*
X170307000Y-86229000D01*
X170307000Y-98044000D02*
X171482001Y-96868999D01*
G04 #@! TO.N,Net-(J1-PadB20)*
X167767000Y-86229000D02*
X167767000Y-82169000D01*
X169131999Y-96679001D02*
X169131999Y-87593999D01*
X169131999Y-87593999D02*
X167767000Y-86229000D01*
X167767000Y-98044000D02*
X169131999Y-96679001D01*
G04 #@! TO.N,Net-(J1-PadB19)*
X166591999Y-87593999D02*
X165227000Y-86229000D01*
X166591999Y-96679001D02*
X166591999Y-87593999D01*
X165227000Y-86229000D02*
X165227000Y-82169000D01*
X165227000Y-98044000D02*
X166591999Y-96679001D01*
G04 #@! TO.N,Net-(J1-PadB18)*
X162687000Y-86229000D02*
X162687000Y-82169000D01*
X163862001Y-87404001D02*
X162687000Y-86229000D01*
X163862001Y-96868999D02*
X163862001Y-87404001D01*
X162687000Y-98044000D02*
X163862001Y-96868999D01*
G04 #@! TO.N,Net-(J1-PadB17)*
X161322001Y-87404001D02*
X160147000Y-86229000D01*
X161322001Y-96868999D02*
X161322001Y-87404001D01*
X160147000Y-86229000D02*
X160147000Y-82169000D01*
X160147000Y-98044000D02*
X161322001Y-96868999D01*
G04 #@! TO.N,Net-(J1-PadB16)*
X158971999Y-87593999D02*
X157607000Y-86229000D01*
X158971999Y-96679001D02*
X158971999Y-87593999D01*
X157607000Y-86229000D02*
X157607000Y-82169000D01*
X157607000Y-98044000D02*
X158971999Y-96679001D01*
G04 #@! TO.N,Net-(J1-PadB15)*
X155067000Y-86229000D02*
X155067000Y-82169000D01*
X156242001Y-87404001D02*
X155067000Y-86229000D01*
X156242001Y-96068001D02*
X156242001Y-87404001D01*
X155067000Y-97243002D02*
X156242001Y-96068001D01*
X155067000Y-98044000D02*
X155067000Y-97243002D01*
G04 #@! TO.N,Net-(J1-PadB14)*
X153702001Y-87404001D02*
X152527000Y-86229000D01*
X152527000Y-86229000D02*
X152527000Y-82169000D01*
X153702001Y-96868999D02*
X153702001Y-87404001D01*
X152527000Y-98044000D02*
X153702001Y-96868999D01*
G04 #@! TO.N,Net-(D1-Pad2)*
X111506000Y-81788000D02*
X110606001Y-82687999D01*
X110606001Y-90413001D02*
X111506000Y-91313000D01*
X110606001Y-82687999D02*
X110606001Y-90413001D01*
G04 #@! TD*
D20*
G04 #@! TO.N,GND*
G36*
X118110000Y-81883250D02*
X118268750Y-82042000D01*
X119380000Y-82042000D01*
X119380000Y-82022000D01*
X119634000Y-82022000D01*
X119634000Y-82042000D01*
X119654000Y-82042000D01*
X119654000Y-82296000D01*
X119634000Y-82296000D01*
X119634000Y-86455250D01*
X119792750Y-86614000D01*
X120395309Y-86614000D01*
X120628698Y-86517327D01*
X120779937Y-86366089D01*
X120827191Y-86436809D01*
X121037235Y-86577157D01*
X121285000Y-86626440D01*
X121398518Y-86626440D01*
X121499071Y-86776929D01*
X121562530Y-86819331D01*
X122462002Y-87718805D01*
X122462001Y-94074856D01*
X122275721Y-94007282D01*
X121685542Y-94033685D01*
X121262920Y-94208741D01*
X121182647Y-94460042D01*
X122047000Y-95324395D01*
X122061143Y-95310253D01*
X122240748Y-95489858D01*
X122226605Y-95504000D01*
X122240748Y-95518143D01*
X122061143Y-95697748D01*
X122047000Y-95683605D01*
X121182647Y-96547958D01*
X121252247Y-96765845D01*
X121205815Y-96785078D01*
X120788078Y-97202815D01*
X120768845Y-97249247D01*
X120550958Y-97179647D01*
X119686605Y-98044000D01*
X119700748Y-98058143D01*
X119521143Y-98237748D01*
X119507000Y-98223605D01*
X119492858Y-98237748D01*
X119313253Y-98058143D01*
X119327395Y-98044000D01*
X118463042Y-97179647D01*
X118211741Y-97259920D01*
X118010282Y-97815279D01*
X118017862Y-97984705D01*
X117752000Y-97718843D01*
X117752000Y-96547958D01*
X118642647Y-96547958D01*
X118714852Y-96774000D01*
X118642647Y-97000042D01*
X119507000Y-97864395D01*
X120371353Y-97000042D01*
X120299148Y-96774000D01*
X120371353Y-96547958D01*
X119507000Y-95683605D01*
X118642647Y-96547958D01*
X117752000Y-96547958D01*
X117752000Y-95275279D01*
X118010282Y-95275279D01*
X118036685Y-95865458D01*
X118211741Y-96288080D01*
X118463042Y-96368353D01*
X119327395Y-95504000D01*
X119686605Y-95504000D01*
X120550958Y-96368353D01*
X120777000Y-96296148D01*
X121003042Y-96368353D01*
X121867395Y-95504000D01*
X121003042Y-94639647D01*
X120777000Y-94711852D01*
X120550958Y-94639647D01*
X119686605Y-95504000D01*
X119327395Y-95504000D01*
X118463042Y-94639647D01*
X118211741Y-94719920D01*
X118010282Y-95275279D01*
X117752000Y-95275279D01*
X117752000Y-94460042D01*
X118642647Y-94460042D01*
X119507000Y-95324395D01*
X120371353Y-94460042D01*
X120291080Y-94208741D01*
X119735721Y-94007282D01*
X119145542Y-94033685D01*
X118722920Y-94208741D01*
X118642647Y-94460042D01*
X117752000Y-94460042D01*
X117752000Y-93797157D01*
X118812699Y-92736459D01*
X118840561Y-92748000D01*
X119411439Y-92748000D01*
X119938862Y-92529534D01*
X120342534Y-92125862D01*
X120561000Y-91598439D01*
X120561000Y-91027561D01*
X120342534Y-90500138D01*
X119938862Y-90096466D01*
X119411439Y-89878000D01*
X118840561Y-89878000D01*
X118313138Y-90096466D01*
X117909466Y-90500138D01*
X117691000Y-91027561D01*
X117691000Y-91598439D01*
X117702541Y-91626301D01*
X116466590Y-92862253D01*
X116401048Y-92906047D01*
X116357254Y-92971589D01*
X116357251Y-92971592D01*
X116227546Y-93165709D01*
X116166622Y-93472000D01*
X116182001Y-93549317D01*
X116182000Y-97966688D01*
X116166622Y-98044000D01*
X116182000Y-98121312D01*
X116182000Y-98121315D01*
X116227546Y-98350291D01*
X116401047Y-98609953D01*
X116466592Y-98653749D01*
X117432843Y-99620000D01*
X114447801Y-99620000D01*
X114924955Y-99310724D01*
X115444096Y-98708231D01*
X115773271Y-97984249D01*
X115886017Y-97196979D01*
X115885180Y-97128447D01*
X115753232Y-96344166D01*
X115406467Y-95628443D01*
X114872761Y-95038813D01*
X114195017Y-94622677D01*
X113427719Y-94413488D01*
X112632550Y-94428062D01*
X111873433Y-94665227D01*
X111211393Y-95105919D01*
X110699651Y-95714709D01*
X110379346Y-96442659D01*
X110276226Y-97231248D01*
X110398582Y-98017082D01*
X110736577Y-98736988D01*
X111263041Y-99333094D01*
X111717759Y-99620000D01*
X110184000Y-99620000D01*
X110184000Y-91917418D01*
X110471423Y-92347577D01*
X110946091Y-92664740D01*
X111364667Y-92748000D01*
X111647333Y-92748000D01*
X112065909Y-92664740D01*
X112540577Y-92347577D01*
X112857740Y-91872909D01*
X112969113Y-91313000D01*
X112857740Y-90753091D01*
X112540577Y-90278423D01*
X112065909Y-89961260D01*
X111647333Y-89878000D01*
X111366001Y-89878000D01*
X111366001Y-88948057D01*
X111935650Y-89307479D01*
X112700335Y-89526027D01*
X113495622Y-89521168D01*
X114257580Y-89293295D01*
X114924955Y-88860724D01*
X115444096Y-88258231D01*
X115773271Y-87534249D01*
X115886017Y-86746979D01*
X115885180Y-86678447D01*
X115753232Y-85894166D01*
X115406467Y-85178443D01*
X114872761Y-84588813D01*
X114195017Y-84172677D01*
X113427719Y-83963488D01*
X112632550Y-83978062D01*
X111873433Y-84215227D01*
X111366001Y-84553003D01*
X111366001Y-83323000D01*
X111811330Y-83323000D01*
X112375507Y-83089310D01*
X112551861Y-82912956D01*
X112607673Y-83047699D01*
X112786302Y-83226327D01*
X113019691Y-83323000D01*
X113760250Y-83323000D01*
X113919000Y-83164250D01*
X113919000Y-81915000D01*
X114173000Y-81915000D01*
X114173000Y-83164250D01*
X114331750Y-83323000D01*
X115072309Y-83323000D01*
X115305698Y-83226327D01*
X115484327Y-83047699D01*
X115581000Y-82814310D01*
X115581000Y-82454750D01*
X118110000Y-82454750D01*
X118110000Y-86105310D01*
X118206673Y-86338699D01*
X118385302Y-86517327D01*
X118618691Y-86614000D01*
X119221250Y-86614000D01*
X119380000Y-86455250D01*
X119380000Y-82296000D01*
X118268750Y-82296000D01*
X118110000Y-82454750D01*
X115581000Y-82454750D01*
X115581000Y-82073750D01*
X115422250Y-81915000D01*
X114173000Y-81915000D01*
X113919000Y-81915000D01*
X113899000Y-81915000D01*
X113899000Y-81661000D01*
X113919000Y-81661000D01*
X113919000Y-80411750D01*
X114173000Y-80411750D01*
X114173000Y-81661000D01*
X115422250Y-81661000D01*
X115581000Y-81502250D01*
X115581000Y-80761690D01*
X115484327Y-80528301D01*
X115305698Y-80349673D01*
X115072309Y-80253000D01*
X114331750Y-80253000D01*
X114173000Y-80411750D01*
X113919000Y-80411750D01*
X113760250Y-80253000D01*
X113019691Y-80253000D01*
X112786302Y-80349673D01*
X112607673Y-80528301D01*
X112551861Y-80663044D01*
X112375507Y-80486690D01*
X111811330Y-80253000D01*
X111200670Y-80253000D01*
X110636493Y-80486690D01*
X110204690Y-80918493D01*
X110184000Y-80968443D01*
X110184000Y-78942000D01*
X118110000Y-78942000D01*
X118110000Y-81883250D01*
X118110000Y-81883250D01*
G37*
X118110000Y-81883250D02*
X118268750Y-82042000D01*
X119380000Y-82042000D01*
X119380000Y-82022000D01*
X119634000Y-82022000D01*
X119634000Y-82042000D01*
X119654000Y-82042000D01*
X119654000Y-82296000D01*
X119634000Y-82296000D01*
X119634000Y-86455250D01*
X119792750Y-86614000D01*
X120395309Y-86614000D01*
X120628698Y-86517327D01*
X120779937Y-86366089D01*
X120827191Y-86436809D01*
X121037235Y-86577157D01*
X121285000Y-86626440D01*
X121398518Y-86626440D01*
X121499071Y-86776929D01*
X121562530Y-86819331D01*
X122462002Y-87718805D01*
X122462001Y-94074856D01*
X122275721Y-94007282D01*
X121685542Y-94033685D01*
X121262920Y-94208741D01*
X121182647Y-94460042D01*
X122047000Y-95324395D01*
X122061143Y-95310253D01*
X122240748Y-95489858D01*
X122226605Y-95504000D01*
X122240748Y-95518143D01*
X122061143Y-95697748D01*
X122047000Y-95683605D01*
X121182647Y-96547958D01*
X121252247Y-96765845D01*
X121205815Y-96785078D01*
X120788078Y-97202815D01*
X120768845Y-97249247D01*
X120550958Y-97179647D01*
X119686605Y-98044000D01*
X119700748Y-98058143D01*
X119521143Y-98237748D01*
X119507000Y-98223605D01*
X119492858Y-98237748D01*
X119313253Y-98058143D01*
X119327395Y-98044000D01*
X118463042Y-97179647D01*
X118211741Y-97259920D01*
X118010282Y-97815279D01*
X118017862Y-97984705D01*
X117752000Y-97718843D01*
X117752000Y-96547958D01*
X118642647Y-96547958D01*
X118714852Y-96774000D01*
X118642647Y-97000042D01*
X119507000Y-97864395D01*
X120371353Y-97000042D01*
X120299148Y-96774000D01*
X120371353Y-96547958D01*
X119507000Y-95683605D01*
X118642647Y-96547958D01*
X117752000Y-96547958D01*
X117752000Y-95275279D01*
X118010282Y-95275279D01*
X118036685Y-95865458D01*
X118211741Y-96288080D01*
X118463042Y-96368353D01*
X119327395Y-95504000D01*
X119686605Y-95504000D01*
X120550958Y-96368353D01*
X120777000Y-96296148D01*
X121003042Y-96368353D01*
X121867395Y-95504000D01*
X121003042Y-94639647D01*
X120777000Y-94711852D01*
X120550958Y-94639647D01*
X119686605Y-95504000D01*
X119327395Y-95504000D01*
X118463042Y-94639647D01*
X118211741Y-94719920D01*
X118010282Y-95275279D01*
X117752000Y-95275279D01*
X117752000Y-94460042D01*
X118642647Y-94460042D01*
X119507000Y-95324395D01*
X120371353Y-94460042D01*
X120291080Y-94208741D01*
X119735721Y-94007282D01*
X119145542Y-94033685D01*
X118722920Y-94208741D01*
X118642647Y-94460042D01*
X117752000Y-94460042D01*
X117752000Y-93797157D01*
X118812699Y-92736459D01*
X118840561Y-92748000D01*
X119411439Y-92748000D01*
X119938862Y-92529534D01*
X120342534Y-92125862D01*
X120561000Y-91598439D01*
X120561000Y-91027561D01*
X120342534Y-90500138D01*
X119938862Y-90096466D01*
X119411439Y-89878000D01*
X118840561Y-89878000D01*
X118313138Y-90096466D01*
X117909466Y-90500138D01*
X117691000Y-91027561D01*
X117691000Y-91598439D01*
X117702541Y-91626301D01*
X116466590Y-92862253D01*
X116401048Y-92906047D01*
X116357254Y-92971589D01*
X116357251Y-92971592D01*
X116227546Y-93165709D01*
X116166622Y-93472000D01*
X116182001Y-93549317D01*
X116182000Y-97966688D01*
X116166622Y-98044000D01*
X116182000Y-98121312D01*
X116182000Y-98121315D01*
X116227546Y-98350291D01*
X116401047Y-98609953D01*
X116466592Y-98653749D01*
X117432843Y-99620000D01*
X114447801Y-99620000D01*
X114924955Y-99310724D01*
X115444096Y-98708231D01*
X115773271Y-97984249D01*
X115886017Y-97196979D01*
X115885180Y-97128447D01*
X115753232Y-96344166D01*
X115406467Y-95628443D01*
X114872761Y-95038813D01*
X114195017Y-94622677D01*
X113427719Y-94413488D01*
X112632550Y-94428062D01*
X111873433Y-94665227D01*
X111211393Y-95105919D01*
X110699651Y-95714709D01*
X110379346Y-96442659D01*
X110276226Y-97231248D01*
X110398582Y-98017082D01*
X110736577Y-98736988D01*
X111263041Y-99333094D01*
X111717759Y-99620000D01*
X110184000Y-99620000D01*
X110184000Y-91917418D01*
X110471423Y-92347577D01*
X110946091Y-92664740D01*
X111364667Y-92748000D01*
X111647333Y-92748000D01*
X112065909Y-92664740D01*
X112540577Y-92347577D01*
X112857740Y-91872909D01*
X112969113Y-91313000D01*
X112857740Y-90753091D01*
X112540577Y-90278423D01*
X112065909Y-89961260D01*
X111647333Y-89878000D01*
X111366001Y-89878000D01*
X111366001Y-88948057D01*
X111935650Y-89307479D01*
X112700335Y-89526027D01*
X113495622Y-89521168D01*
X114257580Y-89293295D01*
X114924955Y-88860724D01*
X115444096Y-88258231D01*
X115773271Y-87534249D01*
X115886017Y-86746979D01*
X115885180Y-86678447D01*
X115753232Y-85894166D01*
X115406467Y-85178443D01*
X114872761Y-84588813D01*
X114195017Y-84172677D01*
X113427719Y-83963488D01*
X112632550Y-83978062D01*
X111873433Y-84215227D01*
X111366001Y-84553003D01*
X111366001Y-83323000D01*
X111811330Y-83323000D01*
X112375507Y-83089310D01*
X112551861Y-82912956D01*
X112607673Y-83047699D01*
X112786302Y-83226327D01*
X113019691Y-83323000D01*
X113760250Y-83323000D01*
X113919000Y-83164250D01*
X113919000Y-81915000D01*
X114173000Y-81915000D01*
X114173000Y-83164250D01*
X114331750Y-83323000D01*
X115072309Y-83323000D01*
X115305698Y-83226327D01*
X115484327Y-83047699D01*
X115581000Y-82814310D01*
X115581000Y-82454750D01*
X118110000Y-82454750D01*
X118110000Y-86105310D01*
X118206673Y-86338699D01*
X118385302Y-86517327D01*
X118618691Y-86614000D01*
X119221250Y-86614000D01*
X119380000Y-86455250D01*
X119380000Y-82296000D01*
X118268750Y-82296000D01*
X118110000Y-82454750D01*
X115581000Y-82454750D01*
X115581000Y-82073750D01*
X115422250Y-81915000D01*
X114173000Y-81915000D01*
X113919000Y-81915000D01*
X113899000Y-81915000D01*
X113899000Y-81661000D01*
X113919000Y-81661000D01*
X113919000Y-80411750D01*
X114173000Y-80411750D01*
X114173000Y-81661000D01*
X115422250Y-81661000D01*
X115581000Y-81502250D01*
X115581000Y-80761690D01*
X115484327Y-80528301D01*
X115305698Y-80349673D01*
X115072309Y-80253000D01*
X114331750Y-80253000D01*
X114173000Y-80411750D01*
X113919000Y-80411750D01*
X113760250Y-80253000D01*
X113019691Y-80253000D01*
X112786302Y-80349673D01*
X112607673Y-80528301D01*
X112551861Y-80663044D01*
X112375507Y-80486690D01*
X111811330Y-80253000D01*
X111200670Y-80253000D01*
X110636493Y-80486690D01*
X110204690Y-80918493D01*
X110184000Y-80968443D01*
X110184000Y-78942000D01*
X118110000Y-78942000D01*
X118110000Y-81883250D01*
G36*
X189536001Y-85537809D02*
X189269450Y-84987648D01*
X188735744Y-84398018D01*
X188058000Y-83981882D01*
X187290702Y-83772693D01*
X186495533Y-83787267D01*
X185736416Y-84024432D01*
X185074376Y-84465124D01*
X184562634Y-85073914D01*
X184242329Y-85801864D01*
X184139209Y-86590453D01*
X184261565Y-87376287D01*
X184599560Y-88096193D01*
X185126024Y-88692299D01*
X185798633Y-89116684D01*
X186563318Y-89335232D01*
X187358605Y-89330373D01*
X188120563Y-89102500D01*
X188787938Y-88669929D01*
X189307079Y-88067436D01*
X189536001Y-87563950D01*
X189536000Y-96118624D01*
X189269450Y-95568464D01*
X188735744Y-94978834D01*
X188058000Y-94562698D01*
X187290702Y-94353509D01*
X186495533Y-94368083D01*
X185736416Y-94605248D01*
X185074376Y-95045940D01*
X184562634Y-95654730D01*
X184242329Y-96382680D01*
X184148000Y-97104042D01*
X184148000Y-95945801D01*
X186958592Y-93135209D01*
X187178744Y-93179000D01*
X187471256Y-93179000D01*
X187904418Y-93092839D01*
X188395625Y-92764625D01*
X188723839Y-92273418D01*
X188839092Y-91694000D01*
X188723839Y-91114582D01*
X188395625Y-90623375D01*
X187904418Y-90295161D01*
X187471256Y-90209000D01*
X187178744Y-90209000D01*
X186745582Y-90295161D01*
X186254375Y-90623375D01*
X186239904Y-90645033D01*
X186173327Y-90484302D01*
X185994699Y-90305673D01*
X185761310Y-90209000D01*
X185070750Y-90209000D01*
X184912000Y-90367750D01*
X184912000Y-91567000D01*
X184932000Y-91567000D01*
X184932000Y-91821000D01*
X184912000Y-91821000D01*
X184912000Y-91841000D01*
X184658000Y-91841000D01*
X184658000Y-91821000D01*
X183458750Y-91821000D01*
X183300000Y-91979750D01*
X183300000Y-92670309D01*
X183396673Y-92903698D01*
X183575301Y-93082327D01*
X183808690Y-93179000D01*
X184499250Y-93179000D01*
X184657998Y-93020252D01*
X184657998Y-93179000D01*
X184765198Y-93179000D01*
X182903530Y-95040669D01*
X182840071Y-95083071D01*
X182672096Y-95334464D01*
X182628000Y-95556149D01*
X182628000Y-95556153D01*
X182613112Y-95631000D01*
X182628000Y-95705847D01*
X182628001Y-97602197D01*
X181952000Y-98278198D01*
X181952000Y-97748615D01*
X181725922Y-97202815D01*
X181308185Y-96785078D01*
X181281440Y-96774000D01*
X181308185Y-96762922D01*
X181725922Y-96345185D01*
X181952000Y-95799385D01*
X181952000Y-95208615D01*
X181725922Y-94662815D01*
X181308185Y-94245078D01*
X180762385Y-94019000D01*
X180171615Y-94019000D01*
X179862001Y-94147246D01*
X179862001Y-90717691D01*
X183300000Y-90717691D01*
X183300000Y-91408250D01*
X183458750Y-91567000D01*
X184658000Y-91567000D01*
X184658000Y-90367750D01*
X184499250Y-90209000D01*
X183808690Y-90209000D01*
X183575301Y-90305673D01*
X183396673Y-90484302D01*
X183300000Y-90717691D01*
X179862001Y-90717691D01*
X179862001Y-87478847D01*
X179876889Y-87404000D01*
X179862001Y-87329153D01*
X179862001Y-87329149D01*
X179817905Y-87107464D01*
X179775269Y-87043655D01*
X179692330Y-86919527D01*
X179692328Y-86919525D01*
X179649930Y-86856072D01*
X179586477Y-86813674D01*
X179171964Y-86399162D01*
X179287157Y-86226765D01*
X179336440Y-85979000D01*
X179336440Y-78942000D01*
X189536001Y-78942000D01*
X189536001Y-85537809D01*
X189536001Y-85537809D01*
G37*
X189536001Y-85537809D02*
X189269450Y-84987648D01*
X188735744Y-84398018D01*
X188058000Y-83981882D01*
X187290702Y-83772693D01*
X186495533Y-83787267D01*
X185736416Y-84024432D01*
X185074376Y-84465124D01*
X184562634Y-85073914D01*
X184242329Y-85801864D01*
X184139209Y-86590453D01*
X184261565Y-87376287D01*
X184599560Y-88096193D01*
X185126024Y-88692299D01*
X185798633Y-89116684D01*
X186563318Y-89335232D01*
X187358605Y-89330373D01*
X188120563Y-89102500D01*
X188787938Y-88669929D01*
X189307079Y-88067436D01*
X189536001Y-87563950D01*
X189536000Y-96118624D01*
X189269450Y-95568464D01*
X188735744Y-94978834D01*
X188058000Y-94562698D01*
X187290702Y-94353509D01*
X186495533Y-94368083D01*
X185736416Y-94605248D01*
X185074376Y-95045940D01*
X184562634Y-95654730D01*
X184242329Y-96382680D01*
X184148000Y-97104042D01*
X184148000Y-95945801D01*
X186958592Y-93135209D01*
X187178744Y-93179000D01*
X187471256Y-93179000D01*
X187904418Y-93092839D01*
X188395625Y-92764625D01*
X188723839Y-92273418D01*
X188839092Y-91694000D01*
X188723839Y-91114582D01*
X188395625Y-90623375D01*
X187904418Y-90295161D01*
X187471256Y-90209000D01*
X187178744Y-90209000D01*
X186745582Y-90295161D01*
X186254375Y-90623375D01*
X186239904Y-90645033D01*
X186173327Y-90484302D01*
X185994699Y-90305673D01*
X185761310Y-90209000D01*
X185070750Y-90209000D01*
X184912000Y-90367750D01*
X184912000Y-91567000D01*
X184932000Y-91567000D01*
X184932000Y-91821000D01*
X184912000Y-91821000D01*
X184912000Y-91841000D01*
X184658000Y-91841000D01*
X184658000Y-91821000D01*
X183458750Y-91821000D01*
X183300000Y-91979750D01*
X183300000Y-92670309D01*
X183396673Y-92903698D01*
X183575301Y-93082327D01*
X183808690Y-93179000D01*
X184499250Y-93179000D01*
X184657998Y-93020252D01*
X184657998Y-93179000D01*
X184765198Y-93179000D01*
X182903530Y-95040669D01*
X182840071Y-95083071D01*
X182672096Y-95334464D01*
X182628000Y-95556149D01*
X182628000Y-95556153D01*
X182613112Y-95631000D01*
X182628000Y-95705847D01*
X182628001Y-97602197D01*
X181952000Y-98278198D01*
X181952000Y-97748615D01*
X181725922Y-97202815D01*
X181308185Y-96785078D01*
X181281440Y-96774000D01*
X181308185Y-96762922D01*
X181725922Y-96345185D01*
X181952000Y-95799385D01*
X181952000Y-95208615D01*
X181725922Y-94662815D01*
X181308185Y-94245078D01*
X180762385Y-94019000D01*
X180171615Y-94019000D01*
X179862001Y-94147246D01*
X179862001Y-90717691D01*
X183300000Y-90717691D01*
X183300000Y-91408250D01*
X183458750Y-91567000D01*
X184658000Y-91567000D01*
X184658000Y-90367750D01*
X184499250Y-90209000D01*
X183808690Y-90209000D01*
X183575301Y-90305673D01*
X183396673Y-90484302D01*
X183300000Y-90717691D01*
X179862001Y-90717691D01*
X179862001Y-87478847D01*
X179876889Y-87404000D01*
X179862001Y-87329153D01*
X179862001Y-87329149D01*
X179817905Y-87107464D01*
X179775269Y-87043655D01*
X179692330Y-86919527D01*
X179692328Y-86919525D01*
X179649930Y-86856072D01*
X179586477Y-86813674D01*
X179171964Y-86399162D01*
X179287157Y-86226765D01*
X179336440Y-85979000D01*
X179336440Y-78942000D01*
X189536001Y-78942000D01*
X189536001Y-85537809D01*
G04 #@! TD*
M02*
