M48
;DRILL file {KiCad (5.0.1-3-g963ef8bb5)} date Monday, 05 October 2020 at 19:50:25
;FORMAT={-:-/ absolute / inch / decimal}
FMAT,2
INCH,TZ
T1C0.0315
T2C0.0354
T3C0.0394
%
G90
G05
M72
T1
X4.39Y-3.595
X4.69Y-3.595
T2
X4.39Y-3.22
X4.49Y-3.22
T3
X7.275Y-3.61
X7.375Y-3.61
X4.705Y-3.76
X4.705Y-3.86
X4.805Y-3.76
X4.805Y-3.86
X4.905Y-3.76
X4.905Y-3.86
X5.005Y-3.76
X5.005Y-3.86
X5.105Y-3.76
X5.105Y-3.86
X5.205Y-3.76
X5.205Y-3.86
X5.305Y-3.76
X5.305Y-3.86
X5.405Y-3.76
X5.405Y-3.86
X5.505Y-3.76
X5.505Y-3.86
X5.605Y-3.76
X5.605Y-3.86
X5.705Y-3.76
X5.705Y-3.86
X5.805Y-3.76
X5.805Y-3.86
X5.905Y-3.76
X5.905Y-3.86
X6.005Y-3.76
X6.005Y-3.86
X6.105Y-3.76
X6.105Y-3.86
X6.205Y-3.76
X6.205Y-3.86
X6.305Y-3.76
X6.305Y-3.86
X6.405Y-3.76
X6.405Y-3.86
X6.505Y-3.76
X6.505Y-3.86
X6.605Y-3.76
X6.605Y-3.86
X6.705Y-3.76
X6.705Y-3.86
X6.805Y-3.76
X6.805Y-3.86
X6.905Y-3.76
X6.905Y-3.86
X7.005Y-3.76
X7.005Y-3.86
X7.105Y-3.76
X7.105Y-3.86
T0
M30
