G04 #@! TF.GenerationSoftware,KiCad,Pcbnew,(5.0.1-3-g963ef8bb5)*
G04 #@! TF.CreationDate,2020-10-05T19:50:21+01:00*
G04 #@! TF.ProjectId,ACE_Backplane_Adaptor_B,4143455F4261636B706C616E655F4164,rev?*
G04 #@! TF.SameCoordinates,Original*
G04 #@! TF.FileFunction,Profile,NP*
%FSLAX46Y46*%
G04 Gerber Fmt 4.6, Leading zero omitted, Abs format (unit mm)*
G04 Created by KiCad (PCBNEW (5.0.1-3-g963ef8bb5)) date Monday, 05 October 2020 at 19:50:21*
%MOMM*%
%LPD*%
G01*
G04 APERTURE LIST*
%ADD10C,0.200000*%
%ADD11C,0.150000*%
G04 APERTURE END LIST*
D10*
X188994000Y-86556184D02*
G75*
G03X188994000Y-86556184I-2050000J0D01*
G01*
X115131017Y-86746979D02*
G75*
G03X115131017Y-86746979I-2050000J0D01*
G01*
X188994000Y-97137000D02*
G75*
G03X188994000Y-97137000I-2050000J0D01*
G01*
X115131017Y-97196979D02*
G75*
G03X115131017Y-97196979I-2050000J0D01*
G01*
D11*
X109474000Y-99822000D02*
X109474000Y-78740000D01*
X109474000Y-99822000D02*
G75*
G03X109870634Y-100330000I523634J0D01*
G01*
X189738000Y-100330000D02*
G75*
G03X190246000Y-99822000I0J508000D01*
G01*
X109982000Y-78232000D02*
X173863000Y-78232000D01*
X190246000Y-78740000D02*
G75*
G03X189738000Y-78232000I-508000J0D01*
G01*
X190246000Y-99822000D02*
X190246000Y-78740000D01*
X173856857Y-78232000D02*
G75*
G02X174364857Y-78740000I0J-508000D01*
G01*
X109855000Y-100330000D02*
X189738000Y-100330000D01*
X176523857Y-78740000D02*
G75*
G02X177031857Y-78232000I508000J0D01*
G01*
X109982000Y-78232000D02*
G75*
G03X109474000Y-78740000I0J-508000D01*
G01*
X177038000Y-78232000D02*
X189738000Y-78232000D01*
X176523857Y-86094102D02*
G75*
G02X176015857Y-86602102I-508000J0D01*
G01*
X174872857Y-86602102D02*
G75*
G02X174364857Y-86094102I0J508000D01*
G01*
X176015857Y-86602102D02*
X174872857Y-86602102D01*
X174364857Y-86094102D02*
X174364857Y-78728102D01*
X176523857Y-78728102D02*
X176523857Y-86094102D01*
M02*
