G04 #@! TF.GenerationSoftware,KiCad,Pcbnew,(5.0.1-3-g963ef8bb5)*
G04 #@! TF.CreationDate,2020-10-05T19:50:21+01:00*
G04 #@! TF.ProjectId,ACE_Backplane_Adaptor_B,4143455F4261636B706C616E655F4164,rev?*
G04 #@! TF.SameCoordinates,Original*
G04 #@! TF.FileFunction,Legend,Top*
G04 #@! TF.FilePolarity,Positive*
%FSLAX46Y46*%
G04 Gerber Fmt 4.6, Leading zero omitted, Abs format (unit mm)*
G04 Created by KiCad (PCBNEW (5.0.1-3-g963ef8bb5)) date Monday, 05 October 2020 at 19:50:21*
%MOMM*%
%LPD*%
G01*
G04 APERTURE LIST*
%ADD10C,0.200000*%
%ADD11C,0.125000*%
%ADD12C,0.250000*%
%ADD13C,0.120000*%
%ADD14C,0.150000*%
G04 APERTURE END LIST*
D10*
X118059905Y-95250000D02*
G75*
G03X118059905Y-95250000I-457905J0D01*
G01*
X117885981Y-95250000D02*
G75*
G03X117885981Y-95250000I-283981J0D01*
G01*
X117781605Y-95250000D02*
G75*
G03X117781605Y-95250000I-179605J0D01*
G01*
X117729000Y-95123000D02*
G75*
G03X117729000Y-95123000I-127000J0D01*
G01*
D11*
X111442666Y-79573380D02*
X111442666Y-78573380D01*
X111823619Y-78573380D01*
X111918857Y-78621000D01*
X111966476Y-78668619D01*
X112014095Y-78763857D01*
X112014095Y-78906714D01*
X111966476Y-79001952D01*
X111918857Y-79049571D01*
X111823619Y-79097190D01*
X111442666Y-79097190D01*
X112347428Y-78573380D02*
X112585523Y-79573380D01*
X112776000Y-78859095D01*
X112966476Y-79573380D01*
X113204571Y-78573380D01*
X114156952Y-79573380D02*
X113823619Y-79097190D01*
X113585523Y-79573380D02*
X113585523Y-78573380D01*
X113966476Y-78573380D01*
X114061714Y-78621000D01*
X114109333Y-78668619D01*
X114156952Y-78763857D01*
X114156952Y-78906714D01*
X114109333Y-79001952D01*
X114061714Y-79049571D01*
X113966476Y-79097190D01*
X113585523Y-79097190D01*
D12*
X178125428Y-88518952D02*
X178125428Y-87757047D01*
X171929000Y-89161809D02*
X171929000Y-88018952D01*
X172426380Y-89018952D02*
X173426380Y-88780857D01*
X172712095Y-88590380D01*
X173426380Y-88399904D01*
X172426380Y-88161809D01*
X171929000Y-88018952D02*
X171929000Y-87114190D01*
X172902571Y-87780857D02*
X172902571Y-87447523D01*
X173426380Y-87304666D02*
X173426380Y-87780857D01*
X172426380Y-87780857D01*
X172426380Y-87304666D01*
X170886380Y-88876095D02*
X169886380Y-88876095D01*
X169886380Y-88638000D01*
X169934000Y-88495142D01*
X170029238Y-88399904D01*
X170124476Y-88352285D01*
X170314952Y-88304666D01*
X170457809Y-88304666D01*
X170648285Y-88352285D01*
X170743523Y-88399904D01*
X170838761Y-88495142D01*
X170886380Y-88638000D01*
X170886380Y-88876095D01*
X169886380Y-87447523D02*
X169886380Y-87638000D01*
X169934000Y-87733238D01*
X169981619Y-87780857D01*
X170124476Y-87876095D01*
X170314952Y-87923714D01*
X170695904Y-87923714D01*
X170791142Y-87876095D01*
X170838761Y-87828476D01*
X170886380Y-87733238D01*
X170886380Y-87542761D01*
X170838761Y-87447523D01*
X170791142Y-87399904D01*
X170695904Y-87352285D01*
X170457809Y-87352285D01*
X170362571Y-87399904D01*
X170314952Y-87447523D01*
X170267333Y-87542761D01*
X170267333Y-87733238D01*
X170314952Y-87828476D01*
X170362571Y-87876095D01*
X170457809Y-87923714D01*
X168346380Y-88876095D02*
X167346380Y-88876095D01*
X167346380Y-88638000D01*
X167394000Y-88495142D01*
X167489238Y-88399904D01*
X167584476Y-88352285D01*
X167774952Y-88304666D01*
X167917809Y-88304666D01*
X168108285Y-88352285D01*
X168203523Y-88399904D01*
X168298761Y-88495142D01*
X168346380Y-88638000D01*
X168346380Y-88876095D01*
X168346380Y-87352285D02*
X168346380Y-87923714D01*
X168346380Y-87638000D02*
X167346380Y-87638000D01*
X167489238Y-87733238D01*
X167584476Y-87828476D01*
X167632095Y-87923714D01*
X165520666Y-88852285D02*
X165520666Y-88376095D01*
X165806380Y-88947523D02*
X164806380Y-88614190D01*
X165806380Y-88280857D01*
X164806380Y-87757047D02*
X164806380Y-87661809D01*
X164854000Y-87566571D01*
X164901619Y-87518952D01*
X164996857Y-87471333D01*
X165187333Y-87423714D01*
X165425428Y-87423714D01*
X165615904Y-87471333D01*
X165711142Y-87518952D01*
X165758761Y-87566571D01*
X165806380Y-87661809D01*
X165806380Y-87757047D01*
X165758761Y-87852285D01*
X165711142Y-87899904D01*
X165615904Y-87947523D01*
X165425428Y-87995142D01*
X165187333Y-87995142D01*
X164996857Y-87947523D01*
X164901619Y-87899904D01*
X164854000Y-87852285D01*
X164806380Y-87757047D01*
X162980666Y-88852285D02*
X162980666Y-88376095D01*
X163266380Y-88947523D02*
X162266380Y-88614190D01*
X163266380Y-88280857D01*
X162266380Y-88042761D02*
X162266380Y-87376095D01*
X163266380Y-87804666D01*
X160440666Y-88852285D02*
X160440666Y-88376095D01*
X160726380Y-88947523D02*
X159726380Y-88614190D01*
X160726380Y-88280857D01*
X160154952Y-87804666D02*
X160107333Y-87899904D01*
X160059714Y-87947523D01*
X159964476Y-87995142D01*
X159916857Y-87995142D01*
X159821619Y-87947523D01*
X159774000Y-87899904D01*
X159726380Y-87804666D01*
X159726380Y-87614190D01*
X159774000Y-87518952D01*
X159821619Y-87471333D01*
X159916857Y-87423714D01*
X159964476Y-87423714D01*
X160059714Y-87471333D01*
X160107333Y-87518952D01*
X160154952Y-87614190D01*
X160154952Y-87804666D01*
X160202571Y-87899904D01*
X160250190Y-87947523D01*
X160345428Y-87995142D01*
X160535904Y-87995142D01*
X160631142Y-87947523D01*
X160678761Y-87899904D01*
X160726380Y-87804666D01*
X160726380Y-87614190D01*
X160678761Y-87518952D01*
X160631142Y-87471333D01*
X160535904Y-87423714D01*
X160345428Y-87423714D01*
X160250190Y-87471333D01*
X160202571Y-87518952D01*
X160154952Y-87614190D01*
X157773666Y-88852285D02*
X157773666Y-88376095D01*
X158059380Y-88947523D02*
X157059380Y-88614190D01*
X158059380Y-88280857D01*
X158059380Y-87899904D02*
X158059380Y-87709428D01*
X158011761Y-87614190D01*
X157964142Y-87566571D01*
X157821285Y-87471333D01*
X157630809Y-87423714D01*
X157249857Y-87423714D01*
X157154619Y-87471333D01*
X157107000Y-87518952D01*
X157059380Y-87614190D01*
X157059380Y-87804666D01*
X157107000Y-87899904D01*
X157154619Y-87947523D01*
X157249857Y-87995142D01*
X157487952Y-87995142D01*
X157583190Y-87947523D01*
X157630809Y-87899904D01*
X157678428Y-87804666D01*
X157678428Y-87614190D01*
X157630809Y-87518952D01*
X157583190Y-87471333D01*
X157487952Y-87423714D01*
X155360666Y-89328476D02*
X155360666Y-88852285D01*
X155646380Y-89423714D02*
X154646380Y-89090380D01*
X155646380Y-88757047D01*
X155646380Y-87899904D02*
X155646380Y-88471333D01*
X155646380Y-88185619D02*
X154646380Y-88185619D01*
X154789238Y-88280857D01*
X154884476Y-88376095D01*
X154932095Y-88471333D01*
X154646380Y-87280857D02*
X154646380Y-87185619D01*
X154694000Y-87090380D01*
X154741619Y-87042761D01*
X154836857Y-86995142D01*
X155027333Y-86947523D01*
X155265428Y-86947523D01*
X155455904Y-86995142D01*
X155551142Y-87042761D01*
X155598761Y-87090380D01*
X155646380Y-87185619D01*
X155646380Y-87280857D01*
X155598761Y-87376095D01*
X155551142Y-87423714D01*
X155455904Y-87471333D01*
X155265428Y-87518952D01*
X155027333Y-87518952D01*
X154836857Y-87471333D01*
X154741619Y-87423714D01*
X154694000Y-87376095D01*
X154646380Y-87280857D01*
X152820666Y-88852285D02*
X152820666Y-88376095D01*
X153106380Y-88947523D02*
X152106380Y-88614190D01*
X153106380Y-88280857D01*
X152201619Y-87995142D02*
X152154000Y-87947523D01*
X152106380Y-87852285D01*
X152106380Y-87614190D01*
X152154000Y-87518952D01*
X152201619Y-87471333D01*
X152296857Y-87423714D01*
X152392095Y-87423714D01*
X152534952Y-87471333D01*
X153106380Y-88042761D01*
X153106380Y-87423714D01*
X150566380Y-88876095D02*
X149566380Y-88876095D01*
X149566380Y-88638000D01*
X149614000Y-88495142D01*
X149709238Y-88399904D01*
X149804476Y-88352285D01*
X149994952Y-88304666D01*
X150137809Y-88304666D01*
X150328285Y-88352285D01*
X150423523Y-88399904D01*
X150518761Y-88495142D01*
X150566380Y-88638000D01*
X150566380Y-88876095D01*
X149566380Y-87399904D02*
X149566380Y-87876095D01*
X150042571Y-87923714D01*
X149994952Y-87876095D01*
X149947333Y-87780857D01*
X149947333Y-87542761D01*
X149994952Y-87447523D01*
X150042571Y-87399904D01*
X150137809Y-87352285D01*
X150375904Y-87352285D01*
X150471142Y-87399904D01*
X150518761Y-87447523D01*
X150566380Y-87542761D01*
X150566380Y-87780857D01*
X150518761Y-87876095D01*
X150471142Y-87923714D01*
X147899380Y-88876095D02*
X146899380Y-88876095D01*
X146899380Y-88638000D01*
X146947000Y-88495142D01*
X147042238Y-88399904D01*
X147137476Y-88352285D01*
X147327952Y-88304666D01*
X147470809Y-88304666D01*
X147661285Y-88352285D01*
X147756523Y-88399904D01*
X147851761Y-88495142D01*
X147899380Y-88638000D01*
X147899380Y-88876095D01*
X146899380Y-87971333D02*
X146899380Y-87352285D01*
X147280333Y-87685619D01*
X147280333Y-87542761D01*
X147327952Y-87447523D01*
X147375571Y-87399904D01*
X147470809Y-87352285D01*
X147708904Y-87352285D01*
X147804142Y-87399904D01*
X147851761Y-87447523D01*
X147899380Y-87542761D01*
X147899380Y-87828476D01*
X147851761Y-87923714D01*
X147804142Y-87971333D01*
X145359380Y-88876095D02*
X144359380Y-88876095D01*
X144359380Y-88638000D01*
X144407000Y-88495142D01*
X144502238Y-88399904D01*
X144597476Y-88352285D01*
X144787952Y-88304666D01*
X144930809Y-88304666D01*
X145121285Y-88352285D01*
X145216523Y-88399904D01*
X145311761Y-88495142D01*
X145359380Y-88638000D01*
X145359380Y-88876095D01*
X144692714Y-87447523D02*
X145359380Y-87447523D01*
X144311761Y-87685619D02*
X145026047Y-87923714D01*
X145026047Y-87304666D01*
X142533666Y-89328476D02*
X142533666Y-88852285D01*
X142819380Y-89423714D02*
X141819380Y-89090380D01*
X142819380Y-88757047D01*
X142819380Y-87899904D02*
X142819380Y-88471333D01*
X142819380Y-88185619D02*
X141819380Y-88185619D01*
X141962238Y-88280857D01*
X142057476Y-88376095D01*
X142105095Y-88471333D01*
X141819380Y-86995142D02*
X141819380Y-87471333D01*
X142295571Y-87518952D01*
X142247952Y-87471333D01*
X142200333Y-87376095D01*
X142200333Y-87138000D01*
X142247952Y-87042761D01*
X142295571Y-86995142D01*
X142390809Y-86947523D01*
X142628904Y-86947523D01*
X142724142Y-86995142D01*
X142771761Y-87042761D01*
X142819380Y-87138000D01*
X142819380Y-87376095D01*
X142771761Y-87471333D01*
X142724142Y-87518952D01*
X140120666Y-89328476D02*
X140120666Y-88852285D01*
X140406380Y-89423714D02*
X139406380Y-89090380D01*
X140406380Y-88757047D01*
X140406380Y-87899904D02*
X140406380Y-88471333D01*
X140406380Y-88185619D02*
X139406380Y-88185619D01*
X139549238Y-88280857D01*
X139644476Y-88376095D01*
X139692095Y-88471333D01*
X139739714Y-87042761D02*
X140406380Y-87042761D01*
X139358761Y-87280857D02*
X140073047Y-87518952D01*
X140073047Y-86899904D01*
X137580666Y-89328476D02*
X137580666Y-88852285D01*
X137866380Y-89423714D02*
X136866380Y-89090380D01*
X137866380Y-88757047D01*
X137866380Y-87899904D02*
X137866380Y-88471333D01*
X137866380Y-88185619D02*
X136866380Y-88185619D01*
X137009238Y-88280857D01*
X137104476Y-88376095D01*
X137152095Y-88471333D01*
X136866380Y-87566571D02*
X136866380Y-86947523D01*
X137247333Y-87280857D01*
X137247333Y-87138000D01*
X137294952Y-87042761D01*
X137342571Y-86995142D01*
X137437809Y-86947523D01*
X137675904Y-86947523D01*
X137771142Y-86995142D01*
X137818761Y-87042761D01*
X137866380Y-87138000D01*
X137866380Y-87423714D01*
X137818761Y-87518952D01*
X137771142Y-87566571D01*
X135040666Y-89328476D02*
X135040666Y-88852285D01*
X135326380Y-89423714D02*
X134326380Y-89090380D01*
X135326380Y-88757047D01*
X135326380Y-87899904D02*
X135326380Y-88471333D01*
X135326380Y-88185619D02*
X134326380Y-88185619D01*
X134469238Y-88280857D01*
X134564476Y-88376095D01*
X134612095Y-88471333D01*
X134421619Y-87518952D02*
X134374000Y-87471333D01*
X134326380Y-87376095D01*
X134326380Y-87138000D01*
X134374000Y-87042761D01*
X134421619Y-86995142D01*
X134516857Y-86947523D01*
X134612095Y-86947523D01*
X134754952Y-86995142D01*
X135326380Y-87566571D01*
X135326380Y-86947523D01*
X132373666Y-89328476D02*
X132373666Y-88852285D01*
X132659380Y-89423714D02*
X131659380Y-89090380D01*
X132659380Y-88757047D01*
X132659380Y-87899904D02*
X132659380Y-88471333D01*
X132659380Y-88185619D02*
X131659380Y-88185619D01*
X131802238Y-88280857D01*
X131897476Y-88376095D01*
X131945095Y-88471333D01*
X132659380Y-86947523D02*
X132659380Y-87518952D01*
X132659380Y-87233238D02*
X131659380Y-87233238D01*
X131802238Y-87328476D01*
X131897476Y-87423714D01*
X131945095Y-87518952D01*
X130151142Y-88733238D02*
X130198761Y-88780857D01*
X130246380Y-88923714D01*
X130246380Y-89018952D01*
X130198761Y-89161809D01*
X130103523Y-89257047D01*
X130008285Y-89304666D01*
X129817809Y-89352285D01*
X129674952Y-89352285D01*
X129484476Y-89304666D01*
X129389238Y-89257047D01*
X129294000Y-89161809D01*
X129246380Y-89018952D01*
X129246380Y-88923714D01*
X129294000Y-88780857D01*
X129341619Y-88733238D01*
X130246380Y-87828476D02*
X130246380Y-88304666D01*
X129246380Y-88304666D01*
X130246380Y-87495142D02*
X129246380Y-87495142D01*
X130246380Y-86923714D02*
X129674952Y-87352285D01*
X129246380Y-86923714D02*
X129817809Y-87495142D01*
X127325428Y-89423714D02*
X127325428Y-88661809D01*
X127706380Y-89042761D02*
X126944476Y-89042761D01*
X126706380Y-87709428D02*
X126706380Y-88185619D01*
X127182571Y-88233238D01*
X127134952Y-88185619D01*
X127087333Y-88090380D01*
X127087333Y-87852285D01*
X127134952Y-87757047D01*
X127182571Y-87709428D01*
X127277809Y-87661809D01*
X127515904Y-87661809D01*
X127611142Y-87709428D01*
X127658761Y-87757047D01*
X127706380Y-87852285D01*
X127706380Y-88090380D01*
X127658761Y-88185619D01*
X127611142Y-88233238D01*
X126706380Y-87376095D02*
X127706380Y-87042761D01*
X126706380Y-86709428D01*
X124658428Y-89423714D02*
X124658428Y-88661809D01*
X125039380Y-89042761D02*
X124277476Y-89042761D01*
X125039380Y-88138000D02*
X125039380Y-87947523D01*
X124991761Y-87852285D01*
X124944142Y-87804666D01*
X124801285Y-87709428D01*
X124610809Y-87661809D01*
X124229857Y-87661809D01*
X124134619Y-87709428D01*
X124087000Y-87757047D01*
X124039380Y-87852285D01*
X124039380Y-88042761D01*
X124087000Y-88138000D01*
X124134619Y-88185619D01*
X124229857Y-88233238D01*
X124467952Y-88233238D01*
X124563190Y-88185619D01*
X124610809Y-88138000D01*
X124658428Y-88042761D01*
X124658428Y-87852285D01*
X124610809Y-87757047D01*
X124563190Y-87709428D01*
X124467952Y-87661809D01*
X124039380Y-87376095D02*
X125039380Y-87042761D01*
X124039380Y-86709428D01*
X121547000Y-88899904D02*
X121499380Y-88995142D01*
X121499380Y-89138000D01*
X121547000Y-89280857D01*
X121642238Y-89376095D01*
X121737476Y-89423714D01*
X121927952Y-89471333D01*
X122070809Y-89471333D01*
X122261285Y-89423714D01*
X122356523Y-89376095D01*
X122451761Y-89280857D01*
X122499380Y-89138000D01*
X122499380Y-89042761D01*
X122451761Y-88899904D01*
X122404142Y-88852285D01*
X122070809Y-88852285D01*
X122070809Y-89042761D01*
X122499380Y-88423714D02*
X121499380Y-88423714D01*
X122499380Y-87852285D01*
X121499380Y-87852285D01*
X122499380Y-87376095D02*
X121499380Y-87376095D01*
X121499380Y-87138000D01*
X121547000Y-86995142D01*
X121642238Y-86899904D01*
X121737476Y-86852285D01*
X121927952Y-86804666D01*
X122070809Y-86804666D01*
X122261285Y-86852285D01*
X122356523Y-86899904D01*
X122451761Y-86995142D01*
X122499380Y-87138000D01*
X122499380Y-87376095D01*
X119134000Y-88899904D02*
X119086380Y-88995142D01*
X119086380Y-89138000D01*
X119134000Y-89280857D01*
X119229238Y-89376095D01*
X119324476Y-89423714D01*
X119514952Y-89471333D01*
X119657809Y-89471333D01*
X119848285Y-89423714D01*
X119943523Y-89376095D01*
X120038761Y-89280857D01*
X120086380Y-89138000D01*
X120086380Y-89042761D01*
X120038761Y-88899904D01*
X119991142Y-88852285D01*
X119657809Y-88852285D01*
X119657809Y-89042761D01*
X120086380Y-88423714D02*
X119086380Y-88423714D01*
X120086380Y-87852285D01*
X119086380Y-87852285D01*
X120086380Y-87376095D02*
X119086380Y-87376095D01*
X119086380Y-87138000D01*
X119134000Y-86995142D01*
X119229238Y-86899904D01*
X119324476Y-86852285D01*
X119514952Y-86804666D01*
X119657809Y-86804666D01*
X119848285Y-86852285D01*
X119943523Y-86899904D01*
X120038761Y-86995142D01*
X120086380Y-87138000D01*
X120086380Y-87376095D01*
D11*
X183920095Y-93605500D02*
X184920095Y-93605500D01*
X184729619Y-94940380D02*
X184396285Y-94464190D01*
X184158190Y-94940380D02*
X184158190Y-93940380D01*
X184539142Y-93940380D01*
X184634380Y-93988000D01*
X184682000Y-94035619D01*
X184729619Y-94130857D01*
X184729619Y-94273714D01*
X184682000Y-94368952D01*
X184634380Y-94416571D01*
X184539142Y-94464190D01*
X184158190Y-94464190D01*
X184920095Y-93605500D02*
X185824857Y-93605500D01*
X185158190Y-94416571D02*
X185491523Y-94416571D01*
X185634380Y-94940380D02*
X185158190Y-94940380D01*
X185158190Y-93940380D01*
X185634380Y-93940380D01*
X185824857Y-93605500D02*
X186777238Y-93605500D01*
X186015333Y-94892761D02*
X186158190Y-94940380D01*
X186396285Y-94940380D01*
X186491523Y-94892761D01*
X186539142Y-94845142D01*
X186586761Y-94749904D01*
X186586761Y-94654666D01*
X186539142Y-94559428D01*
X186491523Y-94511809D01*
X186396285Y-94464190D01*
X186205809Y-94416571D01*
X186110571Y-94368952D01*
X186062952Y-94321333D01*
X186015333Y-94226095D01*
X186015333Y-94130857D01*
X186062952Y-94035619D01*
X186110571Y-93988000D01*
X186205809Y-93940380D01*
X186443904Y-93940380D01*
X186586761Y-93988000D01*
X186777238Y-93605500D02*
X187682000Y-93605500D01*
X187015333Y-94416571D02*
X187348666Y-94416571D01*
X187491523Y-94940380D02*
X187015333Y-94940380D01*
X187015333Y-93940380D01*
X187491523Y-93940380D01*
X187682000Y-93605500D02*
X188443904Y-93605500D01*
X187777238Y-93940380D02*
X188348666Y-93940380D01*
X188062952Y-94940380D02*
X188062952Y-93940380D01*
X134840238Y-91156333D02*
X135435476Y-91156333D01*
X134721190Y-91513476D02*
X135137857Y-90263476D01*
X135554523Y-91513476D01*
X136506904Y-91453952D02*
X136387857Y-91513476D01*
X136149761Y-91513476D01*
X136030714Y-91453952D01*
X135971190Y-91394428D01*
X135911666Y-91275380D01*
X135911666Y-90918238D01*
X135971190Y-90799190D01*
X136030714Y-90739666D01*
X136149761Y-90680142D01*
X136387857Y-90680142D01*
X136506904Y-90739666D01*
X137518809Y-91453952D02*
X137399761Y-91513476D01*
X137161666Y-91513476D01*
X137042619Y-91453952D01*
X136983095Y-91334904D01*
X136983095Y-90858714D01*
X137042619Y-90739666D01*
X137161666Y-90680142D01*
X137399761Y-90680142D01*
X137518809Y-90739666D01*
X137578333Y-90858714D01*
X137578333Y-90977761D01*
X136983095Y-91096809D01*
X139483095Y-90858714D02*
X139661666Y-90918238D01*
X139721190Y-90977761D01*
X139780714Y-91096809D01*
X139780714Y-91275380D01*
X139721190Y-91394428D01*
X139661666Y-91453952D01*
X139542619Y-91513476D01*
X139066428Y-91513476D01*
X139066428Y-90263476D01*
X139483095Y-90263476D01*
X139602142Y-90323000D01*
X139661666Y-90382523D01*
X139721190Y-90501571D01*
X139721190Y-90620619D01*
X139661666Y-90739666D01*
X139602142Y-90799190D01*
X139483095Y-90858714D01*
X139066428Y-90858714D01*
X140852142Y-90680142D02*
X140852142Y-91513476D01*
X140316428Y-90680142D02*
X140316428Y-91334904D01*
X140375952Y-91453952D01*
X140495000Y-91513476D01*
X140673571Y-91513476D01*
X140792619Y-91453952D01*
X140852142Y-91394428D01*
X141387857Y-91453952D02*
X141506904Y-91513476D01*
X141745000Y-91513476D01*
X141864047Y-91453952D01*
X141923571Y-91334904D01*
X141923571Y-91275380D01*
X141864047Y-91156333D01*
X141745000Y-91096809D01*
X141566428Y-91096809D01*
X141447380Y-91037285D01*
X141387857Y-90918238D01*
X141387857Y-90858714D01*
X141447380Y-90739666D01*
X141566428Y-90680142D01*
X141745000Y-90680142D01*
X141864047Y-90739666D01*
X143352142Y-91156333D02*
X143947380Y-91156333D01*
X143233095Y-91513476D02*
X143649761Y-90263476D01*
X144066428Y-91513476D01*
X145018809Y-91513476D02*
X145018809Y-90263476D01*
X145018809Y-91453952D02*
X144899761Y-91513476D01*
X144661666Y-91513476D01*
X144542619Y-91453952D01*
X144483095Y-91394428D01*
X144423571Y-91275380D01*
X144423571Y-90918238D01*
X144483095Y-90799190D01*
X144542619Y-90739666D01*
X144661666Y-90680142D01*
X144899761Y-90680142D01*
X145018809Y-90739666D01*
X146149761Y-91513476D02*
X146149761Y-90858714D01*
X146090238Y-90739666D01*
X145971190Y-90680142D01*
X145733095Y-90680142D01*
X145614047Y-90739666D01*
X146149761Y-91453952D02*
X146030714Y-91513476D01*
X145733095Y-91513476D01*
X145614047Y-91453952D01*
X145554523Y-91334904D01*
X145554523Y-91215857D01*
X145614047Y-91096809D01*
X145733095Y-91037285D01*
X146030714Y-91037285D01*
X146149761Y-90977761D01*
X146745000Y-90680142D02*
X146745000Y-91930142D01*
X146745000Y-90739666D02*
X146864047Y-90680142D01*
X147102142Y-90680142D01*
X147221190Y-90739666D01*
X147280714Y-90799190D01*
X147340238Y-90918238D01*
X147340238Y-91275380D01*
X147280714Y-91394428D01*
X147221190Y-91453952D01*
X147102142Y-91513476D01*
X146864047Y-91513476D01*
X146745000Y-91453952D01*
X147697380Y-90680142D02*
X148173571Y-90680142D01*
X147875952Y-90263476D02*
X147875952Y-91334904D01*
X147935476Y-91453952D01*
X148054523Y-91513476D01*
X148173571Y-91513476D01*
X148768809Y-91513476D02*
X148649761Y-91453952D01*
X148590238Y-91394428D01*
X148530714Y-91275380D01*
X148530714Y-90918238D01*
X148590238Y-90799190D01*
X148649761Y-90739666D01*
X148768809Y-90680142D01*
X148947380Y-90680142D01*
X149066428Y-90739666D01*
X149125952Y-90799190D01*
X149185476Y-90918238D01*
X149185476Y-91275380D01*
X149125952Y-91394428D01*
X149066428Y-91453952D01*
X148947380Y-91513476D01*
X148768809Y-91513476D01*
X149721190Y-91513476D02*
X149721190Y-90680142D01*
X149721190Y-90918238D02*
X149780714Y-90799190D01*
X149840238Y-90739666D01*
X149959285Y-90680142D01*
X150078333Y-90680142D01*
X151387857Y-90323000D02*
X151387857Y-90263476D01*
X151447380Y-90144428D01*
X151506904Y-90084904D01*
X152459285Y-90858714D02*
X152637857Y-90918238D01*
X152697380Y-90977761D01*
X152756904Y-91096809D01*
X152756904Y-91275380D01*
X152697380Y-91394428D01*
X152637857Y-91453952D01*
X152518809Y-91513476D01*
X152042619Y-91513476D01*
X152042619Y-90263476D01*
X152459285Y-90263476D01*
X152578333Y-90323000D01*
X152637857Y-90382523D01*
X152697380Y-90501571D01*
X152697380Y-90620619D01*
X152637857Y-90739666D01*
X152578333Y-90799190D01*
X152459285Y-90858714D01*
X152042619Y-90858714D01*
X153352142Y-90263476D02*
X153352142Y-90323000D01*
X153292619Y-90442047D01*
X153233095Y-90501571D01*
X153947380Y-91453952D02*
X153947380Y-91513476D01*
X153887857Y-91632523D01*
X153828333Y-91692047D01*
X155792619Y-91989666D02*
X155733095Y-91930142D01*
X155614047Y-91751571D01*
X155554523Y-91632523D01*
X155495000Y-91453952D01*
X155435476Y-91156333D01*
X155435476Y-90918238D01*
X155495000Y-90620619D01*
X155554523Y-90442047D01*
X155614047Y-90323000D01*
X155733095Y-90144428D01*
X155792619Y-90084904D01*
X156804523Y-91453952D02*
X156685476Y-91513476D01*
X156447380Y-91513476D01*
X156328333Y-91453952D01*
X156268809Y-91394428D01*
X156209285Y-91275380D01*
X156209285Y-90918238D01*
X156268809Y-90799190D01*
X156328333Y-90739666D01*
X156447380Y-90680142D01*
X156685476Y-90680142D01*
X156804523Y-90739666D01*
X157221190Y-91989666D02*
X157280714Y-91930142D01*
X157399761Y-91751571D01*
X157459285Y-91632523D01*
X157518809Y-91453952D01*
X157578333Y-91156333D01*
X157578333Y-90918238D01*
X157518809Y-90620619D01*
X157459285Y-90442047D01*
X157399761Y-90323000D01*
X157280714Y-90144428D01*
X157221190Y-90084904D01*
X159661666Y-91513476D02*
X159661666Y-90858714D01*
X159602142Y-90739666D01*
X159483095Y-90680142D01*
X159245000Y-90680142D01*
X159125952Y-90739666D01*
X159661666Y-91453952D02*
X159542619Y-91513476D01*
X159245000Y-91513476D01*
X159125952Y-91453952D01*
X159066428Y-91334904D01*
X159066428Y-91215857D01*
X159125952Y-91096809D01*
X159245000Y-91037285D01*
X159542619Y-91037285D01*
X159661666Y-90977761D01*
X160256904Y-90680142D02*
X160256904Y-91513476D01*
X160256904Y-90799190D02*
X160316428Y-90739666D01*
X160435476Y-90680142D01*
X160614047Y-90680142D01*
X160733095Y-90739666D01*
X160792619Y-90858714D01*
X160792619Y-91513476D01*
X161387857Y-91513476D02*
X161387857Y-90680142D01*
X161387857Y-90263476D02*
X161328333Y-90323000D01*
X161387857Y-90382523D01*
X161447380Y-90323000D01*
X161387857Y-90263476D01*
X161387857Y-90382523D01*
X162518809Y-90680142D02*
X162518809Y-91692047D01*
X162459285Y-91811095D01*
X162399761Y-91870619D01*
X162280714Y-91930142D01*
X162102142Y-91930142D01*
X161983095Y-91870619D01*
X162518809Y-91453952D02*
X162399761Y-91513476D01*
X162161666Y-91513476D01*
X162042619Y-91453952D01*
X161983095Y-91394428D01*
X161923571Y-91275380D01*
X161923571Y-90918238D01*
X161983095Y-90799190D01*
X162042619Y-90739666D01*
X162161666Y-90680142D01*
X162399761Y-90680142D01*
X162518809Y-90739666D01*
X163114047Y-91513476D02*
X163114047Y-90263476D01*
X163649761Y-91513476D02*
X163649761Y-90858714D01*
X163590238Y-90739666D01*
X163471190Y-90680142D01*
X163292619Y-90680142D01*
X163173571Y-90739666D01*
X163114047Y-90799190D01*
X164066428Y-90680142D02*
X164542619Y-90680142D01*
X164245000Y-90263476D02*
X164245000Y-91334904D01*
X164304523Y-91453952D01*
X164423571Y-91513476D01*
X164542619Y-91513476D01*
X164959285Y-91513476D02*
X164959285Y-90680142D01*
X164959285Y-90263476D02*
X164899761Y-90323000D01*
X164959285Y-90382523D01*
X165018809Y-90323000D01*
X164959285Y-90263476D01*
X164959285Y-90382523D01*
X165554523Y-90680142D02*
X165554523Y-91513476D01*
X165554523Y-90799190D02*
X165614047Y-90739666D01*
X165733095Y-90680142D01*
X165911666Y-90680142D01*
X166030714Y-90739666D01*
X166090238Y-90858714D01*
X166090238Y-91513476D01*
X142637857Y-92680142D02*
X142935476Y-93513476D01*
X143233095Y-92680142D01*
X143947380Y-92263476D02*
X144066428Y-92263476D01*
X144185476Y-92323000D01*
X144245000Y-92382523D01*
X144304523Y-92501571D01*
X144364047Y-92739666D01*
X144364047Y-93037285D01*
X144304523Y-93275380D01*
X144245000Y-93394428D01*
X144185476Y-93453952D01*
X144066428Y-93513476D01*
X143947380Y-93513476D01*
X143828333Y-93453952D01*
X143768809Y-93394428D01*
X143709285Y-93275380D01*
X143649761Y-93037285D01*
X143649761Y-92739666D01*
X143709285Y-92501571D01*
X143768809Y-92382523D01*
X143828333Y-92323000D01*
X143947380Y-92263476D01*
X145554523Y-93513476D02*
X144840238Y-93513476D01*
X145197380Y-93513476D02*
X145197380Y-92263476D01*
X145078333Y-92442047D01*
X144959285Y-92561095D01*
X144840238Y-92620619D01*
X146328333Y-92263476D02*
X146447380Y-92263476D01*
X146566428Y-92323000D01*
X146625952Y-92382523D01*
X146685476Y-92501571D01*
X146745000Y-92739666D01*
X146745000Y-93037285D01*
X146685476Y-93275380D01*
X146625952Y-93394428D01*
X146566428Y-93453952D01*
X146447380Y-93513476D01*
X146328333Y-93513476D01*
X146209285Y-93453952D01*
X146149761Y-93394428D01*
X146090238Y-93275380D01*
X146030714Y-93037285D01*
X146030714Y-92739666D01*
X146090238Y-92501571D01*
X146149761Y-92382523D01*
X146209285Y-92323000D01*
X146328333Y-92263476D01*
X147221190Y-92382523D02*
X147280714Y-92323000D01*
X147399761Y-92263476D01*
X147697380Y-92263476D01*
X147816428Y-92323000D01*
X147875952Y-92382523D01*
X147935476Y-92501571D01*
X147935476Y-92620619D01*
X147875952Y-92799190D01*
X147161666Y-93513476D01*
X147935476Y-93513476D01*
X148530714Y-93453952D02*
X148530714Y-93513476D01*
X148471190Y-93632523D01*
X148411666Y-93692047D01*
X150256904Y-92263476D02*
X150495000Y-92263476D01*
X150614047Y-92323000D01*
X150733095Y-92442047D01*
X150792619Y-92680142D01*
X150792619Y-93096809D01*
X150733095Y-93334904D01*
X150614047Y-93453952D01*
X150495000Y-93513476D01*
X150256904Y-93513476D01*
X150137857Y-93453952D01*
X150018809Y-93334904D01*
X149959285Y-93096809D01*
X149959285Y-92680142D01*
X150018809Y-92442047D01*
X150137857Y-92323000D01*
X150256904Y-92263476D01*
X151864047Y-93453952D02*
X151745000Y-93513476D01*
X151506904Y-93513476D01*
X151387857Y-93453952D01*
X151328333Y-93394428D01*
X151268809Y-93275380D01*
X151268809Y-92918238D01*
X151328333Y-92799190D01*
X151387857Y-92739666D01*
X151506904Y-92680142D01*
X151745000Y-92680142D01*
X151864047Y-92739666D01*
X152221190Y-92680142D02*
X152697380Y-92680142D01*
X152399761Y-92263476D02*
X152399761Y-93334904D01*
X152459285Y-93453952D01*
X152578333Y-93513476D01*
X152697380Y-93513476D01*
X154006904Y-92382523D02*
X154066428Y-92323000D01*
X154185476Y-92263476D01*
X154483095Y-92263476D01*
X154602142Y-92323000D01*
X154661666Y-92382523D01*
X154721190Y-92501571D01*
X154721190Y-92620619D01*
X154661666Y-92799190D01*
X153947380Y-93513476D01*
X154721190Y-93513476D01*
X155495000Y-92263476D02*
X155614047Y-92263476D01*
X155733095Y-92323000D01*
X155792619Y-92382523D01*
X155852142Y-92501571D01*
X155911666Y-92739666D01*
X155911666Y-93037285D01*
X155852142Y-93275380D01*
X155792619Y-93394428D01*
X155733095Y-93453952D01*
X155614047Y-93513476D01*
X155495000Y-93513476D01*
X155375952Y-93453952D01*
X155316428Y-93394428D01*
X155256904Y-93275380D01*
X155197380Y-93037285D01*
X155197380Y-92739666D01*
X155256904Y-92501571D01*
X155316428Y-92382523D01*
X155375952Y-92323000D01*
X155495000Y-92263476D01*
X156387857Y-92382523D02*
X156447380Y-92323000D01*
X156566428Y-92263476D01*
X156864047Y-92263476D01*
X156983095Y-92323000D01*
X157042619Y-92382523D01*
X157102142Y-92501571D01*
X157102142Y-92620619D01*
X157042619Y-92799190D01*
X156328333Y-93513476D01*
X157102142Y-93513476D01*
X157875952Y-92263476D02*
X157995000Y-92263476D01*
X158114047Y-92323000D01*
X158173571Y-92382523D01*
X158233095Y-92501571D01*
X158292619Y-92739666D01*
X158292619Y-93037285D01*
X158233095Y-93275380D01*
X158173571Y-93394428D01*
X158114047Y-93453952D01*
X157995000Y-93513476D01*
X157875952Y-93513476D01*
X157756904Y-93453952D01*
X157697380Y-93394428D01*
X157637857Y-93275380D01*
X157578333Y-93037285D01*
X157578333Y-92739666D01*
X157637857Y-92501571D01*
X157697380Y-92382523D01*
X157756904Y-92323000D01*
X157875952Y-92263476D01*
D13*
G04 #@! TO.C,J2*
X188655000Y-93024000D02*
X188655000Y-90364000D01*
X186055000Y-93024000D02*
X188655000Y-93024000D01*
X186055000Y-90364000D02*
X188655000Y-90364000D01*
X186055000Y-93024000D02*
X186055000Y-90364000D01*
X184785000Y-93024000D02*
X183455000Y-93024000D01*
X183455000Y-93024000D02*
X183455000Y-91694000D01*
D14*
G04 #@! TO.C,Z1*
X180467000Y-85979000D02*
X118237000Y-85979000D01*
X180467000Y-78359000D02*
X180467000Y-85979000D01*
X118237000Y-78359000D02*
X180467000Y-78359000D01*
X118237000Y-78359000D02*
X116967000Y-78359000D01*
X118237000Y-85979000D02*
X116967000Y-85979000D01*
X116967000Y-78359000D02*
X116967000Y-85979000D01*
D13*
G04 #@! TO.C,D1*
X111103665Y-82866608D02*
G75*
G03X114336000Y-83023516I1672335J1078608D01*
G01*
X111103665Y-80709392D02*
G75*
G02X114336000Y-80552484I1672335J-1078608D01*
G01*
X111734870Y-82867837D02*
G75*
G03X113816961Y-82868000I1041130J1079837D01*
G01*
X111734870Y-80708163D02*
G75*
G02X113816961Y-80708000I1041130J-1079837D01*
G01*
X114336000Y-83024000D02*
X114336000Y-82868000D01*
X114336000Y-80708000D02*
X114336000Y-80552000D01*
G04 #@! TO.C,R1*
X118586000Y-92353000D02*
X118586000Y-92683000D01*
X118586000Y-92683000D02*
X112046000Y-92683000D01*
X112046000Y-92683000D02*
X112046000Y-92353000D01*
X118586000Y-90273000D02*
X118586000Y-89943000D01*
X118586000Y-89943000D02*
X112046000Y-89943000D01*
X112046000Y-89943000D02*
X112046000Y-90273000D01*
D14*
G04 #@! TO.C,J1*
X181737000Y-94234000D02*
X118237000Y-94234000D01*
X181737000Y-99314000D02*
X181737000Y-94234000D01*
X118237000Y-99314000D02*
X181737000Y-99314000D01*
X118237000Y-94234000D02*
X118237000Y-99314000D01*
G04 #@! TO.C,J2*
X185721666Y-88733380D02*
X185721666Y-89447666D01*
X185674047Y-89590523D01*
X185578809Y-89685761D01*
X185435952Y-89733380D01*
X185340714Y-89733380D01*
X186150238Y-88828619D02*
X186197857Y-88781000D01*
X186293095Y-88733380D01*
X186531190Y-88733380D01*
X186626428Y-88781000D01*
X186674047Y-88828619D01*
X186721666Y-88923857D01*
X186721666Y-89019095D01*
X186674047Y-89161952D01*
X186102619Y-89733380D01*
X186721666Y-89733380D01*
G04 #@! TO.C,Z1*
X180800476Y-81748380D02*
X181467142Y-81748380D01*
X180800476Y-82748380D01*
X181467142Y-82748380D01*
X182371904Y-82748380D02*
X181800476Y-82748380D01*
X182086190Y-82748380D02*
X182086190Y-81748380D01*
X181990952Y-81891238D01*
X181895714Y-81986476D01*
X181800476Y-82034095D01*
G04 #@! TO.C,D1*
X115339904Y-82367380D02*
X115339904Y-81367380D01*
X115578000Y-81367380D01*
X115720857Y-81415000D01*
X115816095Y-81510238D01*
X115863714Y-81605476D01*
X115911333Y-81795952D01*
X115911333Y-81938809D01*
X115863714Y-82129285D01*
X115816095Y-82224523D01*
X115720857Y-82319761D01*
X115578000Y-82367380D01*
X115339904Y-82367380D01*
X116863714Y-82367380D02*
X116292285Y-82367380D01*
X116578000Y-82367380D02*
X116578000Y-81367380D01*
X116482761Y-81510238D01*
X116387523Y-81605476D01*
X116292285Y-81653095D01*
G04 #@! TO.C,R1*
X115149333Y-94135380D02*
X114816000Y-93659190D01*
X114577904Y-94135380D02*
X114577904Y-93135380D01*
X114958857Y-93135380D01*
X115054095Y-93183000D01*
X115101714Y-93230619D01*
X115149333Y-93325857D01*
X115149333Y-93468714D01*
X115101714Y-93563952D01*
X115054095Y-93611571D01*
X114958857Y-93659190D01*
X114577904Y-93659190D01*
X116101714Y-94135380D02*
X115530285Y-94135380D01*
X115816000Y-94135380D02*
X115816000Y-93135380D01*
X115720761Y-93278238D01*
X115625523Y-93373476D01*
X115530285Y-93421095D01*
G04 #@! TO.C,J1*
X148383666Y-96099380D02*
X148383666Y-96813666D01*
X148336047Y-96956523D01*
X148240809Y-97051761D01*
X148097952Y-97099380D01*
X148002714Y-97099380D01*
X149383666Y-97099380D02*
X148812238Y-97099380D01*
X149097952Y-97099380D02*
X149097952Y-96099380D01*
X149002714Y-96242238D01*
X148907476Y-96337476D01*
X148812238Y-96385095D01*
G04 #@! TD*
M02*
