M48
;DRILL file {KiCad (5.0.1-3-g963ef8bb5)} date Wednesday, 28 October 2020 at 20:52:03
;FORMAT={-:-/ absolute / inch / decimal}
FMAT,2
INCH,TZ
T1C0.0157
T2C0.0197
T3C0.0315
T4C0.0394
%
G90
G05
M72
T1
X3.82Y-2.765
X3.8457Y-4.085
X3.905Y-2.4
X3.91Y-2.875
X3.925Y-2.495
X3.945Y-2.685
X3.965Y-2.405
X4.Y-3.505
X4.05Y-2.58
X4.05Y-3.275
X4.05Y-3.555
X4.1087Y-2.435
X4.16Y-2.5385
X4.2013Y-2.49
X4.245Y-2.565
X4.245Y-2.8493
X4.258Y-3.085
X4.31Y-2.55
X4.39Y-2.68
X4.4013Y-2.435
X4.57Y-4.58
X4.585Y-3.78
X4.73Y-4.005
X4.73Y-4.115
X4.73Y-4.17
X4.73Y-4.225
X4.73Y-4.275
X4.825Y-2.495
X4.835Y-4.875
X4.8654Y-3.42
X4.89Y-2.45
X4.9Y-2.81
X4.9194Y-3.185
X4.92Y-2.9001
X4.92Y-2.985
X4.92Y-3.1316
X4.95Y-2.465
X4.985Y-3.735
X4.9854Y-3.54
X5.055Y-2.505
X5.1Y-2.55
X5.22Y-3.75
X5.23Y-3.1644
X5.23Y-3.52
X5.255Y-3.84
X5.28Y-2.54
X5.32Y-3.25
X5.36Y-2.425
X5.42Y-2.405
X5.45Y-4.015
X5.45Y-4.13
X5.47Y-2.485
X5.4845Y-3.63
X5.5Y-3.585
X5.5Y-4.695
X5.51Y-2.385
X5.51Y-3.19
X5.545Y-2.815
X5.555Y-2.5
X5.56Y-3.37
X5.565Y-3.485
X5.615Y-3.0343
X5.615Y-3.935
X5.63Y-3.61
X5.655Y-2.485
X5.675Y-2.74
X5.69Y-4.17
X5.73Y-2.7115
X5.73Y-2.77
X5.765Y-4.225
X5.775Y-2.485
X5.81Y-2.45
X5.83Y-4.4
X5.855Y-2.415
X5.905Y-2.695
X5.93Y-4.275
X5.9425Y-4.5125
X5.985Y-5.19
X6.Y-3.88
X6.0074Y-2.6874
X6.045Y-2.655
X6.09Y-2.63
X6.13Y-3.1457
X6.135Y-4.705
X6.235Y-2.68
X6.235Y-2.79
X6.29Y-2.435
X6.295Y-2.66
X6.295Y-3.44
X6.36Y-2.53
X6.39Y-2.405
X6.405Y-3.645
X6.415Y-3.785
X6.42Y-2.345
X6.455Y-2.69
X6.455Y-2.81
X6.47Y-4.415
X6.4727Y-3.135
X6.53Y-4.72
X6.57Y-3.24
X6.59Y-3.06
X6.595Y-3.715
X6.61Y-4.0385
X6.63Y-2.46
X6.63Y-3.805
X6.66Y-2.49
X6.66Y-2.49
X6.675Y-4.58
X6.675Y-4.725
X6.68Y-3.73
X6.685Y-2.535
X6.695Y-4.125
X6.715Y-4.0385
X6.7176Y-2.6
X6.74Y-3.545
X6.745Y-3.91
X6.745Y-4.42
X6.745Y-4.725
X6.755Y-4.01
X6.77Y-2.59
X6.785Y-4.16
X6.8Y-2.625
X6.805Y-4.115
X6.81Y-3.975
X6.81Y-4.58
X6.81Y-4.725
X6.855Y-2.365
X6.865Y-4.58
X6.865Y-4.725
X6.87Y-2.6
X6.875Y-4.01
X6.905Y-3.855
X6.91Y-3.465
X6.91Y-3.55
X6.915Y-3.365
X6.9325Y-4.72
X6.935Y-5.095
X6.945Y-3.645
X6.955Y-3.495
X7.Y-2.615
X7.Y-3.015
X7.Y-3.265
X7.015Y-3.3977
X7.0313Y-3.3187
X7.0365Y-4.0385
X7.09Y-4.7187
X7.09Y-4.84
X7.11Y-2.515
X7.1475Y-3.8175
X7.205Y-2.425
X7.2573Y-2.1523
X7.305Y-2.345
X7.375Y-2.47
T2
X3.8Y-3.88
X3.8683Y-2.655
X4.13Y-2.655
X5.17Y-2.85
X5.23Y-4.53
X5.23Y-5.195
X5.545Y-2.935
X5.635Y-4.105
X5.96Y-5.315
X5.975Y-4.755
X6.125Y-3.
X6.24Y-4.99
X6.38Y-3.905
X6.42Y-2.9885
X6.4244Y-3.12
X6.505Y-5.21
X6.755Y-2.985
X6.815Y-2.43
T3
X5.125Y-2.7815
X5.3219Y-2.7815
X3.89Y-2.985
X3.89Y-3.085
X3.89Y-3.185
X3.89Y-3.285
X3.89Y-3.385
X3.89Y-3.485
X3.89Y-3.585
X3.89Y-3.685
X3.89Y-3.785
X3.89Y-3.885
X4.19Y-2.985
X4.19Y-3.085
X4.19Y-3.185
X4.19Y-3.285
X4.19Y-3.385
X4.19Y-3.485
X4.19Y-3.585
X4.19Y-3.685
X4.19Y-3.785
X4.19Y-3.885
X5.9631Y-2.7815
X6.16Y-2.7815
X3.935Y-2.7815
X4.1319Y-2.7815
X6.52Y-2.99
X6.52Y-3.09
X6.52Y-3.19
X6.52Y-3.29
X6.52Y-3.39
X6.52Y-3.49
X6.52Y-3.59
X6.52Y-3.69
X6.52Y-3.79
X6.52Y-3.89
X6.82Y-2.99
X6.82Y-3.09
X6.82Y-3.19
X6.82Y-3.29
X6.82Y-3.39
X6.82Y-3.49
X6.82Y-3.59
X6.82Y-3.69
X6.82Y-3.79
X6.82Y-3.89
X5.91Y-2.99
X5.91Y-3.09
X5.91Y-3.19
X5.91Y-3.29
X5.91Y-3.39
X5.91Y-3.49
X5.91Y-3.59
X5.91Y-3.69
X5.91Y-3.79
X5.91Y-3.89
X6.21Y-2.99
X6.21Y-3.09
X6.21Y-3.19
X6.21Y-3.29
X6.21Y-3.39
X6.21Y-3.49
X6.21Y-3.59
X6.21Y-3.69
X6.21Y-3.79
X6.21Y-3.89
X5.4881Y-4.4
X5.685Y-4.4
X4.78Y-2.8001
X4.78Y-2.9001
X4.78Y-3.0001
X4.78Y-3.1001
X4.78Y-3.2001
X4.78Y-3.3001
X4.78Y-3.4001
X4.78Y-3.5001
X4.22Y-4.46
X4.62Y-4.46
X4.56Y-2.8001
X4.56Y-2.9001
X4.56Y-3.0001
X4.56Y-3.1001
X4.56Y-3.2001
X4.56Y-3.3001
X4.56Y-3.4001
X4.56Y-3.5001
X6.565Y-2.7815
X6.7619Y-2.7815
X5.085Y-2.985
X5.085Y-3.085
X5.085Y-3.185
X5.085Y-3.285
X5.085Y-3.385
X5.085Y-3.485
X5.085Y-3.585
X5.085Y-3.685
X5.085Y-3.785
X5.085Y-3.885
X5.385Y-2.985
X5.385Y-3.085
X5.385Y-3.185
X5.385Y-3.285
X5.385Y-3.385
X5.385Y-3.485
X5.385Y-3.585
X5.385Y-3.685
X5.385Y-3.785
X5.385Y-3.885
X4.75Y-4.595
X4.75Y-4.695
X4.75Y-4.795
X4.75Y-4.895
X4.75Y-4.995
X4.75Y-5.095
X4.75Y-5.195
X5.05Y-4.595
X5.05Y-4.695
X5.05Y-4.795
X5.05Y-4.895
X5.05Y-4.995
X5.05Y-5.095
X5.05Y-5.195
X5.425Y-4.59
X5.425Y-4.69
X5.425Y-4.79
X5.425Y-4.89
X5.425Y-4.99
X5.425Y-5.09
X5.425Y-5.19
X5.725Y-4.59
X5.725Y-4.69
X5.725Y-4.79
X5.725Y-4.89
X5.725Y-4.99
X5.725Y-5.09
X5.725Y-5.19
X4.81Y-4.395
X5.0069Y-4.395
T4
X7.205Y-2.565
X7.205Y-2.665
X7.205Y-2.765
X7.205Y-2.865
X7.205Y-2.965
X7.205Y-3.065
X7.205Y-3.165
X7.205Y-3.265
X7.205Y-3.365
X7.205Y-3.465
X7.205Y-3.565
X7.205Y-3.665
X7.205Y-3.765
X7.205Y-3.865
X7.205Y-3.965
X7.205Y-4.065
X7.205Y-4.165
X7.205Y-4.265
X7.205Y-4.365
X7.205Y-4.465
X7.205Y-4.565
X7.205Y-4.665
X7.205Y-4.765
X7.205Y-4.865
X7.205Y-4.965
X7.305Y-2.565
X7.305Y-2.665
X7.305Y-2.765
X7.305Y-2.865
X7.305Y-2.965
X7.305Y-3.065
X7.305Y-3.165
X7.305Y-3.265
X7.305Y-3.365
X7.305Y-3.465
X7.305Y-3.565
X7.305Y-3.665
X7.305Y-3.765
X7.305Y-3.865
X7.305Y-3.965
X7.305Y-4.065
X7.305Y-4.165
X7.305Y-4.265
X7.305Y-4.365
X7.305Y-4.465
X7.305Y-4.565
X7.305Y-4.665
X7.305Y-4.765
X7.305Y-4.865
X7.305Y-4.965
X3.855Y-2.22
X3.855Y-2.32
X3.955Y-2.22
X3.955Y-2.32
X4.055Y-2.22
X4.055Y-2.32
X4.155Y-2.22
X4.155Y-2.32
X4.255Y-2.22
X4.255Y-2.32
X4.355Y-2.22
X4.355Y-2.32
X4.455Y-2.22
X4.455Y-2.32
X4.555Y-2.22
X4.555Y-2.32
X4.655Y-2.22
X4.655Y-2.32
X4.755Y-2.22
X4.755Y-2.32
X4.855Y-2.22
X4.855Y-2.32
X4.955Y-2.22
X4.955Y-2.32
X5.055Y-2.22
X5.055Y-2.32
X5.155Y-2.22
X5.155Y-2.32
X5.255Y-2.22
X5.255Y-2.32
X5.355Y-2.22
X5.355Y-2.32
X5.455Y-2.22
X5.455Y-2.32
X5.555Y-2.22
X5.555Y-2.32
X5.655Y-2.22
X5.655Y-2.32
X5.755Y-2.22
X5.755Y-2.32
X5.855Y-2.22
X5.855Y-2.32
X5.955Y-2.22
X5.955Y-2.32
X6.055Y-2.22
X6.055Y-2.32
X6.155Y-2.22
X6.155Y-2.32
X6.255Y-2.22
X6.255Y-2.32
T0
M30
