M48
;DRILL file {KiCad (5.0.1-3-g963ef8bb5)} date Tuesday, 13 October 2020 at 22:01:50
;FORMAT={-:-/ absolute / inch / decimal}
FMAT,2
INCH,TZ
T1C0.0394
%
G90
G05
M72
T1
X4.65Y-3.44
X4.65Y-3.54
X4.75Y-3.44
X4.75Y-3.54
X4.85Y-3.44
X4.85Y-3.54
X4.95Y-3.44
X4.95Y-3.54
X5.05Y-3.44
X5.05Y-3.54
X5.15Y-3.44
X5.15Y-3.54
X5.25Y-3.44
X5.25Y-3.54
X5.35Y-3.44
X5.35Y-3.54
X5.45Y-3.44
X5.45Y-3.54
X5.55Y-3.44
X5.55Y-3.54
X5.65Y-3.44
X5.65Y-3.54
X5.75Y-3.44
X5.75Y-3.54
X5.85Y-3.44
X5.85Y-3.54
X5.95Y-3.44
X5.95Y-3.54
X6.05Y-3.44
X6.05Y-3.54
X6.15Y-3.44
X6.15Y-3.54
X6.25Y-3.44
X6.25Y-3.54
X6.35Y-3.44
X6.35Y-3.54
X6.45Y-3.44
X6.45Y-3.54
X6.55Y-3.44
X6.55Y-3.54
X6.65Y-3.44
X6.65Y-3.54
X6.75Y-3.44
X6.75Y-3.54
X6.85Y-3.44
X6.85Y-3.54
X6.95Y-3.44
X6.95Y-3.54
X7.05Y-3.44
X7.05Y-3.54
X4.405Y-3.44
X4.405Y-3.54
T0
M30
