G04 #@! TF.GenerationSoftware,KiCad,Pcbnew,(5.0.1-3-g963ef8bb5)*
G04 #@! TF.CreationDate,2020-10-13T22:01:46+01:00*
G04 #@! TF.ProjectId,ACE_Backplane_Adaptor,4143455F4261636B706C616E655F4164,rev?*
G04 #@! TF.SameCoordinates,Original*
G04 #@! TF.FileFunction,Soldermask,Top*
G04 #@! TF.FilePolarity,Negative*
%FSLAX46Y46*%
G04 Gerber Fmt 4.6, Leading zero omitted, Abs format (unit mm)*
G04 Created by KiCad (PCBNEW (5.0.1-3-g963ef8bb5)) date Tuesday, 13 October 2020 at 22:01:46*
%MOMM*%
%LPD*%
G01*
G04 APERTURE LIST*
%ADD10C,0.100000*%
G04 APERTURE END LIST*
D10*
G36*
X177418001Y-99844001D02*
X175792001Y-99844001D01*
X175792001Y-92122001D01*
X177418001Y-92122001D01*
X177418001Y-99844001D01*
X177418001Y-99844001D01*
G37*
G36*
X172338001Y-99844001D02*
X170712001Y-99844001D01*
X170712001Y-92122001D01*
X172338001Y-92122001D01*
X172338001Y-99844001D01*
X172338001Y-99844001D01*
G37*
G36*
X169798001Y-99844001D02*
X168172001Y-99844001D01*
X168172001Y-92122001D01*
X169798001Y-92122001D01*
X169798001Y-99844001D01*
X169798001Y-99844001D01*
G37*
G36*
X167258001Y-99844001D02*
X165632001Y-99844001D01*
X165632001Y-92122001D01*
X167258001Y-92122001D01*
X167258001Y-99844001D01*
X167258001Y-99844001D01*
G37*
G36*
X164718001Y-99844001D02*
X163092001Y-99844001D01*
X163092001Y-92122001D01*
X164718001Y-92122001D01*
X164718001Y-99844001D01*
X164718001Y-99844001D01*
G37*
G36*
X162178001Y-99844001D02*
X160552001Y-99844001D01*
X160552001Y-92122001D01*
X162178001Y-92122001D01*
X162178001Y-99844001D01*
X162178001Y-99844001D01*
G37*
G36*
X159638001Y-99844001D02*
X158012001Y-99844001D01*
X158012001Y-92122001D01*
X159638001Y-92122001D01*
X159638001Y-99844001D01*
X159638001Y-99844001D01*
G37*
G36*
X157098001Y-99844001D02*
X155472001Y-99844001D01*
X155472001Y-92122001D01*
X157098001Y-92122001D01*
X157098001Y-99844001D01*
X157098001Y-99844001D01*
G37*
G36*
X154558001Y-99844001D02*
X152932001Y-99844001D01*
X152932001Y-92122001D01*
X154558001Y-92122001D01*
X154558001Y-99844001D01*
X154558001Y-99844001D01*
G37*
G36*
X152018001Y-99844001D02*
X150392001Y-99844001D01*
X150392001Y-92122001D01*
X152018001Y-92122001D01*
X152018001Y-99844001D01*
X152018001Y-99844001D01*
G37*
G36*
X149478001Y-99844001D02*
X147852001Y-99844001D01*
X147852001Y-92122001D01*
X149478001Y-92122001D01*
X149478001Y-99844001D01*
X149478001Y-99844001D01*
G37*
G36*
X146938001Y-99844001D02*
X145312001Y-99844001D01*
X145312001Y-92122001D01*
X146938001Y-92122001D01*
X146938001Y-99844001D01*
X146938001Y-99844001D01*
G37*
G36*
X144398001Y-99844001D02*
X142772001Y-99844001D01*
X142772001Y-92122001D01*
X144398001Y-92122001D01*
X144398001Y-99844001D01*
X144398001Y-99844001D01*
G37*
G36*
X141858001Y-99844001D02*
X140232001Y-99844001D01*
X140232001Y-92122001D01*
X141858001Y-92122001D01*
X141858001Y-99844001D01*
X141858001Y-99844001D01*
G37*
G36*
X139318001Y-99844001D02*
X137692001Y-99844001D01*
X137692001Y-92122001D01*
X139318001Y-92122001D01*
X139318001Y-99844001D01*
X139318001Y-99844001D01*
G37*
G36*
X136778001Y-99844001D02*
X135152001Y-99844001D01*
X135152001Y-92122001D01*
X136778001Y-92122001D01*
X136778001Y-99844001D01*
X136778001Y-99844001D01*
G37*
G36*
X134238001Y-99844001D02*
X132612001Y-99844001D01*
X132612001Y-92122001D01*
X134238001Y-92122001D01*
X134238001Y-99844001D01*
X134238001Y-99844001D01*
G37*
G36*
X131698001Y-99844001D02*
X130072001Y-99844001D01*
X130072001Y-92122001D01*
X131698001Y-92122001D01*
X131698001Y-99844001D01*
X131698001Y-99844001D01*
G37*
G36*
X129158001Y-99844001D02*
X127532001Y-99844001D01*
X127532001Y-92122001D01*
X129158001Y-92122001D01*
X129158001Y-99844001D01*
X129158001Y-99844001D01*
G37*
G36*
X126618001Y-99844001D02*
X124992001Y-99844001D01*
X124992001Y-92122001D01*
X126618001Y-92122001D01*
X126618001Y-99844001D01*
X126618001Y-99844001D01*
G37*
G36*
X124078001Y-99844001D02*
X122452001Y-99844001D01*
X122452001Y-92122001D01*
X124078001Y-92122001D01*
X124078001Y-99844001D01*
X124078001Y-99844001D01*
G37*
G36*
X121538001Y-99844001D02*
X119912001Y-99844001D01*
X119912001Y-92122001D01*
X121538001Y-92122001D01*
X121538001Y-99844001D01*
X121538001Y-99844001D01*
G37*
G36*
X118998001Y-99844001D02*
X117372001Y-99844001D01*
X117372001Y-92122001D01*
X118998001Y-92122001D01*
X118998001Y-99844001D01*
X118998001Y-99844001D01*
G37*
G36*
X120912812Y-89049624D02*
X121076784Y-89117544D01*
X121224354Y-89216147D01*
X121349853Y-89341646D01*
X121448456Y-89489216D01*
X121516376Y-89653188D01*
X121551000Y-89827259D01*
X121551000Y-90004741D01*
X121516376Y-90178812D01*
X121448456Y-90342784D01*
X121349853Y-90490354D01*
X121224354Y-90615853D01*
X121076784Y-90714456D01*
X120912812Y-90782376D01*
X120738741Y-90817000D01*
X120561259Y-90817000D01*
X120387188Y-90782376D01*
X120223216Y-90714456D01*
X120075646Y-90615853D01*
X119950147Y-90490354D01*
X119851544Y-90342784D01*
X119783624Y-90178812D01*
X119749000Y-90004741D01*
X119749000Y-89827259D01*
X119783624Y-89653188D01*
X119851544Y-89489216D01*
X119950147Y-89341646D01*
X120075646Y-89216147D01*
X120223216Y-89117544D01*
X120387188Y-89049624D01*
X120561259Y-89015000D01*
X120738741Y-89015000D01*
X120912812Y-89049624D01*
X120912812Y-89049624D01*
G37*
G36*
X118372812Y-89049624D02*
X118536784Y-89117544D01*
X118684354Y-89216147D01*
X118809853Y-89341646D01*
X118908456Y-89489216D01*
X118976376Y-89653188D01*
X119011000Y-89827259D01*
X119011000Y-90004741D01*
X118976376Y-90178812D01*
X118908456Y-90342784D01*
X118809853Y-90490354D01*
X118684354Y-90615853D01*
X118536784Y-90714456D01*
X118372812Y-90782376D01*
X118198741Y-90817000D01*
X118021259Y-90817000D01*
X117847188Y-90782376D01*
X117683216Y-90714456D01*
X117535646Y-90615853D01*
X117410147Y-90490354D01*
X117311544Y-90342784D01*
X117243624Y-90178812D01*
X117209000Y-90004741D01*
X117209000Y-89827259D01*
X117243624Y-89653188D01*
X117311544Y-89489216D01*
X117410147Y-89341646D01*
X117535646Y-89216147D01*
X117683216Y-89117544D01*
X117847188Y-89049624D01*
X118021259Y-89015000D01*
X118198741Y-89015000D01*
X118372812Y-89049624D01*
X118372812Y-89049624D01*
G37*
G36*
X111997442Y-89021518D02*
X112063627Y-89028037D01*
X112176853Y-89062384D01*
X112233467Y-89079557D01*
X112372087Y-89153652D01*
X112389991Y-89163222D01*
X112425729Y-89192552D01*
X112527186Y-89275814D01*
X112610448Y-89377271D01*
X112639778Y-89413009D01*
X112639779Y-89413011D01*
X112723443Y-89569533D01*
X112723443Y-89569534D01*
X112774963Y-89739373D01*
X112792359Y-89916000D01*
X112774963Y-90092627D01*
X112748819Y-90178812D01*
X112723443Y-90262467D01*
X112680513Y-90342782D01*
X112639778Y-90418991D01*
X112610448Y-90454729D01*
X112527186Y-90556186D01*
X112454480Y-90615853D01*
X112389991Y-90668778D01*
X112389989Y-90668779D01*
X112233467Y-90752443D01*
X112176853Y-90769616D01*
X112063627Y-90803963D01*
X111997443Y-90810481D01*
X111931260Y-90817000D01*
X111842740Y-90817000D01*
X111776557Y-90810481D01*
X111710373Y-90803963D01*
X111597147Y-90769616D01*
X111540533Y-90752443D01*
X111384011Y-90668779D01*
X111384009Y-90668778D01*
X111319520Y-90615853D01*
X111246814Y-90556186D01*
X111163552Y-90454729D01*
X111134222Y-90418991D01*
X111093487Y-90342782D01*
X111050557Y-90262467D01*
X111025181Y-90178812D01*
X110999037Y-90092627D01*
X110981641Y-89916000D01*
X110999037Y-89739373D01*
X111050557Y-89569534D01*
X111050557Y-89569533D01*
X111134221Y-89413011D01*
X111134222Y-89413009D01*
X111163552Y-89377271D01*
X111246814Y-89275814D01*
X111348271Y-89192552D01*
X111384009Y-89163222D01*
X111401913Y-89153652D01*
X111540533Y-89079557D01*
X111597147Y-89062384D01*
X111710373Y-89028037D01*
X111776558Y-89021518D01*
X111842740Y-89015000D01*
X111931260Y-89015000D01*
X111997442Y-89021518D01*
X111997442Y-89021518D01*
G37*
G36*
X151392812Y-89049624D02*
X151556784Y-89117544D01*
X151704354Y-89216147D01*
X151829853Y-89341646D01*
X151928456Y-89489216D01*
X151996376Y-89653188D01*
X152031000Y-89827259D01*
X152031000Y-90004741D01*
X151996376Y-90178812D01*
X151928456Y-90342784D01*
X151829853Y-90490354D01*
X151704354Y-90615853D01*
X151556784Y-90714456D01*
X151392812Y-90782376D01*
X151218741Y-90817000D01*
X151041259Y-90817000D01*
X150867188Y-90782376D01*
X150703216Y-90714456D01*
X150555646Y-90615853D01*
X150430147Y-90490354D01*
X150331544Y-90342784D01*
X150263624Y-90178812D01*
X150229000Y-90004741D01*
X150229000Y-89827259D01*
X150263624Y-89653188D01*
X150331544Y-89489216D01*
X150430147Y-89341646D01*
X150555646Y-89216147D01*
X150703216Y-89117544D01*
X150867188Y-89049624D01*
X151041259Y-89015000D01*
X151218741Y-89015000D01*
X151392812Y-89049624D01*
X151392812Y-89049624D01*
G37*
G36*
X153932812Y-89049624D02*
X154096784Y-89117544D01*
X154244354Y-89216147D01*
X154369853Y-89341646D01*
X154468456Y-89489216D01*
X154536376Y-89653188D01*
X154571000Y-89827259D01*
X154571000Y-90004741D01*
X154536376Y-90178812D01*
X154468456Y-90342784D01*
X154369853Y-90490354D01*
X154244354Y-90615853D01*
X154096784Y-90714456D01*
X153932812Y-90782376D01*
X153758741Y-90817000D01*
X153581259Y-90817000D01*
X153407188Y-90782376D01*
X153243216Y-90714456D01*
X153095646Y-90615853D01*
X152970147Y-90490354D01*
X152871544Y-90342784D01*
X152803624Y-90178812D01*
X152769000Y-90004741D01*
X152769000Y-89827259D01*
X152803624Y-89653188D01*
X152871544Y-89489216D01*
X152970147Y-89341646D01*
X153095646Y-89216147D01*
X153243216Y-89117544D01*
X153407188Y-89049624D01*
X153581259Y-89015000D01*
X153758741Y-89015000D01*
X153932812Y-89049624D01*
X153932812Y-89049624D01*
G37*
G36*
X156472812Y-89049624D02*
X156636784Y-89117544D01*
X156784354Y-89216147D01*
X156909853Y-89341646D01*
X157008456Y-89489216D01*
X157076376Y-89653188D01*
X157111000Y-89827259D01*
X157111000Y-90004741D01*
X157076376Y-90178812D01*
X157008456Y-90342784D01*
X156909853Y-90490354D01*
X156784354Y-90615853D01*
X156636784Y-90714456D01*
X156472812Y-90782376D01*
X156298741Y-90817000D01*
X156121259Y-90817000D01*
X155947188Y-90782376D01*
X155783216Y-90714456D01*
X155635646Y-90615853D01*
X155510147Y-90490354D01*
X155411544Y-90342784D01*
X155343624Y-90178812D01*
X155309000Y-90004741D01*
X155309000Y-89827259D01*
X155343624Y-89653188D01*
X155411544Y-89489216D01*
X155510147Y-89341646D01*
X155635646Y-89216147D01*
X155783216Y-89117544D01*
X155947188Y-89049624D01*
X156121259Y-89015000D01*
X156298741Y-89015000D01*
X156472812Y-89049624D01*
X156472812Y-89049624D01*
G37*
G36*
X159012812Y-89049624D02*
X159176784Y-89117544D01*
X159324354Y-89216147D01*
X159449853Y-89341646D01*
X159548456Y-89489216D01*
X159616376Y-89653188D01*
X159651000Y-89827259D01*
X159651000Y-90004741D01*
X159616376Y-90178812D01*
X159548456Y-90342784D01*
X159449853Y-90490354D01*
X159324354Y-90615853D01*
X159176784Y-90714456D01*
X159012812Y-90782376D01*
X158838741Y-90817000D01*
X158661259Y-90817000D01*
X158487188Y-90782376D01*
X158323216Y-90714456D01*
X158175646Y-90615853D01*
X158050147Y-90490354D01*
X157951544Y-90342784D01*
X157883624Y-90178812D01*
X157849000Y-90004741D01*
X157849000Y-89827259D01*
X157883624Y-89653188D01*
X157951544Y-89489216D01*
X158050147Y-89341646D01*
X158175646Y-89216147D01*
X158323216Y-89117544D01*
X158487188Y-89049624D01*
X158661259Y-89015000D01*
X158838741Y-89015000D01*
X159012812Y-89049624D01*
X159012812Y-89049624D01*
G37*
G36*
X161552812Y-89049624D02*
X161716784Y-89117544D01*
X161864354Y-89216147D01*
X161989853Y-89341646D01*
X162088456Y-89489216D01*
X162156376Y-89653188D01*
X162191000Y-89827259D01*
X162191000Y-90004741D01*
X162156376Y-90178812D01*
X162088456Y-90342784D01*
X161989853Y-90490354D01*
X161864354Y-90615853D01*
X161716784Y-90714456D01*
X161552812Y-90782376D01*
X161378741Y-90817000D01*
X161201259Y-90817000D01*
X161027188Y-90782376D01*
X160863216Y-90714456D01*
X160715646Y-90615853D01*
X160590147Y-90490354D01*
X160491544Y-90342784D01*
X160423624Y-90178812D01*
X160389000Y-90004741D01*
X160389000Y-89827259D01*
X160423624Y-89653188D01*
X160491544Y-89489216D01*
X160590147Y-89341646D01*
X160715646Y-89216147D01*
X160863216Y-89117544D01*
X161027188Y-89049624D01*
X161201259Y-89015000D01*
X161378741Y-89015000D01*
X161552812Y-89049624D01*
X161552812Y-89049624D01*
G37*
G36*
X164092812Y-89049624D02*
X164256784Y-89117544D01*
X164404354Y-89216147D01*
X164529853Y-89341646D01*
X164628456Y-89489216D01*
X164696376Y-89653188D01*
X164731000Y-89827259D01*
X164731000Y-90004741D01*
X164696376Y-90178812D01*
X164628456Y-90342784D01*
X164529853Y-90490354D01*
X164404354Y-90615853D01*
X164256784Y-90714456D01*
X164092812Y-90782376D01*
X163918741Y-90817000D01*
X163741259Y-90817000D01*
X163567188Y-90782376D01*
X163403216Y-90714456D01*
X163255646Y-90615853D01*
X163130147Y-90490354D01*
X163031544Y-90342784D01*
X162963624Y-90178812D01*
X162929000Y-90004741D01*
X162929000Y-89827259D01*
X162963624Y-89653188D01*
X163031544Y-89489216D01*
X163130147Y-89341646D01*
X163255646Y-89216147D01*
X163403216Y-89117544D01*
X163567188Y-89049624D01*
X163741259Y-89015000D01*
X163918741Y-89015000D01*
X164092812Y-89049624D01*
X164092812Y-89049624D01*
G37*
G36*
X166632812Y-89049624D02*
X166796784Y-89117544D01*
X166944354Y-89216147D01*
X167069853Y-89341646D01*
X167168456Y-89489216D01*
X167236376Y-89653188D01*
X167271000Y-89827259D01*
X167271000Y-90004741D01*
X167236376Y-90178812D01*
X167168456Y-90342784D01*
X167069853Y-90490354D01*
X166944354Y-90615853D01*
X166796784Y-90714456D01*
X166632812Y-90782376D01*
X166458741Y-90817000D01*
X166281259Y-90817000D01*
X166107188Y-90782376D01*
X165943216Y-90714456D01*
X165795646Y-90615853D01*
X165670147Y-90490354D01*
X165571544Y-90342784D01*
X165503624Y-90178812D01*
X165469000Y-90004741D01*
X165469000Y-89827259D01*
X165503624Y-89653188D01*
X165571544Y-89489216D01*
X165670147Y-89341646D01*
X165795646Y-89216147D01*
X165943216Y-89117544D01*
X166107188Y-89049624D01*
X166281259Y-89015000D01*
X166458741Y-89015000D01*
X166632812Y-89049624D01*
X166632812Y-89049624D01*
G37*
G36*
X169172812Y-89049624D02*
X169336784Y-89117544D01*
X169484354Y-89216147D01*
X169609853Y-89341646D01*
X169708456Y-89489216D01*
X169776376Y-89653188D01*
X169811000Y-89827259D01*
X169811000Y-90004741D01*
X169776376Y-90178812D01*
X169708456Y-90342784D01*
X169609853Y-90490354D01*
X169484354Y-90615853D01*
X169336784Y-90714456D01*
X169172812Y-90782376D01*
X168998741Y-90817000D01*
X168821259Y-90817000D01*
X168647188Y-90782376D01*
X168483216Y-90714456D01*
X168335646Y-90615853D01*
X168210147Y-90490354D01*
X168111544Y-90342784D01*
X168043624Y-90178812D01*
X168009000Y-90004741D01*
X168009000Y-89827259D01*
X168043624Y-89653188D01*
X168111544Y-89489216D01*
X168210147Y-89341646D01*
X168335646Y-89216147D01*
X168483216Y-89117544D01*
X168647188Y-89049624D01*
X168821259Y-89015000D01*
X168998741Y-89015000D01*
X169172812Y-89049624D01*
X169172812Y-89049624D01*
G37*
G36*
X171712812Y-89049624D02*
X171876784Y-89117544D01*
X172024354Y-89216147D01*
X172149853Y-89341646D01*
X172248456Y-89489216D01*
X172316376Y-89653188D01*
X172351000Y-89827259D01*
X172351000Y-90004741D01*
X172316376Y-90178812D01*
X172248456Y-90342784D01*
X172149853Y-90490354D01*
X172024354Y-90615853D01*
X171876784Y-90714456D01*
X171712812Y-90782376D01*
X171538741Y-90817000D01*
X171361259Y-90817000D01*
X171187188Y-90782376D01*
X171023216Y-90714456D01*
X170875646Y-90615853D01*
X170750147Y-90490354D01*
X170651544Y-90342784D01*
X170583624Y-90178812D01*
X170549000Y-90004741D01*
X170549000Y-89827259D01*
X170583624Y-89653188D01*
X170651544Y-89489216D01*
X170750147Y-89341646D01*
X170875646Y-89216147D01*
X171023216Y-89117544D01*
X171187188Y-89049624D01*
X171361259Y-89015000D01*
X171538741Y-89015000D01*
X171712812Y-89049624D01*
X171712812Y-89049624D01*
G37*
G36*
X174252812Y-89049624D02*
X174416784Y-89117544D01*
X174564354Y-89216147D01*
X174689853Y-89341646D01*
X174788456Y-89489216D01*
X174856376Y-89653188D01*
X174891000Y-89827259D01*
X174891000Y-90004741D01*
X174856376Y-90178812D01*
X174788456Y-90342784D01*
X174689853Y-90490354D01*
X174564354Y-90615853D01*
X174416784Y-90714456D01*
X174252812Y-90782376D01*
X174078741Y-90817000D01*
X173901259Y-90817000D01*
X173727188Y-90782376D01*
X173563216Y-90714456D01*
X173415646Y-90615853D01*
X173290147Y-90490354D01*
X173191544Y-90342784D01*
X173123624Y-90178812D01*
X173089000Y-90004741D01*
X173089000Y-89827259D01*
X173123624Y-89653188D01*
X173191544Y-89489216D01*
X173290147Y-89341646D01*
X173415646Y-89216147D01*
X173563216Y-89117544D01*
X173727188Y-89049624D01*
X173901259Y-89015000D01*
X174078741Y-89015000D01*
X174252812Y-89049624D01*
X174252812Y-89049624D01*
G37*
G36*
X176792812Y-89049624D02*
X176956784Y-89117544D01*
X177104354Y-89216147D01*
X177229853Y-89341646D01*
X177328456Y-89489216D01*
X177396376Y-89653188D01*
X177431000Y-89827259D01*
X177431000Y-90004741D01*
X177396376Y-90178812D01*
X177328456Y-90342784D01*
X177229853Y-90490354D01*
X177104354Y-90615853D01*
X176956784Y-90714456D01*
X176792812Y-90782376D01*
X176618741Y-90817000D01*
X176441259Y-90817000D01*
X176267188Y-90782376D01*
X176103216Y-90714456D01*
X175955646Y-90615853D01*
X175830147Y-90490354D01*
X175731544Y-90342784D01*
X175663624Y-90178812D01*
X175629000Y-90004741D01*
X175629000Y-89827259D01*
X175663624Y-89653188D01*
X175731544Y-89489216D01*
X175830147Y-89341646D01*
X175955646Y-89216147D01*
X176103216Y-89117544D01*
X176267188Y-89049624D01*
X176441259Y-89015000D01*
X176618741Y-89015000D01*
X176792812Y-89049624D01*
X176792812Y-89049624D01*
G37*
G36*
X148852812Y-89049624D02*
X149016784Y-89117544D01*
X149164354Y-89216147D01*
X149289853Y-89341646D01*
X149388456Y-89489216D01*
X149456376Y-89653188D01*
X149491000Y-89827259D01*
X149491000Y-90004741D01*
X149456376Y-90178812D01*
X149388456Y-90342784D01*
X149289853Y-90490354D01*
X149164354Y-90615853D01*
X149016784Y-90714456D01*
X148852812Y-90782376D01*
X148678741Y-90817000D01*
X148501259Y-90817000D01*
X148327188Y-90782376D01*
X148163216Y-90714456D01*
X148015646Y-90615853D01*
X147890147Y-90490354D01*
X147791544Y-90342784D01*
X147723624Y-90178812D01*
X147689000Y-90004741D01*
X147689000Y-89827259D01*
X147723624Y-89653188D01*
X147791544Y-89489216D01*
X147890147Y-89341646D01*
X148015646Y-89216147D01*
X148163216Y-89117544D01*
X148327188Y-89049624D01*
X148501259Y-89015000D01*
X148678741Y-89015000D01*
X148852812Y-89049624D01*
X148852812Y-89049624D01*
G37*
G36*
X146312812Y-89049624D02*
X146476784Y-89117544D01*
X146624354Y-89216147D01*
X146749853Y-89341646D01*
X146848456Y-89489216D01*
X146916376Y-89653188D01*
X146951000Y-89827259D01*
X146951000Y-90004741D01*
X146916376Y-90178812D01*
X146848456Y-90342784D01*
X146749853Y-90490354D01*
X146624354Y-90615853D01*
X146476784Y-90714456D01*
X146312812Y-90782376D01*
X146138741Y-90817000D01*
X145961259Y-90817000D01*
X145787188Y-90782376D01*
X145623216Y-90714456D01*
X145475646Y-90615853D01*
X145350147Y-90490354D01*
X145251544Y-90342784D01*
X145183624Y-90178812D01*
X145149000Y-90004741D01*
X145149000Y-89827259D01*
X145183624Y-89653188D01*
X145251544Y-89489216D01*
X145350147Y-89341646D01*
X145475646Y-89216147D01*
X145623216Y-89117544D01*
X145787188Y-89049624D01*
X145961259Y-89015000D01*
X146138741Y-89015000D01*
X146312812Y-89049624D01*
X146312812Y-89049624D01*
G37*
G36*
X143772812Y-89049624D02*
X143936784Y-89117544D01*
X144084354Y-89216147D01*
X144209853Y-89341646D01*
X144308456Y-89489216D01*
X144376376Y-89653188D01*
X144411000Y-89827259D01*
X144411000Y-90004741D01*
X144376376Y-90178812D01*
X144308456Y-90342784D01*
X144209853Y-90490354D01*
X144084354Y-90615853D01*
X143936784Y-90714456D01*
X143772812Y-90782376D01*
X143598741Y-90817000D01*
X143421259Y-90817000D01*
X143247188Y-90782376D01*
X143083216Y-90714456D01*
X142935646Y-90615853D01*
X142810147Y-90490354D01*
X142711544Y-90342784D01*
X142643624Y-90178812D01*
X142609000Y-90004741D01*
X142609000Y-89827259D01*
X142643624Y-89653188D01*
X142711544Y-89489216D01*
X142810147Y-89341646D01*
X142935646Y-89216147D01*
X143083216Y-89117544D01*
X143247188Y-89049624D01*
X143421259Y-89015000D01*
X143598741Y-89015000D01*
X143772812Y-89049624D01*
X143772812Y-89049624D01*
G37*
G36*
X141232812Y-89049624D02*
X141396784Y-89117544D01*
X141544354Y-89216147D01*
X141669853Y-89341646D01*
X141768456Y-89489216D01*
X141836376Y-89653188D01*
X141871000Y-89827259D01*
X141871000Y-90004741D01*
X141836376Y-90178812D01*
X141768456Y-90342784D01*
X141669853Y-90490354D01*
X141544354Y-90615853D01*
X141396784Y-90714456D01*
X141232812Y-90782376D01*
X141058741Y-90817000D01*
X140881259Y-90817000D01*
X140707188Y-90782376D01*
X140543216Y-90714456D01*
X140395646Y-90615853D01*
X140270147Y-90490354D01*
X140171544Y-90342784D01*
X140103624Y-90178812D01*
X140069000Y-90004741D01*
X140069000Y-89827259D01*
X140103624Y-89653188D01*
X140171544Y-89489216D01*
X140270147Y-89341646D01*
X140395646Y-89216147D01*
X140543216Y-89117544D01*
X140707188Y-89049624D01*
X140881259Y-89015000D01*
X141058741Y-89015000D01*
X141232812Y-89049624D01*
X141232812Y-89049624D01*
G37*
G36*
X138692812Y-89049624D02*
X138856784Y-89117544D01*
X139004354Y-89216147D01*
X139129853Y-89341646D01*
X139228456Y-89489216D01*
X139296376Y-89653188D01*
X139331000Y-89827259D01*
X139331000Y-90004741D01*
X139296376Y-90178812D01*
X139228456Y-90342784D01*
X139129853Y-90490354D01*
X139004354Y-90615853D01*
X138856784Y-90714456D01*
X138692812Y-90782376D01*
X138518741Y-90817000D01*
X138341259Y-90817000D01*
X138167188Y-90782376D01*
X138003216Y-90714456D01*
X137855646Y-90615853D01*
X137730147Y-90490354D01*
X137631544Y-90342784D01*
X137563624Y-90178812D01*
X137529000Y-90004741D01*
X137529000Y-89827259D01*
X137563624Y-89653188D01*
X137631544Y-89489216D01*
X137730147Y-89341646D01*
X137855646Y-89216147D01*
X138003216Y-89117544D01*
X138167188Y-89049624D01*
X138341259Y-89015000D01*
X138518741Y-89015000D01*
X138692812Y-89049624D01*
X138692812Y-89049624D01*
G37*
G36*
X136152812Y-89049624D02*
X136316784Y-89117544D01*
X136464354Y-89216147D01*
X136589853Y-89341646D01*
X136688456Y-89489216D01*
X136756376Y-89653188D01*
X136791000Y-89827259D01*
X136791000Y-90004741D01*
X136756376Y-90178812D01*
X136688456Y-90342784D01*
X136589853Y-90490354D01*
X136464354Y-90615853D01*
X136316784Y-90714456D01*
X136152812Y-90782376D01*
X135978741Y-90817000D01*
X135801259Y-90817000D01*
X135627188Y-90782376D01*
X135463216Y-90714456D01*
X135315646Y-90615853D01*
X135190147Y-90490354D01*
X135091544Y-90342784D01*
X135023624Y-90178812D01*
X134989000Y-90004741D01*
X134989000Y-89827259D01*
X135023624Y-89653188D01*
X135091544Y-89489216D01*
X135190147Y-89341646D01*
X135315646Y-89216147D01*
X135463216Y-89117544D01*
X135627188Y-89049624D01*
X135801259Y-89015000D01*
X135978741Y-89015000D01*
X136152812Y-89049624D01*
X136152812Y-89049624D01*
G37*
G36*
X133612812Y-89049624D02*
X133776784Y-89117544D01*
X133924354Y-89216147D01*
X134049853Y-89341646D01*
X134148456Y-89489216D01*
X134216376Y-89653188D01*
X134251000Y-89827259D01*
X134251000Y-90004741D01*
X134216376Y-90178812D01*
X134148456Y-90342784D01*
X134049853Y-90490354D01*
X133924354Y-90615853D01*
X133776784Y-90714456D01*
X133612812Y-90782376D01*
X133438741Y-90817000D01*
X133261259Y-90817000D01*
X133087188Y-90782376D01*
X132923216Y-90714456D01*
X132775646Y-90615853D01*
X132650147Y-90490354D01*
X132551544Y-90342784D01*
X132483624Y-90178812D01*
X132449000Y-90004741D01*
X132449000Y-89827259D01*
X132483624Y-89653188D01*
X132551544Y-89489216D01*
X132650147Y-89341646D01*
X132775646Y-89216147D01*
X132923216Y-89117544D01*
X133087188Y-89049624D01*
X133261259Y-89015000D01*
X133438741Y-89015000D01*
X133612812Y-89049624D01*
X133612812Y-89049624D01*
G37*
G36*
X131072812Y-89049624D02*
X131236784Y-89117544D01*
X131384354Y-89216147D01*
X131509853Y-89341646D01*
X131608456Y-89489216D01*
X131676376Y-89653188D01*
X131711000Y-89827259D01*
X131711000Y-90004741D01*
X131676376Y-90178812D01*
X131608456Y-90342784D01*
X131509853Y-90490354D01*
X131384354Y-90615853D01*
X131236784Y-90714456D01*
X131072812Y-90782376D01*
X130898741Y-90817000D01*
X130721259Y-90817000D01*
X130547188Y-90782376D01*
X130383216Y-90714456D01*
X130235646Y-90615853D01*
X130110147Y-90490354D01*
X130011544Y-90342784D01*
X129943624Y-90178812D01*
X129909000Y-90004741D01*
X129909000Y-89827259D01*
X129943624Y-89653188D01*
X130011544Y-89489216D01*
X130110147Y-89341646D01*
X130235646Y-89216147D01*
X130383216Y-89117544D01*
X130547188Y-89049624D01*
X130721259Y-89015000D01*
X130898741Y-89015000D01*
X131072812Y-89049624D01*
X131072812Y-89049624D01*
G37*
G36*
X128532812Y-89049624D02*
X128696784Y-89117544D01*
X128844354Y-89216147D01*
X128969853Y-89341646D01*
X129068456Y-89489216D01*
X129136376Y-89653188D01*
X129171000Y-89827259D01*
X129171000Y-90004741D01*
X129136376Y-90178812D01*
X129068456Y-90342784D01*
X128969853Y-90490354D01*
X128844354Y-90615853D01*
X128696784Y-90714456D01*
X128532812Y-90782376D01*
X128358741Y-90817000D01*
X128181259Y-90817000D01*
X128007188Y-90782376D01*
X127843216Y-90714456D01*
X127695646Y-90615853D01*
X127570147Y-90490354D01*
X127471544Y-90342784D01*
X127403624Y-90178812D01*
X127369000Y-90004741D01*
X127369000Y-89827259D01*
X127403624Y-89653188D01*
X127471544Y-89489216D01*
X127570147Y-89341646D01*
X127695646Y-89216147D01*
X127843216Y-89117544D01*
X128007188Y-89049624D01*
X128181259Y-89015000D01*
X128358741Y-89015000D01*
X128532812Y-89049624D01*
X128532812Y-89049624D01*
G37*
G36*
X125992812Y-89049624D02*
X126156784Y-89117544D01*
X126304354Y-89216147D01*
X126429853Y-89341646D01*
X126528456Y-89489216D01*
X126596376Y-89653188D01*
X126631000Y-89827259D01*
X126631000Y-90004741D01*
X126596376Y-90178812D01*
X126528456Y-90342784D01*
X126429853Y-90490354D01*
X126304354Y-90615853D01*
X126156784Y-90714456D01*
X125992812Y-90782376D01*
X125818741Y-90817000D01*
X125641259Y-90817000D01*
X125467188Y-90782376D01*
X125303216Y-90714456D01*
X125155646Y-90615853D01*
X125030147Y-90490354D01*
X124931544Y-90342784D01*
X124863624Y-90178812D01*
X124829000Y-90004741D01*
X124829000Y-89827259D01*
X124863624Y-89653188D01*
X124931544Y-89489216D01*
X125030147Y-89341646D01*
X125155646Y-89216147D01*
X125303216Y-89117544D01*
X125467188Y-89049624D01*
X125641259Y-89015000D01*
X125818741Y-89015000D01*
X125992812Y-89049624D01*
X125992812Y-89049624D01*
G37*
G36*
X123452812Y-89049624D02*
X123616784Y-89117544D01*
X123764354Y-89216147D01*
X123889853Y-89341646D01*
X123988456Y-89489216D01*
X124056376Y-89653188D01*
X124091000Y-89827259D01*
X124091000Y-90004741D01*
X124056376Y-90178812D01*
X123988456Y-90342784D01*
X123889853Y-90490354D01*
X123764354Y-90615853D01*
X123616784Y-90714456D01*
X123452812Y-90782376D01*
X123278741Y-90817000D01*
X123101259Y-90817000D01*
X122927188Y-90782376D01*
X122763216Y-90714456D01*
X122615646Y-90615853D01*
X122490147Y-90490354D01*
X122391544Y-90342784D01*
X122323624Y-90178812D01*
X122289000Y-90004741D01*
X122289000Y-89827259D01*
X122323624Y-89653188D01*
X122391544Y-89489216D01*
X122490147Y-89341646D01*
X122615646Y-89216147D01*
X122763216Y-89117544D01*
X122927188Y-89049624D01*
X123101259Y-89015000D01*
X123278741Y-89015000D01*
X123452812Y-89049624D01*
X123452812Y-89049624D01*
G37*
G36*
X179332812Y-89049624D02*
X179496784Y-89117544D01*
X179644354Y-89216147D01*
X179769853Y-89341646D01*
X179868456Y-89489216D01*
X179936376Y-89653188D01*
X179971000Y-89827259D01*
X179971000Y-90004741D01*
X179936376Y-90178812D01*
X179868456Y-90342784D01*
X179769853Y-90490354D01*
X179644354Y-90615853D01*
X179496784Y-90714456D01*
X179332812Y-90782376D01*
X179158741Y-90817000D01*
X178981259Y-90817000D01*
X178807188Y-90782376D01*
X178643216Y-90714456D01*
X178495646Y-90615853D01*
X178370147Y-90490354D01*
X178271544Y-90342784D01*
X178203624Y-90178812D01*
X178169000Y-90004741D01*
X178169000Y-89827259D01*
X178203624Y-89653188D01*
X178271544Y-89489216D01*
X178370147Y-89341646D01*
X178495646Y-89216147D01*
X178643216Y-89117544D01*
X178807188Y-89049624D01*
X178981259Y-89015000D01*
X179158741Y-89015000D01*
X179332812Y-89049624D01*
X179332812Y-89049624D01*
G37*
G36*
X112788000Y-88277000D02*
X110986000Y-88277000D01*
X110986000Y-86475000D01*
X112788000Y-86475000D01*
X112788000Y-88277000D01*
X112788000Y-88277000D01*
G37*
G36*
X118372812Y-86509624D02*
X118536784Y-86577544D01*
X118684354Y-86676147D01*
X118809853Y-86801646D01*
X118908456Y-86949216D01*
X118976376Y-87113188D01*
X119011000Y-87287259D01*
X119011000Y-87464741D01*
X118976376Y-87638812D01*
X118908456Y-87802784D01*
X118809853Y-87950354D01*
X118684354Y-88075853D01*
X118536784Y-88174456D01*
X118372812Y-88242376D01*
X118198741Y-88277000D01*
X118021259Y-88277000D01*
X117847188Y-88242376D01*
X117683216Y-88174456D01*
X117535646Y-88075853D01*
X117410147Y-87950354D01*
X117311544Y-87802784D01*
X117243624Y-87638812D01*
X117209000Y-87464741D01*
X117209000Y-87287259D01*
X117243624Y-87113188D01*
X117311544Y-86949216D01*
X117410147Y-86801646D01*
X117535646Y-86676147D01*
X117683216Y-86577544D01*
X117847188Y-86509624D01*
X118021259Y-86475000D01*
X118198741Y-86475000D01*
X118372812Y-86509624D01*
X118372812Y-86509624D01*
G37*
G36*
X151392812Y-86509624D02*
X151556784Y-86577544D01*
X151704354Y-86676147D01*
X151829853Y-86801646D01*
X151928456Y-86949216D01*
X151996376Y-87113188D01*
X152031000Y-87287259D01*
X152031000Y-87464741D01*
X151996376Y-87638812D01*
X151928456Y-87802784D01*
X151829853Y-87950354D01*
X151704354Y-88075853D01*
X151556784Y-88174456D01*
X151392812Y-88242376D01*
X151218741Y-88277000D01*
X151041259Y-88277000D01*
X150867188Y-88242376D01*
X150703216Y-88174456D01*
X150555646Y-88075853D01*
X150430147Y-87950354D01*
X150331544Y-87802784D01*
X150263624Y-87638812D01*
X150229000Y-87464741D01*
X150229000Y-87287259D01*
X150263624Y-87113188D01*
X150331544Y-86949216D01*
X150430147Y-86801646D01*
X150555646Y-86676147D01*
X150703216Y-86577544D01*
X150867188Y-86509624D01*
X151041259Y-86475000D01*
X151218741Y-86475000D01*
X151392812Y-86509624D01*
X151392812Y-86509624D01*
G37*
G36*
X153932812Y-86509624D02*
X154096784Y-86577544D01*
X154244354Y-86676147D01*
X154369853Y-86801646D01*
X154468456Y-86949216D01*
X154536376Y-87113188D01*
X154571000Y-87287259D01*
X154571000Y-87464741D01*
X154536376Y-87638812D01*
X154468456Y-87802784D01*
X154369853Y-87950354D01*
X154244354Y-88075853D01*
X154096784Y-88174456D01*
X153932812Y-88242376D01*
X153758741Y-88277000D01*
X153581259Y-88277000D01*
X153407188Y-88242376D01*
X153243216Y-88174456D01*
X153095646Y-88075853D01*
X152970147Y-87950354D01*
X152871544Y-87802784D01*
X152803624Y-87638812D01*
X152769000Y-87464741D01*
X152769000Y-87287259D01*
X152803624Y-87113188D01*
X152871544Y-86949216D01*
X152970147Y-86801646D01*
X153095646Y-86676147D01*
X153243216Y-86577544D01*
X153407188Y-86509624D01*
X153581259Y-86475000D01*
X153758741Y-86475000D01*
X153932812Y-86509624D01*
X153932812Y-86509624D01*
G37*
G36*
X156472812Y-86509624D02*
X156636784Y-86577544D01*
X156784354Y-86676147D01*
X156909853Y-86801646D01*
X157008456Y-86949216D01*
X157076376Y-87113188D01*
X157111000Y-87287259D01*
X157111000Y-87464741D01*
X157076376Y-87638812D01*
X157008456Y-87802784D01*
X156909853Y-87950354D01*
X156784354Y-88075853D01*
X156636784Y-88174456D01*
X156472812Y-88242376D01*
X156298741Y-88277000D01*
X156121259Y-88277000D01*
X155947188Y-88242376D01*
X155783216Y-88174456D01*
X155635646Y-88075853D01*
X155510147Y-87950354D01*
X155411544Y-87802784D01*
X155343624Y-87638812D01*
X155309000Y-87464741D01*
X155309000Y-87287259D01*
X155343624Y-87113188D01*
X155411544Y-86949216D01*
X155510147Y-86801646D01*
X155635646Y-86676147D01*
X155783216Y-86577544D01*
X155947188Y-86509624D01*
X156121259Y-86475000D01*
X156298741Y-86475000D01*
X156472812Y-86509624D01*
X156472812Y-86509624D01*
G37*
G36*
X159012812Y-86509624D02*
X159176784Y-86577544D01*
X159324354Y-86676147D01*
X159449853Y-86801646D01*
X159548456Y-86949216D01*
X159616376Y-87113188D01*
X159651000Y-87287259D01*
X159651000Y-87464741D01*
X159616376Y-87638812D01*
X159548456Y-87802784D01*
X159449853Y-87950354D01*
X159324354Y-88075853D01*
X159176784Y-88174456D01*
X159012812Y-88242376D01*
X158838741Y-88277000D01*
X158661259Y-88277000D01*
X158487188Y-88242376D01*
X158323216Y-88174456D01*
X158175646Y-88075853D01*
X158050147Y-87950354D01*
X157951544Y-87802784D01*
X157883624Y-87638812D01*
X157849000Y-87464741D01*
X157849000Y-87287259D01*
X157883624Y-87113188D01*
X157951544Y-86949216D01*
X158050147Y-86801646D01*
X158175646Y-86676147D01*
X158323216Y-86577544D01*
X158487188Y-86509624D01*
X158661259Y-86475000D01*
X158838741Y-86475000D01*
X159012812Y-86509624D01*
X159012812Y-86509624D01*
G37*
G36*
X161552812Y-86509624D02*
X161716784Y-86577544D01*
X161864354Y-86676147D01*
X161989853Y-86801646D01*
X162088456Y-86949216D01*
X162156376Y-87113188D01*
X162191000Y-87287259D01*
X162191000Y-87464741D01*
X162156376Y-87638812D01*
X162088456Y-87802784D01*
X161989853Y-87950354D01*
X161864354Y-88075853D01*
X161716784Y-88174456D01*
X161552812Y-88242376D01*
X161378741Y-88277000D01*
X161201259Y-88277000D01*
X161027188Y-88242376D01*
X160863216Y-88174456D01*
X160715646Y-88075853D01*
X160590147Y-87950354D01*
X160491544Y-87802784D01*
X160423624Y-87638812D01*
X160389000Y-87464741D01*
X160389000Y-87287259D01*
X160423624Y-87113188D01*
X160491544Y-86949216D01*
X160590147Y-86801646D01*
X160715646Y-86676147D01*
X160863216Y-86577544D01*
X161027188Y-86509624D01*
X161201259Y-86475000D01*
X161378741Y-86475000D01*
X161552812Y-86509624D01*
X161552812Y-86509624D01*
G37*
G36*
X164092812Y-86509624D02*
X164256784Y-86577544D01*
X164404354Y-86676147D01*
X164529853Y-86801646D01*
X164628456Y-86949216D01*
X164696376Y-87113188D01*
X164731000Y-87287259D01*
X164731000Y-87464741D01*
X164696376Y-87638812D01*
X164628456Y-87802784D01*
X164529853Y-87950354D01*
X164404354Y-88075853D01*
X164256784Y-88174456D01*
X164092812Y-88242376D01*
X163918741Y-88277000D01*
X163741259Y-88277000D01*
X163567188Y-88242376D01*
X163403216Y-88174456D01*
X163255646Y-88075853D01*
X163130147Y-87950354D01*
X163031544Y-87802784D01*
X162963624Y-87638812D01*
X162929000Y-87464741D01*
X162929000Y-87287259D01*
X162963624Y-87113188D01*
X163031544Y-86949216D01*
X163130147Y-86801646D01*
X163255646Y-86676147D01*
X163403216Y-86577544D01*
X163567188Y-86509624D01*
X163741259Y-86475000D01*
X163918741Y-86475000D01*
X164092812Y-86509624D01*
X164092812Y-86509624D01*
G37*
G36*
X166632812Y-86509624D02*
X166796784Y-86577544D01*
X166944354Y-86676147D01*
X167069853Y-86801646D01*
X167168456Y-86949216D01*
X167236376Y-87113188D01*
X167271000Y-87287259D01*
X167271000Y-87464741D01*
X167236376Y-87638812D01*
X167168456Y-87802784D01*
X167069853Y-87950354D01*
X166944354Y-88075853D01*
X166796784Y-88174456D01*
X166632812Y-88242376D01*
X166458741Y-88277000D01*
X166281259Y-88277000D01*
X166107188Y-88242376D01*
X165943216Y-88174456D01*
X165795646Y-88075853D01*
X165670147Y-87950354D01*
X165571544Y-87802784D01*
X165503624Y-87638812D01*
X165469000Y-87464741D01*
X165469000Y-87287259D01*
X165503624Y-87113188D01*
X165571544Y-86949216D01*
X165670147Y-86801646D01*
X165795646Y-86676147D01*
X165943216Y-86577544D01*
X166107188Y-86509624D01*
X166281259Y-86475000D01*
X166458741Y-86475000D01*
X166632812Y-86509624D01*
X166632812Y-86509624D01*
G37*
G36*
X169172812Y-86509624D02*
X169336784Y-86577544D01*
X169484354Y-86676147D01*
X169609853Y-86801646D01*
X169708456Y-86949216D01*
X169776376Y-87113188D01*
X169811000Y-87287259D01*
X169811000Y-87464741D01*
X169776376Y-87638812D01*
X169708456Y-87802784D01*
X169609853Y-87950354D01*
X169484354Y-88075853D01*
X169336784Y-88174456D01*
X169172812Y-88242376D01*
X168998741Y-88277000D01*
X168821259Y-88277000D01*
X168647188Y-88242376D01*
X168483216Y-88174456D01*
X168335646Y-88075853D01*
X168210147Y-87950354D01*
X168111544Y-87802784D01*
X168043624Y-87638812D01*
X168009000Y-87464741D01*
X168009000Y-87287259D01*
X168043624Y-87113188D01*
X168111544Y-86949216D01*
X168210147Y-86801646D01*
X168335646Y-86676147D01*
X168483216Y-86577544D01*
X168647188Y-86509624D01*
X168821259Y-86475000D01*
X168998741Y-86475000D01*
X169172812Y-86509624D01*
X169172812Y-86509624D01*
G37*
G36*
X171712812Y-86509624D02*
X171876784Y-86577544D01*
X172024354Y-86676147D01*
X172149853Y-86801646D01*
X172248456Y-86949216D01*
X172316376Y-87113188D01*
X172351000Y-87287259D01*
X172351000Y-87464741D01*
X172316376Y-87638812D01*
X172248456Y-87802784D01*
X172149853Y-87950354D01*
X172024354Y-88075853D01*
X171876784Y-88174456D01*
X171712812Y-88242376D01*
X171538741Y-88277000D01*
X171361259Y-88277000D01*
X171187188Y-88242376D01*
X171023216Y-88174456D01*
X170875646Y-88075853D01*
X170750147Y-87950354D01*
X170651544Y-87802784D01*
X170583624Y-87638812D01*
X170549000Y-87464741D01*
X170549000Y-87287259D01*
X170583624Y-87113188D01*
X170651544Y-86949216D01*
X170750147Y-86801646D01*
X170875646Y-86676147D01*
X171023216Y-86577544D01*
X171187188Y-86509624D01*
X171361259Y-86475000D01*
X171538741Y-86475000D01*
X171712812Y-86509624D01*
X171712812Y-86509624D01*
G37*
G36*
X174252812Y-86509624D02*
X174416784Y-86577544D01*
X174564354Y-86676147D01*
X174689853Y-86801646D01*
X174788456Y-86949216D01*
X174856376Y-87113188D01*
X174891000Y-87287259D01*
X174891000Y-87464741D01*
X174856376Y-87638812D01*
X174788456Y-87802784D01*
X174689853Y-87950354D01*
X174564354Y-88075853D01*
X174416784Y-88174456D01*
X174252812Y-88242376D01*
X174078741Y-88277000D01*
X173901259Y-88277000D01*
X173727188Y-88242376D01*
X173563216Y-88174456D01*
X173415646Y-88075853D01*
X173290147Y-87950354D01*
X173191544Y-87802784D01*
X173123624Y-87638812D01*
X173089000Y-87464741D01*
X173089000Y-87287259D01*
X173123624Y-87113188D01*
X173191544Y-86949216D01*
X173290147Y-86801646D01*
X173415646Y-86676147D01*
X173563216Y-86577544D01*
X173727188Y-86509624D01*
X173901259Y-86475000D01*
X174078741Y-86475000D01*
X174252812Y-86509624D01*
X174252812Y-86509624D01*
G37*
G36*
X176792812Y-86509624D02*
X176956784Y-86577544D01*
X177104354Y-86676147D01*
X177229853Y-86801646D01*
X177328456Y-86949216D01*
X177396376Y-87113188D01*
X177431000Y-87287259D01*
X177431000Y-87464741D01*
X177396376Y-87638812D01*
X177328456Y-87802784D01*
X177229853Y-87950354D01*
X177104354Y-88075853D01*
X176956784Y-88174456D01*
X176792812Y-88242376D01*
X176618741Y-88277000D01*
X176441259Y-88277000D01*
X176267188Y-88242376D01*
X176103216Y-88174456D01*
X175955646Y-88075853D01*
X175830147Y-87950354D01*
X175731544Y-87802784D01*
X175663624Y-87638812D01*
X175629000Y-87464741D01*
X175629000Y-87287259D01*
X175663624Y-87113188D01*
X175731544Y-86949216D01*
X175830147Y-86801646D01*
X175955646Y-86676147D01*
X176103216Y-86577544D01*
X176267188Y-86509624D01*
X176441259Y-86475000D01*
X176618741Y-86475000D01*
X176792812Y-86509624D01*
X176792812Y-86509624D01*
G37*
G36*
X148852812Y-86509624D02*
X149016784Y-86577544D01*
X149164354Y-86676147D01*
X149289853Y-86801646D01*
X149388456Y-86949216D01*
X149456376Y-87113188D01*
X149491000Y-87287259D01*
X149491000Y-87464741D01*
X149456376Y-87638812D01*
X149388456Y-87802784D01*
X149289853Y-87950354D01*
X149164354Y-88075853D01*
X149016784Y-88174456D01*
X148852812Y-88242376D01*
X148678741Y-88277000D01*
X148501259Y-88277000D01*
X148327188Y-88242376D01*
X148163216Y-88174456D01*
X148015646Y-88075853D01*
X147890147Y-87950354D01*
X147791544Y-87802784D01*
X147723624Y-87638812D01*
X147689000Y-87464741D01*
X147689000Y-87287259D01*
X147723624Y-87113188D01*
X147791544Y-86949216D01*
X147890147Y-86801646D01*
X148015646Y-86676147D01*
X148163216Y-86577544D01*
X148327188Y-86509624D01*
X148501259Y-86475000D01*
X148678741Y-86475000D01*
X148852812Y-86509624D01*
X148852812Y-86509624D01*
G37*
G36*
X146312812Y-86509624D02*
X146476784Y-86577544D01*
X146624354Y-86676147D01*
X146749853Y-86801646D01*
X146848456Y-86949216D01*
X146916376Y-87113188D01*
X146951000Y-87287259D01*
X146951000Y-87464741D01*
X146916376Y-87638812D01*
X146848456Y-87802784D01*
X146749853Y-87950354D01*
X146624354Y-88075853D01*
X146476784Y-88174456D01*
X146312812Y-88242376D01*
X146138741Y-88277000D01*
X145961259Y-88277000D01*
X145787188Y-88242376D01*
X145623216Y-88174456D01*
X145475646Y-88075853D01*
X145350147Y-87950354D01*
X145251544Y-87802784D01*
X145183624Y-87638812D01*
X145149000Y-87464741D01*
X145149000Y-87287259D01*
X145183624Y-87113188D01*
X145251544Y-86949216D01*
X145350147Y-86801646D01*
X145475646Y-86676147D01*
X145623216Y-86577544D01*
X145787188Y-86509624D01*
X145961259Y-86475000D01*
X146138741Y-86475000D01*
X146312812Y-86509624D01*
X146312812Y-86509624D01*
G37*
G36*
X143772812Y-86509624D02*
X143936784Y-86577544D01*
X144084354Y-86676147D01*
X144209853Y-86801646D01*
X144308456Y-86949216D01*
X144376376Y-87113188D01*
X144411000Y-87287259D01*
X144411000Y-87464741D01*
X144376376Y-87638812D01*
X144308456Y-87802784D01*
X144209853Y-87950354D01*
X144084354Y-88075853D01*
X143936784Y-88174456D01*
X143772812Y-88242376D01*
X143598741Y-88277000D01*
X143421259Y-88277000D01*
X143247188Y-88242376D01*
X143083216Y-88174456D01*
X142935646Y-88075853D01*
X142810147Y-87950354D01*
X142711544Y-87802784D01*
X142643624Y-87638812D01*
X142609000Y-87464741D01*
X142609000Y-87287259D01*
X142643624Y-87113188D01*
X142711544Y-86949216D01*
X142810147Y-86801646D01*
X142935646Y-86676147D01*
X143083216Y-86577544D01*
X143247188Y-86509624D01*
X143421259Y-86475000D01*
X143598741Y-86475000D01*
X143772812Y-86509624D01*
X143772812Y-86509624D01*
G37*
G36*
X141232812Y-86509624D02*
X141396784Y-86577544D01*
X141544354Y-86676147D01*
X141669853Y-86801646D01*
X141768456Y-86949216D01*
X141836376Y-87113188D01*
X141871000Y-87287259D01*
X141871000Y-87464741D01*
X141836376Y-87638812D01*
X141768456Y-87802784D01*
X141669853Y-87950354D01*
X141544354Y-88075853D01*
X141396784Y-88174456D01*
X141232812Y-88242376D01*
X141058741Y-88277000D01*
X140881259Y-88277000D01*
X140707188Y-88242376D01*
X140543216Y-88174456D01*
X140395646Y-88075853D01*
X140270147Y-87950354D01*
X140171544Y-87802784D01*
X140103624Y-87638812D01*
X140069000Y-87464741D01*
X140069000Y-87287259D01*
X140103624Y-87113188D01*
X140171544Y-86949216D01*
X140270147Y-86801646D01*
X140395646Y-86676147D01*
X140543216Y-86577544D01*
X140707188Y-86509624D01*
X140881259Y-86475000D01*
X141058741Y-86475000D01*
X141232812Y-86509624D01*
X141232812Y-86509624D01*
G37*
G36*
X138692812Y-86509624D02*
X138856784Y-86577544D01*
X139004354Y-86676147D01*
X139129853Y-86801646D01*
X139228456Y-86949216D01*
X139296376Y-87113188D01*
X139331000Y-87287259D01*
X139331000Y-87464741D01*
X139296376Y-87638812D01*
X139228456Y-87802784D01*
X139129853Y-87950354D01*
X139004354Y-88075853D01*
X138856784Y-88174456D01*
X138692812Y-88242376D01*
X138518741Y-88277000D01*
X138341259Y-88277000D01*
X138167188Y-88242376D01*
X138003216Y-88174456D01*
X137855646Y-88075853D01*
X137730147Y-87950354D01*
X137631544Y-87802784D01*
X137563624Y-87638812D01*
X137529000Y-87464741D01*
X137529000Y-87287259D01*
X137563624Y-87113188D01*
X137631544Y-86949216D01*
X137730147Y-86801646D01*
X137855646Y-86676147D01*
X138003216Y-86577544D01*
X138167188Y-86509624D01*
X138341259Y-86475000D01*
X138518741Y-86475000D01*
X138692812Y-86509624D01*
X138692812Y-86509624D01*
G37*
G36*
X136152812Y-86509624D02*
X136316784Y-86577544D01*
X136464354Y-86676147D01*
X136589853Y-86801646D01*
X136688456Y-86949216D01*
X136756376Y-87113188D01*
X136791000Y-87287259D01*
X136791000Y-87464741D01*
X136756376Y-87638812D01*
X136688456Y-87802784D01*
X136589853Y-87950354D01*
X136464354Y-88075853D01*
X136316784Y-88174456D01*
X136152812Y-88242376D01*
X135978741Y-88277000D01*
X135801259Y-88277000D01*
X135627188Y-88242376D01*
X135463216Y-88174456D01*
X135315646Y-88075853D01*
X135190147Y-87950354D01*
X135091544Y-87802784D01*
X135023624Y-87638812D01*
X134989000Y-87464741D01*
X134989000Y-87287259D01*
X135023624Y-87113188D01*
X135091544Y-86949216D01*
X135190147Y-86801646D01*
X135315646Y-86676147D01*
X135463216Y-86577544D01*
X135627188Y-86509624D01*
X135801259Y-86475000D01*
X135978741Y-86475000D01*
X136152812Y-86509624D01*
X136152812Y-86509624D01*
G37*
G36*
X133612812Y-86509624D02*
X133776784Y-86577544D01*
X133924354Y-86676147D01*
X134049853Y-86801646D01*
X134148456Y-86949216D01*
X134216376Y-87113188D01*
X134251000Y-87287259D01*
X134251000Y-87464741D01*
X134216376Y-87638812D01*
X134148456Y-87802784D01*
X134049853Y-87950354D01*
X133924354Y-88075853D01*
X133776784Y-88174456D01*
X133612812Y-88242376D01*
X133438741Y-88277000D01*
X133261259Y-88277000D01*
X133087188Y-88242376D01*
X132923216Y-88174456D01*
X132775646Y-88075853D01*
X132650147Y-87950354D01*
X132551544Y-87802784D01*
X132483624Y-87638812D01*
X132449000Y-87464741D01*
X132449000Y-87287259D01*
X132483624Y-87113188D01*
X132551544Y-86949216D01*
X132650147Y-86801646D01*
X132775646Y-86676147D01*
X132923216Y-86577544D01*
X133087188Y-86509624D01*
X133261259Y-86475000D01*
X133438741Y-86475000D01*
X133612812Y-86509624D01*
X133612812Y-86509624D01*
G37*
G36*
X131072812Y-86509624D02*
X131236784Y-86577544D01*
X131384354Y-86676147D01*
X131509853Y-86801646D01*
X131608456Y-86949216D01*
X131676376Y-87113188D01*
X131711000Y-87287259D01*
X131711000Y-87464741D01*
X131676376Y-87638812D01*
X131608456Y-87802784D01*
X131509853Y-87950354D01*
X131384354Y-88075853D01*
X131236784Y-88174456D01*
X131072812Y-88242376D01*
X130898741Y-88277000D01*
X130721259Y-88277000D01*
X130547188Y-88242376D01*
X130383216Y-88174456D01*
X130235646Y-88075853D01*
X130110147Y-87950354D01*
X130011544Y-87802784D01*
X129943624Y-87638812D01*
X129909000Y-87464741D01*
X129909000Y-87287259D01*
X129943624Y-87113188D01*
X130011544Y-86949216D01*
X130110147Y-86801646D01*
X130235646Y-86676147D01*
X130383216Y-86577544D01*
X130547188Y-86509624D01*
X130721259Y-86475000D01*
X130898741Y-86475000D01*
X131072812Y-86509624D01*
X131072812Y-86509624D01*
G37*
G36*
X128532812Y-86509624D02*
X128696784Y-86577544D01*
X128844354Y-86676147D01*
X128969853Y-86801646D01*
X129068456Y-86949216D01*
X129136376Y-87113188D01*
X129171000Y-87287259D01*
X129171000Y-87464741D01*
X129136376Y-87638812D01*
X129068456Y-87802784D01*
X128969853Y-87950354D01*
X128844354Y-88075853D01*
X128696784Y-88174456D01*
X128532812Y-88242376D01*
X128358741Y-88277000D01*
X128181259Y-88277000D01*
X128007188Y-88242376D01*
X127843216Y-88174456D01*
X127695646Y-88075853D01*
X127570147Y-87950354D01*
X127471544Y-87802784D01*
X127403624Y-87638812D01*
X127369000Y-87464741D01*
X127369000Y-87287259D01*
X127403624Y-87113188D01*
X127471544Y-86949216D01*
X127570147Y-86801646D01*
X127695646Y-86676147D01*
X127843216Y-86577544D01*
X128007188Y-86509624D01*
X128181259Y-86475000D01*
X128358741Y-86475000D01*
X128532812Y-86509624D01*
X128532812Y-86509624D01*
G37*
G36*
X125992812Y-86509624D02*
X126156784Y-86577544D01*
X126304354Y-86676147D01*
X126429853Y-86801646D01*
X126528456Y-86949216D01*
X126596376Y-87113188D01*
X126631000Y-87287259D01*
X126631000Y-87464741D01*
X126596376Y-87638812D01*
X126528456Y-87802784D01*
X126429853Y-87950354D01*
X126304354Y-88075853D01*
X126156784Y-88174456D01*
X125992812Y-88242376D01*
X125818741Y-88277000D01*
X125641259Y-88277000D01*
X125467188Y-88242376D01*
X125303216Y-88174456D01*
X125155646Y-88075853D01*
X125030147Y-87950354D01*
X124931544Y-87802784D01*
X124863624Y-87638812D01*
X124829000Y-87464741D01*
X124829000Y-87287259D01*
X124863624Y-87113188D01*
X124931544Y-86949216D01*
X125030147Y-86801646D01*
X125155646Y-86676147D01*
X125303216Y-86577544D01*
X125467188Y-86509624D01*
X125641259Y-86475000D01*
X125818741Y-86475000D01*
X125992812Y-86509624D01*
X125992812Y-86509624D01*
G37*
G36*
X123452812Y-86509624D02*
X123616784Y-86577544D01*
X123764354Y-86676147D01*
X123889853Y-86801646D01*
X123988456Y-86949216D01*
X124056376Y-87113188D01*
X124091000Y-87287259D01*
X124091000Y-87464741D01*
X124056376Y-87638812D01*
X123988456Y-87802784D01*
X123889853Y-87950354D01*
X123764354Y-88075853D01*
X123616784Y-88174456D01*
X123452812Y-88242376D01*
X123278741Y-88277000D01*
X123101259Y-88277000D01*
X122927188Y-88242376D01*
X122763216Y-88174456D01*
X122615646Y-88075853D01*
X122490147Y-87950354D01*
X122391544Y-87802784D01*
X122323624Y-87638812D01*
X122289000Y-87464741D01*
X122289000Y-87287259D01*
X122323624Y-87113188D01*
X122391544Y-86949216D01*
X122490147Y-86801646D01*
X122615646Y-86676147D01*
X122763216Y-86577544D01*
X122927188Y-86509624D01*
X123101259Y-86475000D01*
X123278741Y-86475000D01*
X123452812Y-86509624D01*
X123452812Y-86509624D01*
G37*
G36*
X120912812Y-86509624D02*
X121076784Y-86577544D01*
X121224354Y-86676147D01*
X121349853Y-86801646D01*
X121448456Y-86949216D01*
X121516376Y-87113188D01*
X121551000Y-87287259D01*
X121551000Y-87464741D01*
X121516376Y-87638812D01*
X121448456Y-87802784D01*
X121349853Y-87950354D01*
X121224354Y-88075853D01*
X121076784Y-88174456D01*
X120912812Y-88242376D01*
X120738741Y-88277000D01*
X120561259Y-88277000D01*
X120387188Y-88242376D01*
X120223216Y-88174456D01*
X120075646Y-88075853D01*
X119950147Y-87950354D01*
X119851544Y-87802784D01*
X119783624Y-87638812D01*
X119749000Y-87464741D01*
X119749000Y-87287259D01*
X119783624Y-87113188D01*
X119851544Y-86949216D01*
X119950147Y-86801646D01*
X120075646Y-86676147D01*
X120223216Y-86577544D01*
X120387188Y-86509624D01*
X120561259Y-86475000D01*
X120738741Y-86475000D01*
X120912812Y-86509624D01*
X120912812Y-86509624D01*
G37*
G36*
X179332812Y-86509624D02*
X179496784Y-86577544D01*
X179644354Y-86676147D01*
X179769853Y-86801646D01*
X179868456Y-86949216D01*
X179936376Y-87113188D01*
X179971000Y-87287259D01*
X179971000Y-87464741D01*
X179936376Y-87638812D01*
X179868456Y-87802784D01*
X179769853Y-87950354D01*
X179644354Y-88075853D01*
X179496784Y-88174456D01*
X179332812Y-88242376D01*
X179158741Y-88277000D01*
X178981259Y-88277000D01*
X178807188Y-88242376D01*
X178643216Y-88174456D01*
X178495646Y-88075853D01*
X178370147Y-87950354D01*
X178271544Y-87802784D01*
X178203624Y-87638812D01*
X178169000Y-87464741D01*
X178169000Y-87287259D01*
X178203624Y-87113188D01*
X178271544Y-86949216D01*
X178370147Y-86801646D01*
X178495646Y-86676147D01*
X178643216Y-86577544D01*
X178807188Y-86509624D01*
X178981259Y-86475000D01*
X179158741Y-86475000D01*
X179332812Y-86509624D01*
X179332812Y-86509624D01*
G37*
M02*
