G04 #@! TF.GenerationSoftware,KiCad,Pcbnew,(5.0.1-3-g963ef8bb5)*
G04 #@! TF.CreationDate,2020-10-13T22:01:46+01:00*
G04 #@! TF.ProjectId,ACE_Backplane_Adaptor,4143455F4261636B706C616E655F4164,rev?*
G04 #@! TF.SameCoordinates,Original*
G04 #@! TF.FileFunction,Copper,L2,Bot,Signal*
G04 #@! TF.FilePolarity,Positive*
%FSLAX46Y46*%
G04 Gerber Fmt 4.6, Leading zero omitted, Abs format (unit mm)*
G04 Created by KiCad (PCBNEW (5.0.1-3-g963ef8bb5)) date Tuesday, 13 October 2020 at 22:01:46*
%MOMM*%
%LPD*%
G01*
G04 APERTURE LIST*
G04 #@! TA.AperFunction,SMDPad,CuDef*
%ADD10R,1.524000X7.620000*%
G04 #@! TD*
G04 #@! TA.AperFunction,ComponentPad*
%ADD11R,1.700000X1.700000*%
G04 #@! TD*
G04 #@! TA.AperFunction,ComponentPad*
%ADD12O,1.700000X1.700000*%
G04 #@! TD*
G04 #@! TA.AperFunction,ComponentPad*
%ADD13C,1.700000*%
G04 #@! TD*
G04 #@! TA.AperFunction,Conductor*
%ADD14C,0.250000*%
G04 #@! TD*
G04 #@! TA.AperFunction,Conductor*
%ADD15C,0.254000*%
G04 #@! TD*
G04 APERTURE END LIST*
D10*
G04 #@! TO.P,Z1,B1*
G04 #@! TO.N,GND*
X118185001Y-95983001D03*
G04 #@! TO.P,Z1,B2*
G04 #@! TO.N,Net-(J1-PadB2)*
X120725001Y-95983001D03*
G04 #@! TO.P,Z1,B4*
G04 #@! TO.N,Net-(J1-PadB4)*
X125805001Y-95983001D03*
G04 #@! TO.P,Z1,B3*
G04 #@! TO.N,Net-(J1-PadB3)*
X123265001Y-95983001D03*
G04 #@! TO.P,Z1,B10*
G04 #@! TO.N,Net-(J1-PadB10)*
X141045001Y-95983001D03*
G04 #@! TO.P,Z1,B11*
G04 #@! TO.N,Net-(J1-PadB11)*
X143585001Y-95983001D03*
G04 #@! TO.P,Z1,B12*
G04 #@! TO.N,Net-(J1-PadB12)*
X146125001Y-95983001D03*
G04 #@! TO.P,Z1,B13*
G04 #@! TO.N,Net-(J1-PadB13)*
X148665001Y-95983001D03*
G04 #@! TO.P,Z1,B9*
G04 #@! TO.N,Net-(J1-PadB9)*
X138505001Y-95983001D03*
G04 #@! TO.P,Z1,B8*
G04 #@! TO.N,Net-(J1-PadB8)*
X135965001Y-95983001D03*
G04 #@! TO.P,Z1,B7*
G04 #@! TO.N,Net-(J1-PadB7)*
X133425001Y-95983001D03*
G04 #@! TO.P,Z1,B6*
G04 #@! TO.N,Net-(J1-PadB6)*
X130885001Y-95983001D03*
G04 #@! TO.P,Z1,B22*
G04 #@! TO.N,Net-(J1-PadB22)*
X171525001Y-95983001D03*
G04 #@! TO.P,Z1,B24*
G04 #@! TO.N,Net-(J1-PadB24)*
X176605001Y-95983001D03*
G04 #@! TO.P,Z1,B5*
G04 #@! TO.N,Net-(J1-PadB5)*
X128345001Y-95983001D03*
G04 #@! TO.P,Z1,B18*
G04 #@! TO.N,Net-(J1-PadB18)*
X161365001Y-95983001D03*
G04 #@! TO.P,Z1,B19*
G04 #@! TO.N,Net-(J1-PadB19)*
X163905001Y-95983001D03*
G04 #@! TO.P,Z1,B20*
G04 #@! TO.N,Net-(J1-PadB20)*
X166445001Y-95983001D03*
G04 #@! TO.P,Z1,B21*
G04 #@! TO.N,Net-(J1-PadB21)*
X168985001Y-95983001D03*
G04 #@! TO.P,Z1,B17*
G04 #@! TO.N,Net-(J1-PadB17)*
X158825001Y-95983001D03*
G04 #@! TO.P,Z1,B16*
G04 #@! TO.N,Net-(J1-PadB16)*
X156285001Y-95983001D03*
G04 #@! TO.P,Z1,B15*
G04 #@! TO.N,Net-(J1-PadB15)*
X153745001Y-95983001D03*
G04 #@! TO.P,Z1,B14*
G04 #@! TO.N,Net-(J1-PadB14)*
X151205001Y-95983001D03*
G04 #@! TD*
D11*
G04 #@! TO.P,J2,1*
G04 #@! TO.N,GND*
X111887000Y-87376000D03*
D12*
G04 #@! TO.P,J2,2*
G04 #@! TO.N,Net-(J1-PadB12)*
X111887000Y-89916000D03*
G04 #@! TD*
D13*
G04 #@! TO.P,J1,A14*
G04 #@! TO.N,Net-(J1-PadA14)*
X151130000Y-87376000D03*
G04 #@! TO.P,J1,A15*
G04 #@! TO.N,Net-(J1-PadA15)*
X153670000Y-87376000D03*
G04 #@! TO.P,J1,A16*
G04 #@! TO.N,Net-(J1-PadA16)*
X156210000Y-87376000D03*
G04 #@! TO.P,J1,A17*
G04 #@! TO.N,Net-(J1-PadA17)*
X158750000Y-87376000D03*
G04 #@! TO.P,J1,A18*
G04 #@! TO.N,Net-(J1-PadA18)*
X161290000Y-87376000D03*
G04 #@! TO.P,J1,A19*
G04 #@! TO.N,Net-(J1-PadA19)*
X163830000Y-87376000D03*
G04 #@! TO.P,J1,A20*
G04 #@! TO.N,Net-(J1-PadA20)*
X166370000Y-87376000D03*
G04 #@! TO.P,J1,A21*
G04 #@! TO.N,Net-(J1-PadA21)*
X168910000Y-87376000D03*
G04 #@! TO.P,J1,A22*
G04 #@! TO.N,Net-(J1-PadA22)*
X171450000Y-87376000D03*
G04 #@! TO.P,J1,*
G04 #@! TO.N,*
X173990000Y-87376000D03*
G04 #@! TO.P,J1,A24*
G04 #@! TO.N,Net-(J1-PadA24)*
X176530000Y-87376000D03*
G04 #@! TO.P,J1,A13*
G04 #@! TO.N,Net-(J1-PadA13)*
X148590000Y-87376000D03*
G04 #@! TO.P,J1,A12*
G04 #@! TO.N,Net-(J1-PadA12)*
X146050000Y-87376000D03*
G04 #@! TO.P,J1,A11*
G04 #@! TO.N,Net-(J1-PadA11)*
X143510000Y-87376000D03*
G04 #@! TO.P,J1,A10*
G04 #@! TO.N,Net-(J1-PadA10)*
X140970000Y-87376000D03*
G04 #@! TO.P,J1,A9*
G04 #@! TO.N,Net-(J1-PadA9)*
X138430000Y-87376000D03*
G04 #@! TO.P,J1,A8*
G04 #@! TO.N,Net-(J1-PadA8)*
X135890000Y-87376000D03*
G04 #@! TO.P,J1,A7*
G04 #@! TO.N,Net-(J1-PadA7)*
X133350000Y-87376000D03*
G04 #@! TO.P,J1,A6*
G04 #@! TO.N,Net-(J1-PadA6)*
X130810000Y-87376000D03*
G04 #@! TO.P,J1,A5*
G04 #@! TO.N,Net-(J1-PadA5)*
X128270000Y-87376000D03*
G04 #@! TO.P,J1,A4*
G04 #@! TO.N,Net-(J1-PadA4)*
X125730000Y-87376000D03*
G04 #@! TO.P,J1,A3*
G04 #@! TO.N,Net-(J1-PadA3)*
X123190000Y-87376000D03*
G04 #@! TO.P,J1,A2*
G04 #@! TO.N,GND*
X120650000Y-87376000D03*
G04 #@! TO.P,J1,A1*
X118110000Y-87376000D03*
G04 #@! TO.P,J1,B1*
X118110000Y-89916000D03*
G04 #@! TO.P,J1,B2*
G04 #@! TO.N,Net-(J1-PadB2)*
X120650000Y-89916000D03*
G04 #@! TO.P,J1,B3*
G04 #@! TO.N,Net-(J1-PadB3)*
X123190000Y-89916000D03*
G04 #@! TO.P,J1,B4*
G04 #@! TO.N,Net-(J1-PadB4)*
X125730000Y-89916000D03*
G04 #@! TO.P,J1,B5*
G04 #@! TO.N,Net-(J1-PadB5)*
X128270000Y-89916000D03*
G04 #@! TO.P,J1,B6*
G04 #@! TO.N,Net-(J1-PadB6)*
X130810000Y-89916000D03*
G04 #@! TO.P,J1,B7*
G04 #@! TO.N,Net-(J1-PadB7)*
X133350000Y-89916000D03*
G04 #@! TO.P,J1,B8*
G04 #@! TO.N,Net-(J1-PadB8)*
X135890000Y-89916000D03*
G04 #@! TO.P,J1,B9*
G04 #@! TO.N,Net-(J1-PadB9)*
X138430000Y-89916000D03*
G04 #@! TO.P,J1,B10*
G04 #@! TO.N,Net-(J1-PadB10)*
X140970000Y-89916000D03*
G04 #@! TO.P,J1,B11*
G04 #@! TO.N,Net-(J1-PadB11)*
X143510000Y-89916000D03*
G04 #@! TO.P,J1,B12*
G04 #@! TO.N,Net-(J1-PadB12)*
X146050000Y-89916000D03*
G04 #@! TO.P,J1,B13*
G04 #@! TO.N,Net-(J1-PadB13)*
X148590000Y-89916000D03*
G04 #@! TO.P,J1,B24*
G04 #@! TO.N,Net-(J1-PadB24)*
X176530000Y-89916000D03*
G04 #@! TO.P,J1,*
G04 #@! TO.N,*
X173990000Y-89916000D03*
G04 #@! TO.P,J1,B22*
G04 #@! TO.N,Net-(J1-PadB22)*
X171450000Y-89916000D03*
G04 #@! TO.P,J1,B21*
G04 #@! TO.N,Net-(J1-PadB21)*
X168910000Y-89916000D03*
G04 #@! TO.P,J1,B20*
G04 #@! TO.N,Net-(J1-PadB20)*
X166370000Y-89916000D03*
G04 #@! TO.P,J1,B19*
G04 #@! TO.N,Net-(J1-PadB19)*
X163830000Y-89916000D03*
G04 #@! TO.P,J1,B18*
G04 #@! TO.N,Net-(J1-PadB18)*
X161290000Y-89916000D03*
G04 #@! TO.P,J1,B17*
G04 #@! TO.N,Net-(J1-PadB17)*
X158750000Y-89916000D03*
G04 #@! TO.P,J1,B16*
G04 #@! TO.N,Net-(J1-PadB16)*
X156210000Y-89916000D03*
G04 #@! TO.P,J1,B15*
G04 #@! TO.N,Net-(J1-PadB15)*
X153670000Y-89916000D03*
G04 #@! TO.P,J1,B14*
G04 #@! TO.N,Net-(J1-PadB14)*
X151130000Y-89916000D03*
G04 #@! TO.P,J1,A25*
G04 #@! TO.N,N/C*
X179070000Y-87376000D03*
G04 #@! TO.P,J1,B25*
X179070000Y-89916000D03*
G04 #@! TD*
D14*
G04 #@! TO.N,GND*
X118185001Y-89991001D02*
X118110000Y-89916000D01*
X118185001Y-95983001D02*
X118185001Y-89991001D01*
G04 #@! TO.N,Net-(J1-PadB2)*
X120725001Y-89991001D02*
X120650000Y-89916000D01*
X120725001Y-95983001D02*
X120725001Y-89991001D01*
G04 #@! TO.N,Net-(J1-PadB3)*
X123265001Y-89991001D02*
X123190000Y-89916000D01*
X123265001Y-95983001D02*
X123265001Y-89991001D01*
G04 #@! TO.N,Net-(J1-PadB4)*
X125805001Y-89991001D02*
X125730000Y-89916000D01*
X125805001Y-95983001D02*
X125805001Y-89991001D01*
G04 #@! TO.N,Net-(J1-PadB5)*
X128345001Y-89991001D02*
X128270000Y-89916000D01*
X128345001Y-95983001D02*
X128345001Y-89991001D01*
G04 #@! TO.N,Net-(J1-PadB6)*
X130885001Y-89991001D02*
X130810000Y-89916000D01*
X130885001Y-95983001D02*
X130885001Y-89991001D01*
G04 #@! TO.N,Net-(J1-PadB7)*
X133425001Y-89991001D02*
X133350000Y-89916000D01*
X133425001Y-95983001D02*
X133425001Y-89991001D01*
G04 #@! TO.N,Net-(J1-PadB8)*
X135965001Y-89991001D02*
X135890000Y-89916000D01*
X135965001Y-95983001D02*
X135965001Y-89991001D01*
G04 #@! TO.N,Net-(J1-PadB9)*
X138505001Y-89991001D02*
X138430000Y-89916000D01*
X138505001Y-95983001D02*
X138505001Y-89991001D01*
G04 #@! TO.N,Net-(J1-PadB10)*
X141045001Y-89991001D02*
X140970000Y-89916000D01*
X141045001Y-95983001D02*
X141045001Y-89991001D01*
G04 #@! TO.N,Net-(J1-PadB11)*
X143585001Y-89991001D02*
X143510000Y-89916000D01*
X143585001Y-95983001D02*
X143585001Y-89991001D01*
G04 #@! TO.N,Net-(J1-PadB12)*
X146125001Y-89991001D02*
X146050000Y-89916000D01*
X146125001Y-95983001D02*
X146125001Y-89991001D01*
G04 #@! TO.N,Net-(J1-PadB13)*
X148665001Y-89991001D02*
X148590000Y-89916000D01*
X148665001Y-95983001D02*
X148665001Y-89991001D01*
G04 #@! TO.N,Net-(J1-PadB24)*
X176605001Y-89991001D02*
X176530000Y-89916000D01*
X176605001Y-95983001D02*
X176605001Y-89991001D01*
G04 #@! TO.N,Net-(J1-PadB22)*
X171525001Y-89991001D02*
X171450000Y-89916000D01*
X171525001Y-95983001D02*
X171525001Y-89991001D01*
G04 #@! TO.N,Net-(J1-PadB21)*
X168985001Y-89991001D02*
X168910000Y-89916000D01*
X168985001Y-95983001D02*
X168985001Y-89991001D01*
G04 #@! TO.N,Net-(J1-PadB20)*
X166445001Y-89991001D02*
X166370000Y-89916000D01*
X166445001Y-95983001D02*
X166445001Y-89991001D01*
G04 #@! TO.N,Net-(J1-PadB19)*
X163905001Y-89991001D02*
X163830000Y-89916000D01*
X163905001Y-95983001D02*
X163905001Y-89991001D01*
G04 #@! TO.N,Net-(J1-PadB18)*
X161365001Y-89991001D02*
X161290000Y-89916000D01*
X161365001Y-95983001D02*
X161365001Y-89991001D01*
G04 #@! TO.N,Net-(J1-PadB17)*
X158825001Y-89991001D02*
X158750000Y-89916000D01*
X158825001Y-95983001D02*
X158825001Y-89991001D01*
G04 #@! TO.N,Net-(J1-PadB16)*
X156285001Y-89991001D02*
X156210000Y-89916000D01*
X156285001Y-95983001D02*
X156285001Y-89991001D01*
G04 #@! TO.N,Net-(J1-PadB15)*
X153745001Y-89991001D02*
X153670000Y-89916000D01*
X153745001Y-95983001D02*
X153745001Y-89991001D01*
G04 #@! TO.N,Net-(J1-PadB14)*
X151205001Y-89991001D02*
X151130000Y-89916000D01*
X151205001Y-95983001D02*
X151205001Y-89991001D01*
G04 #@! TD*
D15*
G04 #@! TO.N,GND*
G36*
X117325920Y-86080741D02*
X117245647Y-86332042D01*
X118110000Y-87196395D01*
X118974353Y-86332042D01*
X118894080Y-86080741D01*
X118820363Y-86054000D01*
X119930478Y-86054000D01*
X119865920Y-86080741D01*
X119785647Y-86332042D01*
X120650000Y-87196395D01*
X121514353Y-86332042D01*
X121434080Y-86080741D01*
X121360363Y-86054000D01*
X122501099Y-86054000D01*
X122348815Y-86117078D01*
X121931078Y-86534815D01*
X121911845Y-86581247D01*
X121693958Y-86511647D01*
X120829605Y-87376000D01*
X121693958Y-88240353D01*
X121911845Y-88170753D01*
X121931078Y-88217185D01*
X122348815Y-88634922D01*
X122375560Y-88646000D01*
X122348815Y-88657078D01*
X121931078Y-89074815D01*
X121920000Y-89101560D01*
X121908922Y-89074815D01*
X121491185Y-88657078D01*
X121444753Y-88637845D01*
X121514353Y-88419958D01*
X120650000Y-87555605D01*
X119785647Y-88419958D01*
X119855247Y-88637845D01*
X119808815Y-88657078D01*
X119391078Y-89074815D01*
X119371845Y-89121247D01*
X119153958Y-89051647D01*
X118289605Y-89916000D01*
X119153958Y-90780353D01*
X119371845Y-90710753D01*
X119391078Y-90757185D01*
X119808815Y-91174922D01*
X119965002Y-91239617D01*
X119965002Y-91525561D01*
X119963001Y-91525561D01*
X119715236Y-91574844D01*
X119505192Y-91715192D01*
X119457938Y-91785912D01*
X119306699Y-91634674D01*
X119073310Y-91538001D01*
X118470751Y-91538001D01*
X118312001Y-91696751D01*
X118312001Y-95856001D01*
X118332001Y-95856001D01*
X118332001Y-96110001D01*
X118312001Y-96110001D01*
X118312001Y-96130001D01*
X118058001Y-96130001D01*
X118058001Y-96110001D01*
X116946751Y-96110001D01*
X116788001Y-96268751D01*
X116788001Y-99366000D01*
X110692000Y-99366000D01*
X110692000Y-92046691D01*
X116788001Y-92046691D01*
X116788001Y-95697251D01*
X116946751Y-95856001D01*
X118058001Y-95856001D01*
X118058001Y-91696751D01*
X117899251Y-91538001D01*
X117296692Y-91538001D01*
X117063303Y-91634674D01*
X116884674Y-91813302D01*
X116788001Y-92046691D01*
X110692000Y-92046691D01*
X110692000Y-90800485D01*
X110816375Y-90986625D01*
X111307582Y-91314839D01*
X111740744Y-91401000D01*
X112033256Y-91401000D01*
X112466418Y-91314839D01*
X112957625Y-90986625D01*
X112975443Y-90959958D01*
X117245647Y-90959958D01*
X117325920Y-91211259D01*
X117881279Y-91412718D01*
X118471458Y-91386315D01*
X118894080Y-91211259D01*
X118974353Y-90959958D01*
X118110000Y-90095605D01*
X117245647Y-90959958D01*
X112975443Y-90959958D01*
X113285839Y-90495418D01*
X113401092Y-89916000D01*
X113355597Y-89687279D01*
X116613282Y-89687279D01*
X116639685Y-90277458D01*
X116814741Y-90700080D01*
X117066042Y-90780353D01*
X117930395Y-89916000D01*
X117066042Y-89051647D01*
X116814741Y-89131920D01*
X116613282Y-89687279D01*
X113355597Y-89687279D01*
X113285839Y-89336582D01*
X112957625Y-88845375D01*
X112935967Y-88830904D01*
X113096698Y-88764327D01*
X113275327Y-88585699D01*
X113343979Y-88419958D01*
X117245647Y-88419958D01*
X117317852Y-88646000D01*
X117245647Y-88872042D01*
X118110000Y-89736395D01*
X118974353Y-88872042D01*
X118902148Y-88646000D01*
X118974353Y-88419958D01*
X118110000Y-87555605D01*
X117245647Y-88419958D01*
X113343979Y-88419958D01*
X113372000Y-88352310D01*
X113372000Y-87661750D01*
X113213250Y-87503000D01*
X112014000Y-87503000D01*
X112014000Y-87523000D01*
X111760000Y-87523000D01*
X111760000Y-87503000D01*
X111740000Y-87503000D01*
X111740000Y-87249000D01*
X111760000Y-87249000D01*
X111760000Y-87229000D01*
X112014000Y-87229000D01*
X112014000Y-87249000D01*
X113213250Y-87249000D01*
X113314971Y-87147279D01*
X116613282Y-87147279D01*
X116639685Y-87737458D01*
X116814741Y-88160080D01*
X117066042Y-88240353D01*
X117930395Y-87376000D01*
X118289605Y-87376000D01*
X119153958Y-88240353D01*
X119380000Y-88168148D01*
X119606042Y-88240353D01*
X120470395Y-87376000D01*
X119606042Y-86511647D01*
X119380000Y-86583852D01*
X119153958Y-86511647D01*
X118289605Y-87376000D01*
X117930395Y-87376000D01*
X117066042Y-86511647D01*
X116814741Y-86591920D01*
X116613282Y-87147279D01*
X113314971Y-87147279D01*
X113372000Y-87090250D01*
X113372000Y-86399690D01*
X113275327Y-86166301D01*
X113163025Y-86054000D01*
X117390478Y-86054000D01*
X117325920Y-86080741D01*
X117325920Y-86080741D01*
G37*
X117325920Y-86080741D02*
X117245647Y-86332042D01*
X118110000Y-87196395D01*
X118974353Y-86332042D01*
X118894080Y-86080741D01*
X118820363Y-86054000D01*
X119930478Y-86054000D01*
X119865920Y-86080741D01*
X119785647Y-86332042D01*
X120650000Y-87196395D01*
X121514353Y-86332042D01*
X121434080Y-86080741D01*
X121360363Y-86054000D01*
X122501099Y-86054000D01*
X122348815Y-86117078D01*
X121931078Y-86534815D01*
X121911845Y-86581247D01*
X121693958Y-86511647D01*
X120829605Y-87376000D01*
X121693958Y-88240353D01*
X121911845Y-88170753D01*
X121931078Y-88217185D01*
X122348815Y-88634922D01*
X122375560Y-88646000D01*
X122348815Y-88657078D01*
X121931078Y-89074815D01*
X121920000Y-89101560D01*
X121908922Y-89074815D01*
X121491185Y-88657078D01*
X121444753Y-88637845D01*
X121514353Y-88419958D01*
X120650000Y-87555605D01*
X119785647Y-88419958D01*
X119855247Y-88637845D01*
X119808815Y-88657078D01*
X119391078Y-89074815D01*
X119371845Y-89121247D01*
X119153958Y-89051647D01*
X118289605Y-89916000D01*
X119153958Y-90780353D01*
X119371845Y-90710753D01*
X119391078Y-90757185D01*
X119808815Y-91174922D01*
X119965002Y-91239617D01*
X119965002Y-91525561D01*
X119963001Y-91525561D01*
X119715236Y-91574844D01*
X119505192Y-91715192D01*
X119457938Y-91785912D01*
X119306699Y-91634674D01*
X119073310Y-91538001D01*
X118470751Y-91538001D01*
X118312001Y-91696751D01*
X118312001Y-95856001D01*
X118332001Y-95856001D01*
X118332001Y-96110001D01*
X118312001Y-96110001D01*
X118312001Y-96130001D01*
X118058001Y-96130001D01*
X118058001Y-96110001D01*
X116946751Y-96110001D01*
X116788001Y-96268751D01*
X116788001Y-99366000D01*
X110692000Y-99366000D01*
X110692000Y-92046691D01*
X116788001Y-92046691D01*
X116788001Y-95697251D01*
X116946751Y-95856001D01*
X118058001Y-95856001D01*
X118058001Y-91696751D01*
X117899251Y-91538001D01*
X117296692Y-91538001D01*
X117063303Y-91634674D01*
X116884674Y-91813302D01*
X116788001Y-92046691D01*
X110692000Y-92046691D01*
X110692000Y-90800485D01*
X110816375Y-90986625D01*
X111307582Y-91314839D01*
X111740744Y-91401000D01*
X112033256Y-91401000D01*
X112466418Y-91314839D01*
X112957625Y-90986625D01*
X112975443Y-90959958D01*
X117245647Y-90959958D01*
X117325920Y-91211259D01*
X117881279Y-91412718D01*
X118471458Y-91386315D01*
X118894080Y-91211259D01*
X118974353Y-90959958D01*
X118110000Y-90095605D01*
X117245647Y-90959958D01*
X112975443Y-90959958D01*
X113285839Y-90495418D01*
X113401092Y-89916000D01*
X113355597Y-89687279D01*
X116613282Y-89687279D01*
X116639685Y-90277458D01*
X116814741Y-90700080D01*
X117066042Y-90780353D01*
X117930395Y-89916000D01*
X117066042Y-89051647D01*
X116814741Y-89131920D01*
X116613282Y-89687279D01*
X113355597Y-89687279D01*
X113285839Y-89336582D01*
X112957625Y-88845375D01*
X112935967Y-88830904D01*
X113096698Y-88764327D01*
X113275327Y-88585699D01*
X113343979Y-88419958D01*
X117245647Y-88419958D01*
X117317852Y-88646000D01*
X117245647Y-88872042D01*
X118110000Y-89736395D01*
X118974353Y-88872042D01*
X118902148Y-88646000D01*
X118974353Y-88419958D01*
X118110000Y-87555605D01*
X117245647Y-88419958D01*
X113343979Y-88419958D01*
X113372000Y-88352310D01*
X113372000Y-87661750D01*
X113213250Y-87503000D01*
X112014000Y-87503000D01*
X112014000Y-87523000D01*
X111760000Y-87523000D01*
X111760000Y-87503000D01*
X111740000Y-87503000D01*
X111740000Y-87249000D01*
X111760000Y-87249000D01*
X111760000Y-87229000D01*
X112014000Y-87229000D01*
X112014000Y-87249000D01*
X113213250Y-87249000D01*
X113314971Y-87147279D01*
X116613282Y-87147279D01*
X116639685Y-87737458D01*
X116814741Y-88160080D01*
X117066042Y-88240353D01*
X117930395Y-87376000D01*
X118289605Y-87376000D01*
X119153958Y-88240353D01*
X119380000Y-88168148D01*
X119606042Y-88240353D01*
X120470395Y-87376000D01*
X119606042Y-86511647D01*
X119380000Y-86583852D01*
X119153958Y-86511647D01*
X118289605Y-87376000D01*
X117930395Y-87376000D01*
X117066042Y-86511647D01*
X116814741Y-86591920D01*
X116613282Y-87147279D01*
X113314971Y-87147279D01*
X113372000Y-87090250D01*
X113372000Y-86399690D01*
X113275327Y-86166301D01*
X113163025Y-86054000D01*
X117390478Y-86054000D01*
X117325920Y-86080741D01*
G04 #@! TD*
M02*
